G75*
%MOIN*%
%OFA0B0*%
%FSLAX25Y25*%
%IPPOS*%
%LPD*%
%AMOC8*
5,1,8,0,0,1.08239X$1,22.5*
%
%ADD10C,0.00000*%
%ADD11C,0.06000*%
%ADD12OC8,0.06000*%
%ADD13C,0.05937*%
%ADD14OC8,0.06300*%
%ADD15C,0.06300*%
%ADD16OC8,0.05200*%
%ADD17C,0.05200*%
%ADD18OC8,0.06299*%
%ADD19C,0.05600*%
%ADD20R,0.06555X0.06555*%
%ADD21C,0.06555*%
%ADD22C,0.01200*%
%ADD23C,0.03000*%
%ADD24C,0.01800*%
%ADD25C,0.01000*%
%ADD26C,0.03100*%
D10*
X0001500Y0001500D02*
X0001500Y0291500D01*
X0391500Y0291500D01*
X0391421Y0001500D01*
X0001500Y0001500D01*
X0015201Y0021500D02*
X0015203Y0021658D01*
X0015209Y0021816D01*
X0015219Y0021974D01*
X0015233Y0022132D01*
X0015251Y0022289D01*
X0015272Y0022446D01*
X0015298Y0022602D01*
X0015328Y0022758D01*
X0015361Y0022913D01*
X0015399Y0023066D01*
X0015440Y0023219D01*
X0015485Y0023371D01*
X0015534Y0023522D01*
X0015587Y0023671D01*
X0015643Y0023819D01*
X0015703Y0023965D01*
X0015767Y0024110D01*
X0015835Y0024253D01*
X0015906Y0024395D01*
X0015980Y0024535D01*
X0016058Y0024672D01*
X0016140Y0024808D01*
X0016224Y0024942D01*
X0016313Y0025073D01*
X0016404Y0025202D01*
X0016499Y0025329D01*
X0016596Y0025454D01*
X0016697Y0025576D01*
X0016801Y0025695D01*
X0016908Y0025812D01*
X0017018Y0025926D01*
X0017131Y0026037D01*
X0017246Y0026146D01*
X0017364Y0026251D01*
X0017485Y0026353D01*
X0017608Y0026453D01*
X0017734Y0026549D01*
X0017862Y0026642D01*
X0017992Y0026732D01*
X0018125Y0026818D01*
X0018260Y0026902D01*
X0018396Y0026981D01*
X0018535Y0027058D01*
X0018676Y0027130D01*
X0018818Y0027200D01*
X0018962Y0027265D01*
X0019108Y0027327D01*
X0019255Y0027385D01*
X0019404Y0027440D01*
X0019554Y0027491D01*
X0019705Y0027538D01*
X0019857Y0027581D01*
X0020010Y0027620D01*
X0020165Y0027656D01*
X0020320Y0027687D01*
X0020476Y0027715D01*
X0020632Y0027739D01*
X0020789Y0027759D01*
X0020947Y0027775D01*
X0021104Y0027787D01*
X0021263Y0027795D01*
X0021421Y0027799D01*
X0021579Y0027799D01*
X0021737Y0027795D01*
X0021896Y0027787D01*
X0022053Y0027775D01*
X0022211Y0027759D01*
X0022368Y0027739D01*
X0022524Y0027715D01*
X0022680Y0027687D01*
X0022835Y0027656D01*
X0022990Y0027620D01*
X0023143Y0027581D01*
X0023295Y0027538D01*
X0023446Y0027491D01*
X0023596Y0027440D01*
X0023745Y0027385D01*
X0023892Y0027327D01*
X0024038Y0027265D01*
X0024182Y0027200D01*
X0024324Y0027130D01*
X0024465Y0027058D01*
X0024604Y0026981D01*
X0024740Y0026902D01*
X0024875Y0026818D01*
X0025008Y0026732D01*
X0025138Y0026642D01*
X0025266Y0026549D01*
X0025392Y0026453D01*
X0025515Y0026353D01*
X0025636Y0026251D01*
X0025754Y0026146D01*
X0025869Y0026037D01*
X0025982Y0025926D01*
X0026092Y0025812D01*
X0026199Y0025695D01*
X0026303Y0025576D01*
X0026404Y0025454D01*
X0026501Y0025329D01*
X0026596Y0025202D01*
X0026687Y0025073D01*
X0026776Y0024942D01*
X0026860Y0024808D01*
X0026942Y0024672D01*
X0027020Y0024535D01*
X0027094Y0024395D01*
X0027165Y0024253D01*
X0027233Y0024110D01*
X0027297Y0023965D01*
X0027357Y0023819D01*
X0027413Y0023671D01*
X0027466Y0023522D01*
X0027515Y0023371D01*
X0027560Y0023219D01*
X0027601Y0023066D01*
X0027639Y0022913D01*
X0027672Y0022758D01*
X0027702Y0022602D01*
X0027728Y0022446D01*
X0027749Y0022289D01*
X0027767Y0022132D01*
X0027781Y0021974D01*
X0027791Y0021816D01*
X0027797Y0021658D01*
X0027799Y0021500D01*
X0027797Y0021342D01*
X0027791Y0021184D01*
X0027781Y0021026D01*
X0027767Y0020868D01*
X0027749Y0020711D01*
X0027728Y0020554D01*
X0027702Y0020398D01*
X0027672Y0020242D01*
X0027639Y0020087D01*
X0027601Y0019934D01*
X0027560Y0019781D01*
X0027515Y0019629D01*
X0027466Y0019478D01*
X0027413Y0019329D01*
X0027357Y0019181D01*
X0027297Y0019035D01*
X0027233Y0018890D01*
X0027165Y0018747D01*
X0027094Y0018605D01*
X0027020Y0018465D01*
X0026942Y0018328D01*
X0026860Y0018192D01*
X0026776Y0018058D01*
X0026687Y0017927D01*
X0026596Y0017798D01*
X0026501Y0017671D01*
X0026404Y0017546D01*
X0026303Y0017424D01*
X0026199Y0017305D01*
X0026092Y0017188D01*
X0025982Y0017074D01*
X0025869Y0016963D01*
X0025754Y0016854D01*
X0025636Y0016749D01*
X0025515Y0016647D01*
X0025392Y0016547D01*
X0025266Y0016451D01*
X0025138Y0016358D01*
X0025008Y0016268D01*
X0024875Y0016182D01*
X0024740Y0016098D01*
X0024604Y0016019D01*
X0024465Y0015942D01*
X0024324Y0015870D01*
X0024182Y0015800D01*
X0024038Y0015735D01*
X0023892Y0015673D01*
X0023745Y0015615D01*
X0023596Y0015560D01*
X0023446Y0015509D01*
X0023295Y0015462D01*
X0023143Y0015419D01*
X0022990Y0015380D01*
X0022835Y0015344D01*
X0022680Y0015313D01*
X0022524Y0015285D01*
X0022368Y0015261D01*
X0022211Y0015241D01*
X0022053Y0015225D01*
X0021896Y0015213D01*
X0021737Y0015205D01*
X0021579Y0015201D01*
X0021421Y0015201D01*
X0021263Y0015205D01*
X0021104Y0015213D01*
X0020947Y0015225D01*
X0020789Y0015241D01*
X0020632Y0015261D01*
X0020476Y0015285D01*
X0020320Y0015313D01*
X0020165Y0015344D01*
X0020010Y0015380D01*
X0019857Y0015419D01*
X0019705Y0015462D01*
X0019554Y0015509D01*
X0019404Y0015560D01*
X0019255Y0015615D01*
X0019108Y0015673D01*
X0018962Y0015735D01*
X0018818Y0015800D01*
X0018676Y0015870D01*
X0018535Y0015942D01*
X0018396Y0016019D01*
X0018260Y0016098D01*
X0018125Y0016182D01*
X0017992Y0016268D01*
X0017862Y0016358D01*
X0017734Y0016451D01*
X0017608Y0016547D01*
X0017485Y0016647D01*
X0017364Y0016749D01*
X0017246Y0016854D01*
X0017131Y0016963D01*
X0017018Y0017074D01*
X0016908Y0017188D01*
X0016801Y0017305D01*
X0016697Y0017424D01*
X0016596Y0017546D01*
X0016499Y0017671D01*
X0016404Y0017798D01*
X0016313Y0017927D01*
X0016224Y0018058D01*
X0016140Y0018192D01*
X0016058Y0018328D01*
X0015980Y0018465D01*
X0015906Y0018605D01*
X0015835Y0018747D01*
X0015767Y0018890D01*
X0015703Y0019035D01*
X0015643Y0019181D01*
X0015587Y0019329D01*
X0015534Y0019478D01*
X0015485Y0019629D01*
X0015440Y0019781D01*
X0015399Y0019934D01*
X0015361Y0020087D01*
X0015328Y0020242D01*
X0015298Y0020398D01*
X0015272Y0020554D01*
X0015251Y0020711D01*
X0015233Y0020868D01*
X0015219Y0021026D01*
X0015209Y0021184D01*
X0015203Y0021342D01*
X0015201Y0021500D01*
X0203350Y0016205D02*
X0203352Y0016317D01*
X0203358Y0016428D01*
X0203368Y0016540D01*
X0203382Y0016651D01*
X0203399Y0016761D01*
X0203421Y0016871D01*
X0203447Y0016980D01*
X0203476Y0017088D01*
X0203509Y0017194D01*
X0203546Y0017300D01*
X0203587Y0017404D01*
X0203632Y0017507D01*
X0203680Y0017608D01*
X0203731Y0017707D01*
X0203786Y0017804D01*
X0203845Y0017899D01*
X0203906Y0017993D01*
X0203971Y0018084D01*
X0204040Y0018172D01*
X0204111Y0018258D01*
X0204185Y0018342D01*
X0204263Y0018422D01*
X0204343Y0018500D01*
X0204426Y0018576D01*
X0204511Y0018648D01*
X0204599Y0018717D01*
X0204689Y0018783D01*
X0204782Y0018845D01*
X0204877Y0018905D01*
X0204974Y0018961D01*
X0205072Y0019013D01*
X0205173Y0019062D01*
X0205275Y0019107D01*
X0205379Y0019149D01*
X0205484Y0019187D01*
X0205591Y0019221D01*
X0205698Y0019251D01*
X0205807Y0019278D01*
X0205916Y0019300D01*
X0206027Y0019319D01*
X0206137Y0019334D01*
X0206249Y0019345D01*
X0206360Y0019352D01*
X0206472Y0019355D01*
X0206584Y0019354D01*
X0206696Y0019349D01*
X0206807Y0019340D01*
X0206918Y0019327D01*
X0207029Y0019310D01*
X0207139Y0019290D01*
X0207248Y0019265D01*
X0207356Y0019237D01*
X0207463Y0019204D01*
X0207569Y0019168D01*
X0207673Y0019128D01*
X0207776Y0019085D01*
X0207878Y0019038D01*
X0207977Y0018987D01*
X0208075Y0018933D01*
X0208171Y0018875D01*
X0208265Y0018814D01*
X0208356Y0018750D01*
X0208445Y0018683D01*
X0208532Y0018612D01*
X0208616Y0018538D01*
X0208698Y0018462D01*
X0208776Y0018382D01*
X0208852Y0018300D01*
X0208925Y0018215D01*
X0208995Y0018128D01*
X0209061Y0018038D01*
X0209125Y0017946D01*
X0209185Y0017852D01*
X0209242Y0017756D01*
X0209295Y0017657D01*
X0209345Y0017557D01*
X0209391Y0017456D01*
X0209434Y0017352D01*
X0209473Y0017247D01*
X0209508Y0017141D01*
X0209539Y0017034D01*
X0209567Y0016925D01*
X0209590Y0016816D01*
X0209610Y0016706D01*
X0209626Y0016595D01*
X0209638Y0016484D01*
X0209646Y0016373D01*
X0209650Y0016261D01*
X0209650Y0016149D01*
X0209646Y0016037D01*
X0209638Y0015926D01*
X0209626Y0015815D01*
X0209610Y0015704D01*
X0209590Y0015594D01*
X0209567Y0015485D01*
X0209539Y0015376D01*
X0209508Y0015269D01*
X0209473Y0015163D01*
X0209434Y0015058D01*
X0209391Y0014954D01*
X0209345Y0014853D01*
X0209295Y0014753D01*
X0209242Y0014654D01*
X0209185Y0014558D01*
X0209125Y0014464D01*
X0209061Y0014372D01*
X0208995Y0014282D01*
X0208925Y0014195D01*
X0208852Y0014110D01*
X0208776Y0014028D01*
X0208698Y0013948D01*
X0208616Y0013872D01*
X0208532Y0013798D01*
X0208445Y0013727D01*
X0208356Y0013660D01*
X0208265Y0013596D01*
X0208171Y0013535D01*
X0208075Y0013477D01*
X0207977Y0013423D01*
X0207878Y0013372D01*
X0207776Y0013325D01*
X0207673Y0013282D01*
X0207569Y0013242D01*
X0207463Y0013206D01*
X0207356Y0013173D01*
X0207248Y0013145D01*
X0207139Y0013120D01*
X0207029Y0013100D01*
X0206918Y0013083D01*
X0206807Y0013070D01*
X0206696Y0013061D01*
X0206584Y0013056D01*
X0206472Y0013055D01*
X0206360Y0013058D01*
X0206249Y0013065D01*
X0206137Y0013076D01*
X0206027Y0013091D01*
X0205916Y0013110D01*
X0205807Y0013132D01*
X0205698Y0013159D01*
X0205591Y0013189D01*
X0205484Y0013223D01*
X0205379Y0013261D01*
X0205275Y0013303D01*
X0205173Y0013348D01*
X0205072Y0013397D01*
X0204974Y0013449D01*
X0204877Y0013505D01*
X0204782Y0013565D01*
X0204689Y0013627D01*
X0204599Y0013693D01*
X0204511Y0013762D01*
X0204426Y0013834D01*
X0204343Y0013910D01*
X0204263Y0013988D01*
X0204185Y0014068D01*
X0204111Y0014152D01*
X0204040Y0014238D01*
X0203971Y0014326D01*
X0203906Y0014417D01*
X0203845Y0014511D01*
X0203786Y0014606D01*
X0203731Y0014703D01*
X0203680Y0014802D01*
X0203632Y0014903D01*
X0203587Y0015006D01*
X0203546Y0015110D01*
X0203509Y0015216D01*
X0203476Y0015322D01*
X0203447Y0015430D01*
X0203421Y0015539D01*
X0203399Y0015649D01*
X0203382Y0015759D01*
X0203368Y0015870D01*
X0203358Y0015982D01*
X0203352Y0016093D01*
X0203350Y0016205D01*
X0203350Y0039827D02*
X0203352Y0039939D01*
X0203358Y0040050D01*
X0203368Y0040162D01*
X0203382Y0040273D01*
X0203399Y0040383D01*
X0203421Y0040493D01*
X0203447Y0040602D01*
X0203476Y0040710D01*
X0203509Y0040816D01*
X0203546Y0040922D01*
X0203587Y0041026D01*
X0203632Y0041129D01*
X0203680Y0041230D01*
X0203731Y0041329D01*
X0203786Y0041426D01*
X0203845Y0041521D01*
X0203906Y0041615D01*
X0203971Y0041706D01*
X0204040Y0041794D01*
X0204111Y0041880D01*
X0204185Y0041964D01*
X0204263Y0042044D01*
X0204343Y0042122D01*
X0204426Y0042198D01*
X0204511Y0042270D01*
X0204599Y0042339D01*
X0204689Y0042405D01*
X0204782Y0042467D01*
X0204877Y0042527D01*
X0204974Y0042583D01*
X0205072Y0042635D01*
X0205173Y0042684D01*
X0205275Y0042729D01*
X0205379Y0042771D01*
X0205484Y0042809D01*
X0205591Y0042843D01*
X0205698Y0042873D01*
X0205807Y0042900D01*
X0205916Y0042922D01*
X0206027Y0042941D01*
X0206137Y0042956D01*
X0206249Y0042967D01*
X0206360Y0042974D01*
X0206472Y0042977D01*
X0206584Y0042976D01*
X0206696Y0042971D01*
X0206807Y0042962D01*
X0206918Y0042949D01*
X0207029Y0042932D01*
X0207139Y0042912D01*
X0207248Y0042887D01*
X0207356Y0042859D01*
X0207463Y0042826D01*
X0207569Y0042790D01*
X0207673Y0042750D01*
X0207776Y0042707D01*
X0207878Y0042660D01*
X0207977Y0042609D01*
X0208075Y0042555D01*
X0208171Y0042497D01*
X0208265Y0042436D01*
X0208356Y0042372D01*
X0208445Y0042305D01*
X0208532Y0042234D01*
X0208616Y0042160D01*
X0208698Y0042084D01*
X0208776Y0042004D01*
X0208852Y0041922D01*
X0208925Y0041837D01*
X0208995Y0041750D01*
X0209061Y0041660D01*
X0209125Y0041568D01*
X0209185Y0041474D01*
X0209242Y0041378D01*
X0209295Y0041279D01*
X0209345Y0041179D01*
X0209391Y0041078D01*
X0209434Y0040974D01*
X0209473Y0040869D01*
X0209508Y0040763D01*
X0209539Y0040656D01*
X0209567Y0040547D01*
X0209590Y0040438D01*
X0209610Y0040328D01*
X0209626Y0040217D01*
X0209638Y0040106D01*
X0209646Y0039995D01*
X0209650Y0039883D01*
X0209650Y0039771D01*
X0209646Y0039659D01*
X0209638Y0039548D01*
X0209626Y0039437D01*
X0209610Y0039326D01*
X0209590Y0039216D01*
X0209567Y0039107D01*
X0209539Y0038998D01*
X0209508Y0038891D01*
X0209473Y0038785D01*
X0209434Y0038680D01*
X0209391Y0038576D01*
X0209345Y0038475D01*
X0209295Y0038375D01*
X0209242Y0038276D01*
X0209185Y0038180D01*
X0209125Y0038086D01*
X0209061Y0037994D01*
X0208995Y0037904D01*
X0208925Y0037817D01*
X0208852Y0037732D01*
X0208776Y0037650D01*
X0208698Y0037570D01*
X0208616Y0037494D01*
X0208532Y0037420D01*
X0208445Y0037349D01*
X0208356Y0037282D01*
X0208265Y0037218D01*
X0208171Y0037157D01*
X0208075Y0037099D01*
X0207977Y0037045D01*
X0207878Y0036994D01*
X0207776Y0036947D01*
X0207673Y0036904D01*
X0207569Y0036864D01*
X0207463Y0036828D01*
X0207356Y0036795D01*
X0207248Y0036767D01*
X0207139Y0036742D01*
X0207029Y0036722D01*
X0206918Y0036705D01*
X0206807Y0036692D01*
X0206696Y0036683D01*
X0206584Y0036678D01*
X0206472Y0036677D01*
X0206360Y0036680D01*
X0206249Y0036687D01*
X0206137Y0036698D01*
X0206027Y0036713D01*
X0205916Y0036732D01*
X0205807Y0036754D01*
X0205698Y0036781D01*
X0205591Y0036811D01*
X0205484Y0036845D01*
X0205379Y0036883D01*
X0205275Y0036925D01*
X0205173Y0036970D01*
X0205072Y0037019D01*
X0204974Y0037071D01*
X0204877Y0037127D01*
X0204782Y0037187D01*
X0204689Y0037249D01*
X0204599Y0037315D01*
X0204511Y0037384D01*
X0204426Y0037456D01*
X0204343Y0037532D01*
X0204263Y0037610D01*
X0204185Y0037690D01*
X0204111Y0037774D01*
X0204040Y0037860D01*
X0203971Y0037948D01*
X0203906Y0038039D01*
X0203845Y0038133D01*
X0203786Y0038228D01*
X0203731Y0038325D01*
X0203680Y0038424D01*
X0203632Y0038525D01*
X0203587Y0038628D01*
X0203546Y0038732D01*
X0203509Y0038838D01*
X0203476Y0038944D01*
X0203447Y0039052D01*
X0203421Y0039161D01*
X0203399Y0039271D01*
X0203382Y0039381D01*
X0203368Y0039492D01*
X0203358Y0039604D01*
X0203352Y0039715D01*
X0203350Y0039827D01*
X0365201Y0021500D02*
X0365203Y0021658D01*
X0365209Y0021816D01*
X0365219Y0021974D01*
X0365233Y0022132D01*
X0365251Y0022289D01*
X0365272Y0022446D01*
X0365298Y0022602D01*
X0365328Y0022758D01*
X0365361Y0022913D01*
X0365399Y0023066D01*
X0365440Y0023219D01*
X0365485Y0023371D01*
X0365534Y0023522D01*
X0365587Y0023671D01*
X0365643Y0023819D01*
X0365703Y0023965D01*
X0365767Y0024110D01*
X0365835Y0024253D01*
X0365906Y0024395D01*
X0365980Y0024535D01*
X0366058Y0024672D01*
X0366140Y0024808D01*
X0366224Y0024942D01*
X0366313Y0025073D01*
X0366404Y0025202D01*
X0366499Y0025329D01*
X0366596Y0025454D01*
X0366697Y0025576D01*
X0366801Y0025695D01*
X0366908Y0025812D01*
X0367018Y0025926D01*
X0367131Y0026037D01*
X0367246Y0026146D01*
X0367364Y0026251D01*
X0367485Y0026353D01*
X0367608Y0026453D01*
X0367734Y0026549D01*
X0367862Y0026642D01*
X0367992Y0026732D01*
X0368125Y0026818D01*
X0368260Y0026902D01*
X0368396Y0026981D01*
X0368535Y0027058D01*
X0368676Y0027130D01*
X0368818Y0027200D01*
X0368962Y0027265D01*
X0369108Y0027327D01*
X0369255Y0027385D01*
X0369404Y0027440D01*
X0369554Y0027491D01*
X0369705Y0027538D01*
X0369857Y0027581D01*
X0370010Y0027620D01*
X0370165Y0027656D01*
X0370320Y0027687D01*
X0370476Y0027715D01*
X0370632Y0027739D01*
X0370789Y0027759D01*
X0370947Y0027775D01*
X0371104Y0027787D01*
X0371263Y0027795D01*
X0371421Y0027799D01*
X0371579Y0027799D01*
X0371737Y0027795D01*
X0371896Y0027787D01*
X0372053Y0027775D01*
X0372211Y0027759D01*
X0372368Y0027739D01*
X0372524Y0027715D01*
X0372680Y0027687D01*
X0372835Y0027656D01*
X0372990Y0027620D01*
X0373143Y0027581D01*
X0373295Y0027538D01*
X0373446Y0027491D01*
X0373596Y0027440D01*
X0373745Y0027385D01*
X0373892Y0027327D01*
X0374038Y0027265D01*
X0374182Y0027200D01*
X0374324Y0027130D01*
X0374465Y0027058D01*
X0374604Y0026981D01*
X0374740Y0026902D01*
X0374875Y0026818D01*
X0375008Y0026732D01*
X0375138Y0026642D01*
X0375266Y0026549D01*
X0375392Y0026453D01*
X0375515Y0026353D01*
X0375636Y0026251D01*
X0375754Y0026146D01*
X0375869Y0026037D01*
X0375982Y0025926D01*
X0376092Y0025812D01*
X0376199Y0025695D01*
X0376303Y0025576D01*
X0376404Y0025454D01*
X0376501Y0025329D01*
X0376596Y0025202D01*
X0376687Y0025073D01*
X0376776Y0024942D01*
X0376860Y0024808D01*
X0376942Y0024672D01*
X0377020Y0024535D01*
X0377094Y0024395D01*
X0377165Y0024253D01*
X0377233Y0024110D01*
X0377297Y0023965D01*
X0377357Y0023819D01*
X0377413Y0023671D01*
X0377466Y0023522D01*
X0377515Y0023371D01*
X0377560Y0023219D01*
X0377601Y0023066D01*
X0377639Y0022913D01*
X0377672Y0022758D01*
X0377702Y0022602D01*
X0377728Y0022446D01*
X0377749Y0022289D01*
X0377767Y0022132D01*
X0377781Y0021974D01*
X0377791Y0021816D01*
X0377797Y0021658D01*
X0377799Y0021500D01*
X0377797Y0021342D01*
X0377791Y0021184D01*
X0377781Y0021026D01*
X0377767Y0020868D01*
X0377749Y0020711D01*
X0377728Y0020554D01*
X0377702Y0020398D01*
X0377672Y0020242D01*
X0377639Y0020087D01*
X0377601Y0019934D01*
X0377560Y0019781D01*
X0377515Y0019629D01*
X0377466Y0019478D01*
X0377413Y0019329D01*
X0377357Y0019181D01*
X0377297Y0019035D01*
X0377233Y0018890D01*
X0377165Y0018747D01*
X0377094Y0018605D01*
X0377020Y0018465D01*
X0376942Y0018328D01*
X0376860Y0018192D01*
X0376776Y0018058D01*
X0376687Y0017927D01*
X0376596Y0017798D01*
X0376501Y0017671D01*
X0376404Y0017546D01*
X0376303Y0017424D01*
X0376199Y0017305D01*
X0376092Y0017188D01*
X0375982Y0017074D01*
X0375869Y0016963D01*
X0375754Y0016854D01*
X0375636Y0016749D01*
X0375515Y0016647D01*
X0375392Y0016547D01*
X0375266Y0016451D01*
X0375138Y0016358D01*
X0375008Y0016268D01*
X0374875Y0016182D01*
X0374740Y0016098D01*
X0374604Y0016019D01*
X0374465Y0015942D01*
X0374324Y0015870D01*
X0374182Y0015800D01*
X0374038Y0015735D01*
X0373892Y0015673D01*
X0373745Y0015615D01*
X0373596Y0015560D01*
X0373446Y0015509D01*
X0373295Y0015462D01*
X0373143Y0015419D01*
X0372990Y0015380D01*
X0372835Y0015344D01*
X0372680Y0015313D01*
X0372524Y0015285D01*
X0372368Y0015261D01*
X0372211Y0015241D01*
X0372053Y0015225D01*
X0371896Y0015213D01*
X0371737Y0015205D01*
X0371579Y0015201D01*
X0371421Y0015201D01*
X0371263Y0015205D01*
X0371104Y0015213D01*
X0370947Y0015225D01*
X0370789Y0015241D01*
X0370632Y0015261D01*
X0370476Y0015285D01*
X0370320Y0015313D01*
X0370165Y0015344D01*
X0370010Y0015380D01*
X0369857Y0015419D01*
X0369705Y0015462D01*
X0369554Y0015509D01*
X0369404Y0015560D01*
X0369255Y0015615D01*
X0369108Y0015673D01*
X0368962Y0015735D01*
X0368818Y0015800D01*
X0368676Y0015870D01*
X0368535Y0015942D01*
X0368396Y0016019D01*
X0368260Y0016098D01*
X0368125Y0016182D01*
X0367992Y0016268D01*
X0367862Y0016358D01*
X0367734Y0016451D01*
X0367608Y0016547D01*
X0367485Y0016647D01*
X0367364Y0016749D01*
X0367246Y0016854D01*
X0367131Y0016963D01*
X0367018Y0017074D01*
X0366908Y0017188D01*
X0366801Y0017305D01*
X0366697Y0017424D01*
X0366596Y0017546D01*
X0366499Y0017671D01*
X0366404Y0017798D01*
X0366313Y0017927D01*
X0366224Y0018058D01*
X0366140Y0018192D01*
X0366058Y0018328D01*
X0365980Y0018465D01*
X0365906Y0018605D01*
X0365835Y0018747D01*
X0365767Y0018890D01*
X0365703Y0019035D01*
X0365643Y0019181D01*
X0365587Y0019329D01*
X0365534Y0019478D01*
X0365485Y0019629D01*
X0365440Y0019781D01*
X0365399Y0019934D01*
X0365361Y0020087D01*
X0365328Y0020242D01*
X0365298Y0020398D01*
X0365272Y0020554D01*
X0365251Y0020711D01*
X0365233Y0020868D01*
X0365219Y0021026D01*
X0365209Y0021184D01*
X0365203Y0021342D01*
X0365201Y0021500D01*
X0365201Y0271500D02*
X0365203Y0271658D01*
X0365209Y0271816D01*
X0365219Y0271974D01*
X0365233Y0272132D01*
X0365251Y0272289D01*
X0365272Y0272446D01*
X0365298Y0272602D01*
X0365328Y0272758D01*
X0365361Y0272913D01*
X0365399Y0273066D01*
X0365440Y0273219D01*
X0365485Y0273371D01*
X0365534Y0273522D01*
X0365587Y0273671D01*
X0365643Y0273819D01*
X0365703Y0273965D01*
X0365767Y0274110D01*
X0365835Y0274253D01*
X0365906Y0274395D01*
X0365980Y0274535D01*
X0366058Y0274672D01*
X0366140Y0274808D01*
X0366224Y0274942D01*
X0366313Y0275073D01*
X0366404Y0275202D01*
X0366499Y0275329D01*
X0366596Y0275454D01*
X0366697Y0275576D01*
X0366801Y0275695D01*
X0366908Y0275812D01*
X0367018Y0275926D01*
X0367131Y0276037D01*
X0367246Y0276146D01*
X0367364Y0276251D01*
X0367485Y0276353D01*
X0367608Y0276453D01*
X0367734Y0276549D01*
X0367862Y0276642D01*
X0367992Y0276732D01*
X0368125Y0276818D01*
X0368260Y0276902D01*
X0368396Y0276981D01*
X0368535Y0277058D01*
X0368676Y0277130D01*
X0368818Y0277200D01*
X0368962Y0277265D01*
X0369108Y0277327D01*
X0369255Y0277385D01*
X0369404Y0277440D01*
X0369554Y0277491D01*
X0369705Y0277538D01*
X0369857Y0277581D01*
X0370010Y0277620D01*
X0370165Y0277656D01*
X0370320Y0277687D01*
X0370476Y0277715D01*
X0370632Y0277739D01*
X0370789Y0277759D01*
X0370947Y0277775D01*
X0371104Y0277787D01*
X0371263Y0277795D01*
X0371421Y0277799D01*
X0371579Y0277799D01*
X0371737Y0277795D01*
X0371896Y0277787D01*
X0372053Y0277775D01*
X0372211Y0277759D01*
X0372368Y0277739D01*
X0372524Y0277715D01*
X0372680Y0277687D01*
X0372835Y0277656D01*
X0372990Y0277620D01*
X0373143Y0277581D01*
X0373295Y0277538D01*
X0373446Y0277491D01*
X0373596Y0277440D01*
X0373745Y0277385D01*
X0373892Y0277327D01*
X0374038Y0277265D01*
X0374182Y0277200D01*
X0374324Y0277130D01*
X0374465Y0277058D01*
X0374604Y0276981D01*
X0374740Y0276902D01*
X0374875Y0276818D01*
X0375008Y0276732D01*
X0375138Y0276642D01*
X0375266Y0276549D01*
X0375392Y0276453D01*
X0375515Y0276353D01*
X0375636Y0276251D01*
X0375754Y0276146D01*
X0375869Y0276037D01*
X0375982Y0275926D01*
X0376092Y0275812D01*
X0376199Y0275695D01*
X0376303Y0275576D01*
X0376404Y0275454D01*
X0376501Y0275329D01*
X0376596Y0275202D01*
X0376687Y0275073D01*
X0376776Y0274942D01*
X0376860Y0274808D01*
X0376942Y0274672D01*
X0377020Y0274535D01*
X0377094Y0274395D01*
X0377165Y0274253D01*
X0377233Y0274110D01*
X0377297Y0273965D01*
X0377357Y0273819D01*
X0377413Y0273671D01*
X0377466Y0273522D01*
X0377515Y0273371D01*
X0377560Y0273219D01*
X0377601Y0273066D01*
X0377639Y0272913D01*
X0377672Y0272758D01*
X0377702Y0272602D01*
X0377728Y0272446D01*
X0377749Y0272289D01*
X0377767Y0272132D01*
X0377781Y0271974D01*
X0377791Y0271816D01*
X0377797Y0271658D01*
X0377799Y0271500D01*
X0377797Y0271342D01*
X0377791Y0271184D01*
X0377781Y0271026D01*
X0377767Y0270868D01*
X0377749Y0270711D01*
X0377728Y0270554D01*
X0377702Y0270398D01*
X0377672Y0270242D01*
X0377639Y0270087D01*
X0377601Y0269934D01*
X0377560Y0269781D01*
X0377515Y0269629D01*
X0377466Y0269478D01*
X0377413Y0269329D01*
X0377357Y0269181D01*
X0377297Y0269035D01*
X0377233Y0268890D01*
X0377165Y0268747D01*
X0377094Y0268605D01*
X0377020Y0268465D01*
X0376942Y0268328D01*
X0376860Y0268192D01*
X0376776Y0268058D01*
X0376687Y0267927D01*
X0376596Y0267798D01*
X0376501Y0267671D01*
X0376404Y0267546D01*
X0376303Y0267424D01*
X0376199Y0267305D01*
X0376092Y0267188D01*
X0375982Y0267074D01*
X0375869Y0266963D01*
X0375754Y0266854D01*
X0375636Y0266749D01*
X0375515Y0266647D01*
X0375392Y0266547D01*
X0375266Y0266451D01*
X0375138Y0266358D01*
X0375008Y0266268D01*
X0374875Y0266182D01*
X0374740Y0266098D01*
X0374604Y0266019D01*
X0374465Y0265942D01*
X0374324Y0265870D01*
X0374182Y0265800D01*
X0374038Y0265735D01*
X0373892Y0265673D01*
X0373745Y0265615D01*
X0373596Y0265560D01*
X0373446Y0265509D01*
X0373295Y0265462D01*
X0373143Y0265419D01*
X0372990Y0265380D01*
X0372835Y0265344D01*
X0372680Y0265313D01*
X0372524Y0265285D01*
X0372368Y0265261D01*
X0372211Y0265241D01*
X0372053Y0265225D01*
X0371896Y0265213D01*
X0371737Y0265205D01*
X0371579Y0265201D01*
X0371421Y0265201D01*
X0371263Y0265205D01*
X0371104Y0265213D01*
X0370947Y0265225D01*
X0370789Y0265241D01*
X0370632Y0265261D01*
X0370476Y0265285D01*
X0370320Y0265313D01*
X0370165Y0265344D01*
X0370010Y0265380D01*
X0369857Y0265419D01*
X0369705Y0265462D01*
X0369554Y0265509D01*
X0369404Y0265560D01*
X0369255Y0265615D01*
X0369108Y0265673D01*
X0368962Y0265735D01*
X0368818Y0265800D01*
X0368676Y0265870D01*
X0368535Y0265942D01*
X0368396Y0266019D01*
X0368260Y0266098D01*
X0368125Y0266182D01*
X0367992Y0266268D01*
X0367862Y0266358D01*
X0367734Y0266451D01*
X0367608Y0266547D01*
X0367485Y0266647D01*
X0367364Y0266749D01*
X0367246Y0266854D01*
X0367131Y0266963D01*
X0367018Y0267074D01*
X0366908Y0267188D01*
X0366801Y0267305D01*
X0366697Y0267424D01*
X0366596Y0267546D01*
X0366499Y0267671D01*
X0366404Y0267798D01*
X0366313Y0267927D01*
X0366224Y0268058D01*
X0366140Y0268192D01*
X0366058Y0268328D01*
X0365980Y0268465D01*
X0365906Y0268605D01*
X0365835Y0268747D01*
X0365767Y0268890D01*
X0365703Y0269035D01*
X0365643Y0269181D01*
X0365587Y0269329D01*
X0365534Y0269478D01*
X0365485Y0269629D01*
X0365440Y0269781D01*
X0365399Y0269934D01*
X0365361Y0270087D01*
X0365328Y0270242D01*
X0365298Y0270398D01*
X0365272Y0270554D01*
X0365251Y0270711D01*
X0365233Y0270868D01*
X0365219Y0271026D01*
X0365209Y0271184D01*
X0365203Y0271342D01*
X0365201Y0271500D01*
X0015201Y0271500D02*
X0015203Y0271658D01*
X0015209Y0271816D01*
X0015219Y0271974D01*
X0015233Y0272132D01*
X0015251Y0272289D01*
X0015272Y0272446D01*
X0015298Y0272602D01*
X0015328Y0272758D01*
X0015361Y0272913D01*
X0015399Y0273066D01*
X0015440Y0273219D01*
X0015485Y0273371D01*
X0015534Y0273522D01*
X0015587Y0273671D01*
X0015643Y0273819D01*
X0015703Y0273965D01*
X0015767Y0274110D01*
X0015835Y0274253D01*
X0015906Y0274395D01*
X0015980Y0274535D01*
X0016058Y0274672D01*
X0016140Y0274808D01*
X0016224Y0274942D01*
X0016313Y0275073D01*
X0016404Y0275202D01*
X0016499Y0275329D01*
X0016596Y0275454D01*
X0016697Y0275576D01*
X0016801Y0275695D01*
X0016908Y0275812D01*
X0017018Y0275926D01*
X0017131Y0276037D01*
X0017246Y0276146D01*
X0017364Y0276251D01*
X0017485Y0276353D01*
X0017608Y0276453D01*
X0017734Y0276549D01*
X0017862Y0276642D01*
X0017992Y0276732D01*
X0018125Y0276818D01*
X0018260Y0276902D01*
X0018396Y0276981D01*
X0018535Y0277058D01*
X0018676Y0277130D01*
X0018818Y0277200D01*
X0018962Y0277265D01*
X0019108Y0277327D01*
X0019255Y0277385D01*
X0019404Y0277440D01*
X0019554Y0277491D01*
X0019705Y0277538D01*
X0019857Y0277581D01*
X0020010Y0277620D01*
X0020165Y0277656D01*
X0020320Y0277687D01*
X0020476Y0277715D01*
X0020632Y0277739D01*
X0020789Y0277759D01*
X0020947Y0277775D01*
X0021104Y0277787D01*
X0021263Y0277795D01*
X0021421Y0277799D01*
X0021579Y0277799D01*
X0021737Y0277795D01*
X0021896Y0277787D01*
X0022053Y0277775D01*
X0022211Y0277759D01*
X0022368Y0277739D01*
X0022524Y0277715D01*
X0022680Y0277687D01*
X0022835Y0277656D01*
X0022990Y0277620D01*
X0023143Y0277581D01*
X0023295Y0277538D01*
X0023446Y0277491D01*
X0023596Y0277440D01*
X0023745Y0277385D01*
X0023892Y0277327D01*
X0024038Y0277265D01*
X0024182Y0277200D01*
X0024324Y0277130D01*
X0024465Y0277058D01*
X0024604Y0276981D01*
X0024740Y0276902D01*
X0024875Y0276818D01*
X0025008Y0276732D01*
X0025138Y0276642D01*
X0025266Y0276549D01*
X0025392Y0276453D01*
X0025515Y0276353D01*
X0025636Y0276251D01*
X0025754Y0276146D01*
X0025869Y0276037D01*
X0025982Y0275926D01*
X0026092Y0275812D01*
X0026199Y0275695D01*
X0026303Y0275576D01*
X0026404Y0275454D01*
X0026501Y0275329D01*
X0026596Y0275202D01*
X0026687Y0275073D01*
X0026776Y0274942D01*
X0026860Y0274808D01*
X0026942Y0274672D01*
X0027020Y0274535D01*
X0027094Y0274395D01*
X0027165Y0274253D01*
X0027233Y0274110D01*
X0027297Y0273965D01*
X0027357Y0273819D01*
X0027413Y0273671D01*
X0027466Y0273522D01*
X0027515Y0273371D01*
X0027560Y0273219D01*
X0027601Y0273066D01*
X0027639Y0272913D01*
X0027672Y0272758D01*
X0027702Y0272602D01*
X0027728Y0272446D01*
X0027749Y0272289D01*
X0027767Y0272132D01*
X0027781Y0271974D01*
X0027791Y0271816D01*
X0027797Y0271658D01*
X0027799Y0271500D01*
X0027797Y0271342D01*
X0027791Y0271184D01*
X0027781Y0271026D01*
X0027767Y0270868D01*
X0027749Y0270711D01*
X0027728Y0270554D01*
X0027702Y0270398D01*
X0027672Y0270242D01*
X0027639Y0270087D01*
X0027601Y0269934D01*
X0027560Y0269781D01*
X0027515Y0269629D01*
X0027466Y0269478D01*
X0027413Y0269329D01*
X0027357Y0269181D01*
X0027297Y0269035D01*
X0027233Y0268890D01*
X0027165Y0268747D01*
X0027094Y0268605D01*
X0027020Y0268465D01*
X0026942Y0268328D01*
X0026860Y0268192D01*
X0026776Y0268058D01*
X0026687Y0267927D01*
X0026596Y0267798D01*
X0026501Y0267671D01*
X0026404Y0267546D01*
X0026303Y0267424D01*
X0026199Y0267305D01*
X0026092Y0267188D01*
X0025982Y0267074D01*
X0025869Y0266963D01*
X0025754Y0266854D01*
X0025636Y0266749D01*
X0025515Y0266647D01*
X0025392Y0266547D01*
X0025266Y0266451D01*
X0025138Y0266358D01*
X0025008Y0266268D01*
X0024875Y0266182D01*
X0024740Y0266098D01*
X0024604Y0266019D01*
X0024465Y0265942D01*
X0024324Y0265870D01*
X0024182Y0265800D01*
X0024038Y0265735D01*
X0023892Y0265673D01*
X0023745Y0265615D01*
X0023596Y0265560D01*
X0023446Y0265509D01*
X0023295Y0265462D01*
X0023143Y0265419D01*
X0022990Y0265380D01*
X0022835Y0265344D01*
X0022680Y0265313D01*
X0022524Y0265285D01*
X0022368Y0265261D01*
X0022211Y0265241D01*
X0022053Y0265225D01*
X0021896Y0265213D01*
X0021737Y0265205D01*
X0021579Y0265201D01*
X0021421Y0265201D01*
X0021263Y0265205D01*
X0021104Y0265213D01*
X0020947Y0265225D01*
X0020789Y0265241D01*
X0020632Y0265261D01*
X0020476Y0265285D01*
X0020320Y0265313D01*
X0020165Y0265344D01*
X0020010Y0265380D01*
X0019857Y0265419D01*
X0019705Y0265462D01*
X0019554Y0265509D01*
X0019404Y0265560D01*
X0019255Y0265615D01*
X0019108Y0265673D01*
X0018962Y0265735D01*
X0018818Y0265800D01*
X0018676Y0265870D01*
X0018535Y0265942D01*
X0018396Y0266019D01*
X0018260Y0266098D01*
X0018125Y0266182D01*
X0017992Y0266268D01*
X0017862Y0266358D01*
X0017734Y0266451D01*
X0017608Y0266547D01*
X0017485Y0266647D01*
X0017364Y0266749D01*
X0017246Y0266854D01*
X0017131Y0266963D01*
X0017018Y0267074D01*
X0016908Y0267188D01*
X0016801Y0267305D01*
X0016697Y0267424D01*
X0016596Y0267546D01*
X0016499Y0267671D01*
X0016404Y0267798D01*
X0016313Y0267927D01*
X0016224Y0268058D01*
X0016140Y0268192D01*
X0016058Y0268328D01*
X0015980Y0268465D01*
X0015906Y0268605D01*
X0015835Y0268747D01*
X0015767Y0268890D01*
X0015703Y0269035D01*
X0015643Y0269181D01*
X0015587Y0269329D01*
X0015534Y0269478D01*
X0015485Y0269629D01*
X0015440Y0269781D01*
X0015399Y0269934D01*
X0015361Y0270087D01*
X0015328Y0270242D01*
X0015298Y0270398D01*
X0015272Y0270554D01*
X0015251Y0270711D01*
X0015233Y0270868D01*
X0015219Y0271026D01*
X0015209Y0271184D01*
X0015203Y0271342D01*
X0015201Y0271500D01*
D11*
X0018500Y0241500D02*
X0024500Y0241500D01*
X0024500Y0231500D02*
X0018500Y0231500D01*
X0018500Y0221500D02*
X0024500Y0221500D01*
X0024500Y0211500D02*
X0018500Y0211500D01*
X0018500Y0186500D02*
X0024500Y0186500D01*
X0024500Y0176500D02*
X0018500Y0176500D01*
X0018500Y0166500D02*
X0024500Y0166500D01*
X0024500Y0156500D02*
X0018500Y0156500D01*
X0018500Y0146500D02*
X0024500Y0146500D01*
X0024500Y0136500D02*
X0018500Y0136500D01*
X0018500Y0126500D02*
X0024500Y0126500D01*
X0024500Y0116500D02*
X0018500Y0116500D01*
X0018500Y0091500D02*
X0024500Y0091500D01*
X0024500Y0081500D02*
X0018500Y0081500D01*
X0018500Y0071500D02*
X0024500Y0071500D01*
X0024500Y0061500D02*
X0018500Y0061500D01*
X0018500Y0051500D02*
X0024500Y0051500D01*
X0051500Y0022000D02*
X0051500Y0016000D01*
X0061500Y0016000D02*
X0061500Y0022000D01*
X0071500Y0022000D02*
X0071500Y0016000D01*
X0081500Y0016000D02*
X0081500Y0022000D01*
X0091500Y0022000D02*
X0091500Y0016000D01*
X0111500Y0016000D02*
X0111500Y0022000D01*
X0121500Y0022000D02*
X0121500Y0016000D01*
X0131500Y0016000D02*
X0131500Y0022000D01*
X0366000Y0146500D02*
X0372000Y0146500D01*
X0372000Y0156500D02*
X0366000Y0156500D01*
X0366000Y0166500D02*
X0372000Y0166500D01*
X0372000Y0176500D02*
X0366000Y0176500D01*
X0366000Y0186500D02*
X0372000Y0186500D01*
X0372000Y0196500D02*
X0366000Y0196500D01*
X0366000Y0206500D02*
X0372000Y0206500D01*
X0372000Y0216500D02*
X0366000Y0216500D01*
X0366000Y0226500D02*
X0372000Y0226500D01*
X0372000Y0236500D02*
X0366000Y0236500D01*
D12*
X0191500Y0176500D03*
X0181500Y0176500D03*
X0181500Y0166500D03*
X0191500Y0166500D03*
X0191500Y0156500D03*
X0181500Y0156500D03*
X0181500Y0146500D03*
X0191500Y0146500D03*
X0191500Y0136500D03*
X0181500Y0136500D03*
X0206500Y0064000D03*
D13*
X0366031Y0061500D02*
X0371969Y0061500D01*
X0371969Y0051500D02*
X0366031Y0051500D01*
X0366031Y0074000D02*
X0371969Y0074000D01*
X0371969Y0084000D02*
X0366031Y0084000D01*
X0366031Y0111500D02*
X0371969Y0111500D01*
X0371969Y0121500D02*
X0366031Y0121500D01*
D14*
X0236500Y0096500D03*
D15*
X0236500Y0086500D03*
D16*
X0206500Y0095500D03*
X0188000Y0064000D03*
X0164000Y0019000D03*
X0154000Y0019000D03*
D17*
X0180000Y0064000D03*
X0206500Y0087500D03*
D18*
X0261500Y0076500D03*
X0261500Y0066500D03*
X0261500Y0056500D03*
X0261500Y0026500D03*
X0261500Y0016500D03*
X0335250Y0016500D03*
X0335250Y0026500D03*
X0335250Y0066500D03*
X0335250Y0076500D03*
D19*
X0218902Y0042627D02*
X0218902Y0037027D01*
X0194098Y0037027D02*
X0194098Y0042627D01*
X0194098Y0028847D02*
X0194098Y0023247D01*
X0194098Y0016249D02*
X0194098Y0010649D01*
X0218902Y0010649D02*
X0218902Y0016249D01*
D20*
X0156500Y0166500D03*
X0056500Y0166500D03*
D21*
X0046500Y0166500D03*
X0046500Y0176500D03*
X0046500Y0186500D03*
X0056500Y0186500D03*
X0056500Y0176500D03*
X0056500Y0196500D03*
X0056500Y0206500D03*
X0056500Y0216500D03*
X0046500Y0216500D03*
X0046500Y0206500D03*
X0046500Y0196500D03*
X0046500Y0226500D03*
X0046500Y0236500D03*
X0056500Y0236500D03*
X0056500Y0226500D03*
X0056500Y0246500D03*
X0056500Y0256500D03*
X0046500Y0256500D03*
X0046500Y0246500D03*
X0146500Y0246500D03*
X0156500Y0246500D03*
X0156500Y0256500D03*
X0146500Y0256500D03*
X0146500Y0236500D03*
X0156500Y0236500D03*
X0156500Y0226500D03*
X0146500Y0226500D03*
X0146500Y0216500D03*
X0156500Y0216500D03*
X0156500Y0206500D03*
X0146500Y0206500D03*
X0146500Y0196500D03*
X0156500Y0196500D03*
X0156500Y0186500D03*
X0146500Y0186500D03*
X0146500Y0176500D03*
X0156500Y0176500D03*
X0146500Y0166500D03*
D22*
X0148154Y0171520D02*
X0144709Y0171520D01*
X0134866Y0161677D01*
X0026106Y0161677D01*
X0021677Y0166106D01*
X0021500Y0166500D01*
X0026598Y0171520D02*
X0141264Y0171520D01*
X0146185Y0176441D01*
X0146500Y0176500D01*
X0148154Y0171520D02*
X0151598Y0174965D01*
X0151598Y0186283D01*
X0156028Y0186283D01*
X0156500Y0186500D01*
X0166362Y0191697D02*
X0061047Y0191697D01*
X0056618Y0196126D01*
X0056500Y0196500D01*
X0051697Y0201539D02*
X0046776Y0196618D01*
X0046500Y0196500D01*
X0048744Y0201539D02*
X0053665Y0206461D01*
X0056126Y0206461D01*
X0056500Y0206500D01*
X0051697Y0201539D02*
X0353862Y0201539D01*
X0368626Y0216303D01*
X0369000Y0216500D01*
X0368626Y0226146D02*
X0359276Y0216795D01*
X0156520Y0216795D01*
X0156500Y0216500D01*
X0146500Y0216500D02*
X0146185Y0216795D01*
X0063508Y0216795D01*
X0059079Y0221224D01*
X0021677Y0221224D01*
X0021500Y0221500D01*
X0021500Y0231500D02*
X0021677Y0231559D01*
X0125516Y0231559D01*
X0133390Y0223685D01*
X0140772Y0223685D01*
X0142740Y0221224D02*
X0141264Y0219748D01*
X0070398Y0219748D01*
X0059079Y0213843D02*
X0135850Y0213843D01*
X0129453Y0211382D02*
X0134374Y0206461D01*
X0139787Y0206461D01*
X0144709Y0211382D01*
X0185063Y0211382D01*
X0166362Y0191697D02*
X0181126Y0176933D01*
X0181500Y0176500D01*
X0186047Y0161185D02*
X0181618Y0156756D01*
X0181500Y0156500D01*
X0181126Y0156756D01*
X0021677Y0156756D01*
X0021500Y0156500D01*
X0021185Y0156756D01*
X0013803Y0164138D01*
X0013803Y0201539D01*
X0048744Y0201539D01*
X0046500Y0206500D02*
X0046776Y0206953D01*
X0051205Y0211382D01*
X0129453Y0211382D01*
X0142740Y0221224D02*
X0353370Y0221224D01*
X0368626Y0236480D01*
X0369000Y0236500D01*
X0369000Y0226500D02*
X0368626Y0226146D01*
X0376500Y0191205D02*
X0222465Y0191205D01*
X0192445Y0161185D01*
X0186047Y0161185D01*
X0191500Y0156500D02*
X0191953Y0156756D01*
X0214098Y0178902D01*
X0361244Y0178902D01*
X0368626Y0186283D01*
X0369000Y0186500D01*
X0376500Y0191205D02*
X0376500Y0173980D01*
X0369118Y0166598D01*
X0369000Y0166500D01*
X0368626Y0176441D02*
X0369000Y0176500D01*
X0368626Y0176441D02*
X0221480Y0176441D01*
X0191953Y0146913D01*
X0191500Y0146500D01*
X0187031Y0151835D02*
X0191461Y0156264D01*
X0191500Y0156500D01*
X0187031Y0151835D02*
X0051697Y0151835D01*
X0051697Y0152327D01*
X0051697Y0151835D02*
X0026598Y0151835D01*
X0021677Y0146913D01*
X0021500Y0146500D01*
X0021677Y0126736D02*
X0021500Y0126500D01*
X0021677Y0126736D02*
X0042839Y0126736D01*
X0043823Y0127720D01*
X0021677Y0111972D02*
X0016756Y0111972D01*
X0011343Y0117386D01*
X0011343Y0236972D01*
X0039886Y0236972D01*
X0044315Y0241402D01*
X0151598Y0241402D01*
X0156500Y0236500D01*
X0146500Y0226500D02*
X0146185Y0226638D01*
X0134866Y0226638D01*
X0156028Y0246815D02*
X0156500Y0246500D01*
X0156028Y0246815D02*
X0151598Y0251244D01*
X0008882Y0251244D01*
X0008882Y0116894D01*
X0010850Y0114925D01*
X0010850Y0079000D01*
X0016264Y0073587D01*
X0019217Y0073587D01*
X0021185Y0071618D01*
X0021500Y0071500D01*
X0021500Y0091500D02*
X0021677Y0091795D01*
X0021677Y0111972D01*
X0026598Y0171520D02*
X0021677Y0176441D01*
X0021500Y0176500D01*
X0059079Y0213843D02*
X0056618Y0216303D01*
X0056500Y0216500D01*
X0111736Y0116894D02*
X0099925Y0105083D01*
X0146677Y0109020D02*
X0183094Y0109020D01*
X0204256Y0087858D01*
X0206224Y0087858D01*
X0206500Y0087500D01*
X0162917Y0084413D02*
X0162730Y0084522D01*
X0162917Y0084413D02*
X0153075Y0094256D01*
X0153075Y0096224D01*
X0153075Y0070634D02*
X0160949Y0070634D01*
X0192445Y0039138D01*
X0194098Y0039827D01*
X0193921Y0040122D01*
X0193921Y0026343D02*
X0180634Y0026343D01*
X0136835Y0070142D01*
X0136795Y0057386D02*
X0157012Y0037169D01*
X0158980Y0037169D01*
X0193921Y0026343D02*
X0194098Y0026047D01*
X0194098Y0013449D02*
X0194413Y0013055D01*
X0201303Y0006165D01*
X0210654Y0006165D01*
X0217543Y0013055D01*
X0218528Y0013055D01*
X0218902Y0013449D01*
X0116657Y0032248D02*
X0115673Y0032248D01*
X0112228Y0028803D01*
X0100909Y0028803D01*
X0091559Y0019453D01*
X0091500Y0019000D01*
X0327780Y0016992D02*
X0334669Y0016992D01*
X0335161Y0016500D01*
X0335250Y0016500D01*
X0327780Y0016992D02*
X0327780Y0029295D01*
X0332209Y0033724D01*
X0338114Y0033724D01*
X0363705Y0059315D01*
X0366657Y0059315D01*
X0368626Y0061283D01*
X0369000Y0061500D01*
X0369000Y0051500D02*
X0368626Y0051441D01*
X0344020Y0026835D01*
X0335654Y0026835D01*
X0335250Y0026500D01*
X0335654Y0076047D02*
X0335250Y0076500D01*
X0335654Y0076047D02*
X0357799Y0076047D01*
X0363705Y0081953D01*
X0366657Y0081953D01*
X0368626Y0083921D01*
X0369000Y0084000D01*
D23*
X0185063Y0211382D03*
X0140772Y0223685D03*
X0134866Y0226638D03*
X0135850Y0213843D03*
X0070398Y0219748D03*
X0063508Y0179394D03*
X0051697Y0152327D03*
X0043823Y0127720D03*
X0096972Y0127720D03*
X0105831Y0116894D03*
X0111736Y0116894D03*
X0116165Y0120339D03*
X0116165Y0127720D03*
X0099925Y0105083D03*
X0146677Y0109020D03*
X0153075Y0096224D03*
X0162730Y0084522D03*
X0153075Y0070634D03*
X0136835Y0070142D03*
X0136795Y0057386D03*
X0158980Y0037169D03*
X0116657Y0032248D03*
X0105831Y0042091D03*
D24*
X0112228Y0035693D01*
X0118134Y0035693D01*
X0131421Y0022406D01*
X0131421Y0019453D01*
X0131500Y0019000D01*
X0108783Y0049965D02*
X0096972Y0038154D01*
X0086638Y0038154D01*
X0085654Y0037169D01*
X0071382Y0037169D01*
X0071382Y0019453D01*
X0071500Y0019000D01*
X0108783Y0049965D02*
X0108783Y0110496D01*
X0130437Y0110496D01*
X0130437Y0110988D01*
X0117642Y0123783D01*
X0095988Y0123783D01*
X0088606Y0131165D01*
X0026598Y0131165D01*
X0021677Y0136087D01*
X0021500Y0136500D01*
X0063508Y0179394D02*
X0056618Y0186283D01*
X0056500Y0186500D01*
X0096972Y0127720D02*
X0116165Y0127720D01*
X0116165Y0120339D02*
X0109276Y0120339D01*
X0105831Y0116894D01*
X0130437Y0110496D02*
X0143232Y0110496D01*
X0168823Y0136087D01*
X0181126Y0136087D01*
X0181500Y0136500D01*
X0182110Y0136579D01*
X0190969Y0136579D01*
X0191500Y0136500D01*
X0191953Y0136087D01*
X0228862Y0136087D01*
X0228862Y0093764D01*
X0235752Y0086874D01*
X0236500Y0086500D01*
X0236736Y0086382D01*
X0237720Y0086382D01*
X0237720Y0050457D01*
X0261343Y0026835D01*
X0261500Y0026500D01*
X0368626Y0121815D02*
X0369000Y0121500D01*
X0368626Y0121815D02*
X0354354Y0136087D01*
X0228862Y0136087D01*
D25*
X0226462Y0133687D02*
X0226462Y0106500D01*
X0188584Y0106500D01*
X0183964Y0111120D01*
X0148820Y0111120D01*
X0148377Y0111563D01*
X0147893Y0111763D01*
X0169817Y0133687D01*
X0177949Y0133687D01*
X0179636Y0132000D01*
X0183364Y0132000D01*
X0185543Y0134179D01*
X0187457Y0134179D01*
X0189636Y0132000D01*
X0193364Y0132000D01*
X0195051Y0133687D01*
X0226462Y0133687D01*
X0226462Y0133140D02*
X0194504Y0133140D01*
X0193505Y0132141D02*
X0226462Y0132141D01*
X0226462Y0131143D02*
X0167273Y0131143D01*
X0168272Y0132141D02*
X0179495Y0132141D01*
X0178496Y0133140D02*
X0169270Y0133140D01*
X0166275Y0130144D02*
X0226462Y0130144D01*
X0226462Y0129146D02*
X0165276Y0129146D01*
X0164277Y0128147D02*
X0226462Y0128147D01*
X0226462Y0127149D02*
X0163279Y0127149D01*
X0162280Y0126150D02*
X0226462Y0126150D01*
X0226462Y0125152D02*
X0161282Y0125152D01*
X0160283Y0124153D02*
X0226462Y0124153D01*
X0226462Y0123155D02*
X0159285Y0123155D01*
X0158286Y0122156D02*
X0226462Y0122156D01*
X0226462Y0121158D02*
X0157288Y0121158D01*
X0156289Y0120159D02*
X0226462Y0120159D01*
X0226462Y0119161D02*
X0155291Y0119161D01*
X0154292Y0118162D02*
X0226462Y0118162D01*
X0226462Y0117164D02*
X0153294Y0117164D01*
X0152295Y0116165D02*
X0226462Y0116165D01*
X0226462Y0115167D02*
X0151297Y0115167D01*
X0150298Y0114168D02*
X0226462Y0114168D01*
X0226462Y0113170D02*
X0149300Y0113170D01*
X0148301Y0112171D02*
X0226462Y0112171D01*
X0226462Y0111172D02*
X0148767Y0111172D01*
X0148820Y0106920D02*
X0182225Y0106920D01*
X0182644Y0106500D01*
X0148400Y0106500D01*
X0148820Y0106920D01*
X0148683Y0106500D02*
X0182361Y0106500D01*
X0201956Y0086906D01*
X0202200Y0086661D01*
X0202200Y0086645D01*
X0202855Y0085064D01*
X0204064Y0083855D01*
X0205645Y0083200D01*
X0207355Y0083200D01*
X0208936Y0083855D01*
X0210145Y0085064D01*
X0210800Y0086645D01*
X0210800Y0088355D01*
X0210145Y0089936D01*
X0208936Y0091145D01*
X0208434Y0091353D01*
X0210800Y0093719D01*
X0210800Y0097281D01*
X0208281Y0099800D01*
X0204719Y0099800D01*
X0202200Y0097281D01*
X0202200Y0093719D01*
X0204566Y0091353D01*
X0204175Y0091191D01*
X0188867Y0106500D01*
X0226262Y0106500D01*
X0226262Y0093247D01*
X0226658Y0092291D01*
X0227389Y0091560D01*
X0231650Y0087299D01*
X0231650Y0085535D01*
X0232388Y0083753D01*
X0233753Y0082388D01*
X0235120Y0081822D01*
X0235120Y0049940D01*
X0235516Y0048984D01*
X0236248Y0048253D01*
X0256650Y0027850D01*
X0256650Y0024491D01*
X0259491Y0021650D01*
X0263509Y0021650D01*
X0266350Y0024491D01*
X0266350Y0028509D01*
X0263509Y0031350D01*
X0260505Y0031350D01*
X0240320Y0051534D01*
X0240320Y0083462D01*
X0240612Y0083753D01*
X0241350Y0085535D01*
X0241350Y0087465D01*
X0240612Y0089247D01*
X0239247Y0090612D01*
X0237465Y0091350D01*
X0235535Y0091350D01*
X0235123Y0091179D01*
X0231462Y0094841D01*
X0231462Y0106500D01*
X0386950Y0106500D01*
X0386929Y0029890D01*
X0386390Y0031069D01*
X0386390Y0031069D01*
X0383091Y0034877D01*
X0378853Y0037600D01*
X0374019Y0039020D01*
X0368981Y0039020D01*
X0364147Y0037600D01*
X0359909Y0034877D01*
X0359909Y0034877D01*
X0359909Y0034877D01*
X0356610Y0031069D01*
X0354517Y0026487D01*
X0354517Y0026487D01*
X0353800Y0021500D01*
X0353800Y0021500D01*
X0354517Y0016513D01*
X0356610Y0011931D01*
X0356610Y0011931D01*
X0359909Y0008123D01*
X0363213Y0006000D01*
X0213741Y0006000D01*
X0215464Y0007723D01*
X0216353Y0006834D01*
X0218006Y0006149D01*
X0219797Y0006149D01*
X0221451Y0006834D01*
X0222716Y0008100D01*
X0223402Y0009754D01*
X0223402Y0017144D01*
X0222716Y0018798D01*
X0221451Y0020064D01*
X0219797Y0020749D01*
X0218006Y0020749D01*
X0216353Y0020064D01*
X0215087Y0018798D01*
X0214402Y0017144D01*
X0214402Y0013166D01*
X0209701Y0008465D01*
X0202256Y0008465D01*
X0198598Y0012123D01*
X0198598Y0017144D01*
X0197913Y0018798D01*
X0196963Y0019748D01*
X0197913Y0020698D01*
X0198598Y0022352D01*
X0198598Y0029742D01*
X0197913Y0031396D01*
X0196647Y0032662D01*
X0195984Y0032937D01*
X0196647Y0033212D01*
X0197913Y0034478D01*
X0198598Y0036132D01*
X0198598Y0043522D01*
X0197913Y0045176D01*
X0196647Y0046442D01*
X0194994Y0047127D01*
X0193203Y0047127D01*
X0191549Y0046442D01*
X0190284Y0045176D01*
X0190101Y0044735D01*
X0161902Y0072934D01*
X0155300Y0072934D01*
X0154887Y0073347D01*
X0153711Y0073834D01*
X0152438Y0073834D01*
X0151262Y0073347D01*
X0150362Y0072447D01*
X0149875Y0071270D01*
X0149875Y0069997D01*
X0150362Y0068821D01*
X0151262Y0067921D01*
X0152438Y0067434D01*
X0153711Y0067434D01*
X0154887Y0067921D01*
X0155300Y0068334D01*
X0159996Y0068334D01*
X0189598Y0038732D01*
X0189598Y0036132D01*
X0190284Y0034478D01*
X0191549Y0033212D01*
X0192213Y0032937D01*
X0191549Y0032662D01*
X0190284Y0031396D01*
X0189598Y0029742D01*
X0189598Y0028643D01*
X0181587Y0028643D01*
X0140035Y0070194D01*
X0140035Y0070778D01*
X0139547Y0071954D01*
X0138647Y0072855D01*
X0137471Y0073342D01*
X0136198Y0073342D01*
X0135022Y0072855D01*
X0134122Y0071954D01*
X0133635Y0070778D01*
X0133635Y0069505D01*
X0134122Y0068329D01*
X0135022Y0067429D01*
X0136198Y0066942D01*
X0136782Y0066942D01*
X0178334Y0025390D01*
X0179681Y0024043D01*
X0189598Y0024043D01*
X0189598Y0022352D01*
X0190284Y0020698D01*
X0191234Y0019748D01*
X0190284Y0018798D01*
X0189598Y0017144D01*
X0189598Y0009754D01*
X0190284Y0008100D01*
X0191549Y0006834D01*
X0193203Y0006149D01*
X0194994Y0006149D01*
X0196647Y0006834D01*
X0197015Y0007201D01*
X0198216Y0006000D01*
X0029787Y0006000D01*
X0033091Y0008123D01*
X0033091Y0008123D01*
X0033091Y0008123D01*
X0036390Y0011931D01*
X0038483Y0016513D01*
X0038483Y0016513D01*
X0039200Y0021500D01*
X0038483Y0026487D01*
X0036390Y0031069D01*
X0033091Y0034877D01*
X0030565Y0036500D01*
X0068782Y0036500D01*
X0068782Y0025929D01*
X0067516Y0024662D01*
X0066800Y0022935D01*
X0066800Y0015065D01*
X0067516Y0013338D01*
X0068838Y0012016D01*
X0070565Y0011300D01*
X0072435Y0011300D01*
X0074162Y0012016D01*
X0075484Y0013338D01*
X0076200Y0015065D01*
X0076200Y0022935D01*
X0075484Y0024662D01*
X0074162Y0025984D01*
X0073982Y0026059D01*
X0073982Y0034569D01*
X0086171Y0034569D01*
X0087126Y0034965D01*
X0087715Y0035554D01*
X0097490Y0035554D01*
X0098445Y0035949D01*
X0098996Y0036500D01*
X0107744Y0036500D01*
X0110024Y0034220D01*
X0110756Y0033489D01*
X0111711Y0033093D01*
X0113265Y0033093D01*
X0111276Y0031103D01*
X0099957Y0031103D01*
X0098609Y0029756D01*
X0098609Y0029756D01*
X0094500Y0025647D01*
X0094162Y0025984D01*
X0092435Y0026700D01*
X0090565Y0026700D01*
X0088838Y0025984D01*
X0087516Y0024662D01*
X0086800Y0022935D01*
X0086800Y0015065D01*
X0087516Y0013338D01*
X0088838Y0012016D01*
X0090565Y0011300D01*
X0092435Y0011300D01*
X0094162Y0012016D01*
X0095484Y0013338D01*
X0096200Y0015065D01*
X0096200Y0020841D01*
X0101862Y0026503D01*
X0110090Y0026503D01*
X0108838Y0025984D01*
X0107516Y0024662D01*
X0106800Y0022935D01*
X0106800Y0015065D01*
X0107516Y0013338D01*
X0108838Y0012016D01*
X0110565Y0011300D01*
X0112435Y0011300D01*
X0114162Y0012016D01*
X0115484Y0013338D01*
X0116200Y0015065D01*
X0116200Y0022935D01*
X0115484Y0024662D01*
X0114162Y0025984D01*
X0112910Y0026503D01*
X0113181Y0026503D01*
X0115812Y0029134D01*
X0116021Y0029048D01*
X0117294Y0029048D01*
X0118470Y0029535D01*
X0119370Y0030435D01*
X0119471Y0030679D01*
X0126922Y0023228D01*
X0126800Y0022935D01*
X0126800Y0015065D01*
X0127516Y0013338D01*
X0128838Y0012016D01*
X0130565Y0011300D01*
X0132435Y0011300D01*
X0134162Y0012016D01*
X0135484Y0013338D01*
X0136200Y0015065D01*
X0136200Y0022935D01*
X0135484Y0024662D01*
X0134162Y0025984D01*
X0132435Y0026700D01*
X0130804Y0026700D01*
X0119607Y0037897D01*
X0118651Y0038293D01*
X0113305Y0038293D01*
X0111500Y0040098D01*
X0111500Y0106500D01*
X0144671Y0106500D01*
X0144865Y0106307D01*
X0146041Y0105820D01*
X0147314Y0105820D01*
X0148490Y0106307D01*
X0148683Y0106500D01*
X0148183Y0106180D02*
X0182682Y0106180D01*
X0183680Y0105181D02*
X0111500Y0105181D01*
X0111500Y0104183D02*
X0184679Y0104183D01*
X0185677Y0103184D02*
X0111500Y0103184D01*
X0111500Y0102186D02*
X0186676Y0102186D01*
X0187674Y0101187D02*
X0111500Y0101187D01*
X0111500Y0100189D02*
X0188673Y0100189D01*
X0189671Y0099190D02*
X0154276Y0099190D01*
X0153711Y0099424D02*
X0152438Y0099424D01*
X0151262Y0098937D01*
X0150362Y0098037D01*
X0149875Y0096861D01*
X0149875Y0095588D01*
X0150362Y0094412D01*
X0150775Y0093999D01*
X0150775Y0093303D01*
X0152122Y0091956D01*
X0159530Y0084548D01*
X0159530Y0083885D01*
X0160017Y0082709D01*
X0160918Y0081809D01*
X0162094Y0081322D01*
X0163367Y0081322D01*
X0164543Y0081809D01*
X0165443Y0082709D01*
X0165930Y0083885D01*
X0165930Y0085158D01*
X0165443Y0086334D01*
X0164543Y0087234D01*
X0163367Y0087722D01*
X0162862Y0087722D01*
X0155900Y0094683D01*
X0156275Y0095588D01*
X0156275Y0096861D01*
X0155788Y0098037D01*
X0154887Y0098937D01*
X0153711Y0099424D01*
X0151873Y0099190D02*
X0111500Y0099190D01*
X0111500Y0098192D02*
X0150517Y0098192D01*
X0150013Y0097193D02*
X0111500Y0097193D01*
X0111500Y0096195D02*
X0149875Y0096195D01*
X0150037Y0095196D02*
X0111500Y0095196D01*
X0111500Y0094198D02*
X0150576Y0094198D01*
X0150879Y0093199D02*
X0111500Y0093199D01*
X0111500Y0092201D02*
X0151877Y0092201D01*
X0152876Y0091202D02*
X0111500Y0091202D01*
X0111500Y0090204D02*
X0153874Y0090204D01*
X0154873Y0089205D02*
X0111500Y0089205D01*
X0111500Y0088207D02*
X0155871Y0088207D01*
X0156870Y0087208D02*
X0111500Y0087208D01*
X0111500Y0086210D02*
X0157868Y0086210D01*
X0158867Y0085211D02*
X0111500Y0085211D01*
X0111500Y0084213D02*
X0159530Y0084213D01*
X0159808Y0083214D02*
X0111500Y0083214D01*
X0111500Y0082216D02*
X0160511Y0082216D01*
X0164950Y0082216D02*
X0234170Y0082216D01*
X0235120Y0081217D02*
X0111500Y0081217D01*
X0111500Y0080219D02*
X0235120Y0080219D01*
X0235120Y0079220D02*
X0111500Y0079220D01*
X0111500Y0078222D02*
X0235120Y0078222D01*
X0235120Y0077223D02*
X0111500Y0077223D01*
X0111500Y0076225D02*
X0235120Y0076225D01*
X0235120Y0075226D02*
X0111500Y0075226D01*
X0111500Y0074228D02*
X0235120Y0074228D01*
X0235120Y0073229D02*
X0155005Y0073229D01*
X0151145Y0073229D02*
X0137743Y0073229D01*
X0135926Y0073229D02*
X0111500Y0073229D01*
X0111500Y0072231D02*
X0134398Y0072231D01*
X0133823Y0071232D02*
X0111500Y0071232D01*
X0111500Y0070234D02*
X0133635Y0070234D01*
X0133747Y0069235D02*
X0111500Y0069235D01*
X0111500Y0068237D02*
X0134214Y0068237D01*
X0135483Y0067238D02*
X0111500Y0067238D01*
X0111500Y0066239D02*
X0137484Y0066239D01*
X0138483Y0065241D02*
X0111500Y0065241D01*
X0111500Y0064242D02*
X0139481Y0064242D01*
X0140480Y0063244D02*
X0111500Y0063244D01*
X0111500Y0062245D02*
X0141478Y0062245D01*
X0142477Y0061247D02*
X0111500Y0061247D01*
X0111500Y0060248D02*
X0135344Y0060248D01*
X0134983Y0060099D02*
X0134082Y0059198D01*
X0133595Y0058022D01*
X0133595Y0056749D01*
X0134082Y0055573D01*
X0134983Y0054673D01*
X0136159Y0054186D01*
X0136743Y0054186D01*
X0154712Y0036217D01*
X0156059Y0034869D01*
X0156755Y0034869D01*
X0157168Y0034456D01*
X0158344Y0033969D01*
X0159617Y0033969D01*
X0160793Y0034456D01*
X0161693Y0035357D01*
X0162180Y0036533D01*
X0162180Y0037806D01*
X0161693Y0038982D01*
X0160793Y0039882D01*
X0159617Y0040369D01*
X0158344Y0040369D01*
X0157439Y0039995D01*
X0139995Y0057438D01*
X0139995Y0058022D01*
X0139508Y0059198D01*
X0138608Y0060099D01*
X0137432Y0060586D01*
X0136159Y0060586D01*
X0134983Y0060099D01*
X0134134Y0059250D02*
X0111500Y0059250D01*
X0111500Y0058251D02*
X0133690Y0058251D01*
X0133595Y0057253D02*
X0111500Y0057253D01*
X0111500Y0056254D02*
X0133800Y0056254D01*
X0134400Y0055256D02*
X0111500Y0055256D01*
X0111500Y0054257D02*
X0135986Y0054257D01*
X0137670Y0053259D02*
X0111500Y0053259D01*
X0111500Y0052260D02*
X0138668Y0052260D01*
X0139667Y0051262D02*
X0111500Y0051262D01*
X0111500Y0050263D02*
X0140665Y0050263D01*
X0141664Y0049265D02*
X0111500Y0049265D01*
X0111500Y0048266D02*
X0142662Y0048266D01*
X0143661Y0047268D02*
X0111500Y0047268D01*
X0111500Y0046269D02*
X0144659Y0046269D01*
X0145658Y0045271D02*
X0111500Y0045271D01*
X0111500Y0044272D02*
X0146656Y0044272D01*
X0147655Y0043274D02*
X0111500Y0043274D01*
X0111500Y0042275D02*
X0148653Y0042275D01*
X0149652Y0041277D02*
X0111500Y0041277D01*
X0111500Y0040278D02*
X0150650Y0040278D01*
X0151649Y0039280D02*
X0112319Y0039280D01*
X0108959Y0035286D02*
X0087447Y0035286D01*
X0084162Y0025984D02*
X0082435Y0026700D01*
X0080565Y0026700D01*
X0078838Y0025984D01*
X0077516Y0024662D01*
X0076800Y0022935D01*
X0076800Y0015065D01*
X0077516Y0013338D01*
X0078838Y0012016D01*
X0080565Y0011300D01*
X0082435Y0011300D01*
X0084162Y0012016D01*
X0085484Y0013338D01*
X0086200Y0015065D01*
X0086200Y0022935D01*
X0085484Y0024662D01*
X0084162Y0025984D01*
X0083403Y0026299D02*
X0089597Y0026299D01*
X0088154Y0025301D02*
X0084846Y0025301D01*
X0085634Y0024302D02*
X0087366Y0024302D01*
X0086953Y0023303D02*
X0086047Y0023303D01*
X0086200Y0022305D02*
X0086800Y0022305D01*
X0086800Y0021306D02*
X0086200Y0021306D01*
X0086200Y0020308D02*
X0086800Y0020308D01*
X0086800Y0019309D02*
X0086200Y0019309D01*
X0086200Y0018311D02*
X0086800Y0018311D01*
X0086800Y0017312D02*
X0086200Y0017312D01*
X0086200Y0016314D02*
X0086800Y0016314D01*
X0086800Y0015315D02*
X0086200Y0015315D01*
X0085890Y0014317D02*
X0087110Y0014317D01*
X0087535Y0013318D02*
X0085465Y0013318D01*
X0084467Y0012320D02*
X0088533Y0012320D01*
X0090514Y0011321D02*
X0082486Y0011321D01*
X0080514Y0011321D02*
X0072486Y0011321D01*
X0070514Y0011321D02*
X0062486Y0011321D01*
X0062435Y0011300D02*
X0064162Y0012016D01*
X0065484Y0013338D01*
X0066200Y0015065D01*
X0066200Y0022935D01*
X0065484Y0024662D01*
X0064162Y0025984D01*
X0062435Y0026700D01*
X0060565Y0026700D01*
X0058838Y0025984D01*
X0057516Y0024662D01*
X0056800Y0022935D01*
X0056800Y0015065D01*
X0057516Y0013338D01*
X0058838Y0012016D01*
X0060565Y0011300D01*
X0062435Y0011300D01*
X0060514Y0011321D02*
X0035862Y0011321D01*
X0036390Y0011931D02*
X0036390Y0011931D01*
X0036568Y0012320D02*
X0048909Y0012320D01*
X0049141Y0012151D02*
X0049773Y0011830D01*
X0050446Y0011611D01*
X0051000Y0011523D01*
X0051000Y0018500D01*
X0052000Y0018500D01*
X0052000Y0019500D01*
X0056000Y0019500D01*
X0056000Y0022354D01*
X0055889Y0023054D01*
X0055670Y0023727D01*
X0055349Y0024359D01*
X0054932Y0024932D01*
X0054432Y0025432D01*
X0053859Y0025849D01*
X0053227Y0026170D01*
X0052554Y0026389D01*
X0052000Y0026477D01*
X0052000Y0019500D01*
X0051000Y0019500D01*
X0051000Y0026477D01*
X0050446Y0026389D01*
X0049773Y0026170D01*
X0049141Y0025849D01*
X0048568Y0025432D01*
X0048068Y0024932D01*
X0047651Y0024359D01*
X0047330Y0023727D01*
X0047111Y0023054D01*
X0047000Y0022354D01*
X0047000Y0019500D01*
X0051000Y0019500D01*
X0051000Y0018500D01*
X0047000Y0018500D01*
X0047000Y0015646D01*
X0047111Y0014946D01*
X0047330Y0014273D01*
X0047651Y0013641D01*
X0048068Y0013068D01*
X0048568Y0012568D01*
X0049141Y0012151D01*
X0047886Y0013318D02*
X0037024Y0013318D01*
X0037480Y0014317D02*
X0047315Y0014317D01*
X0047052Y0015315D02*
X0037936Y0015315D01*
X0038392Y0016314D02*
X0047000Y0016314D01*
X0047000Y0017312D02*
X0038598Y0017312D01*
X0038741Y0018311D02*
X0047000Y0018311D01*
X0047000Y0020308D02*
X0039029Y0020308D01*
X0039172Y0021306D02*
X0047000Y0021306D01*
X0047000Y0022305D02*
X0039084Y0022305D01*
X0038941Y0023303D02*
X0047192Y0023303D01*
X0047622Y0024302D02*
X0038797Y0024302D01*
X0038654Y0025301D02*
X0048437Y0025301D01*
X0050169Y0026299D02*
X0038510Y0026299D01*
X0038113Y0027298D02*
X0068782Y0027298D01*
X0068782Y0028296D02*
X0037657Y0028296D01*
X0037201Y0029295D02*
X0068782Y0029295D01*
X0068782Y0030293D02*
X0036745Y0030293D01*
X0036390Y0031069D02*
X0036390Y0031069D01*
X0036198Y0031292D02*
X0068782Y0031292D01*
X0068782Y0032290D02*
X0035332Y0032290D01*
X0051500Y0032290D01*
X0051500Y0031500D02*
X0036017Y0031500D01*
X0033091Y0034877D01*
X0033091Y0034877D01*
X0028853Y0037600D01*
X0024019Y0039020D01*
X0018981Y0039020D01*
X0014147Y0037600D01*
X0009909Y0034877D01*
X0009909Y0034877D01*
X0009909Y0034877D01*
X0006983Y0031500D01*
X0006000Y0031500D01*
X0006000Y0106500D01*
X0008550Y0106500D01*
X0008550Y0078047D01*
X0013906Y0072691D01*
X0013800Y0072435D01*
X0013800Y0070565D01*
X0014516Y0068838D01*
X0015838Y0067516D01*
X0017565Y0066800D01*
X0025435Y0066800D01*
X0027162Y0067516D01*
X0028484Y0068838D01*
X0029200Y0070565D01*
X0029200Y0072435D01*
X0028484Y0074162D01*
X0027162Y0075484D01*
X0025435Y0076200D01*
X0017565Y0076200D01*
X0017097Y0076006D01*
X0013150Y0079953D01*
X0013150Y0106500D01*
X0019377Y0106500D01*
X0019377Y0096200D01*
X0017565Y0096200D01*
X0015838Y0095484D01*
X0014516Y0094162D01*
X0013800Y0092435D01*
X0013800Y0090565D01*
X0014516Y0088838D01*
X0015838Y0087516D01*
X0017565Y0086800D01*
X0025435Y0086800D01*
X0027162Y0087516D01*
X0028484Y0088838D01*
X0029200Y0090565D01*
X0029200Y0092435D01*
X0028484Y0094162D01*
X0027162Y0095484D01*
X0025435Y0096200D01*
X0023977Y0096200D01*
X0023977Y0106500D01*
X0051500Y0106500D01*
X0051500Y0106200D01*
X0050589Y0106200D01*
X0049300Y0104911D01*
X0049300Y0039841D01*
X0049253Y0039788D01*
X0049300Y0038939D01*
X0049300Y0038089D01*
X0049350Y0038039D01*
X0049354Y0037968D01*
X0049987Y0037401D01*
X0050589Y0036800D01*
X0050659Y0036800D01*
X0050712Y0036753D01*
X0051500Y0036797D01*
X0051500Y0031500D01*
X0051500Y0033289D02*
X0034467Y0033289D01*
X0068782Y0033289D01*
X0068782Y0034287D02*
X0033602Y0034287D01*
X0051500Y0034287D01*
X0051500Y0035286D02*
X0032455Y0035286D01*
X0068782Y0035286D01*
X0068782Y0036284D02*
X0030901Y0036284D01*
X0051500Y0036284D01*
X0050106Y0037283D02*
X0029347Y0037283D01*
X0028853Y0037600D02*
X0028853Y0037600D01*
X0026535Y0038281D02*
X0049300Y0038281D01*
X0049281Y0039280D02*
X0006000Y0039280D01*
X0006000Y0040278D02*
X0049300Y0040278D01*
X0049300Y0041277D02*
X0006000Y0041277D01*
X0006000Y0042275D02*
X0049300Y0042275D01*
X0049300Y0043274D02*
X0006000Y0043274D01*
X0006000Y0044272D02*
X0049300Y0044272D01*
X0049300Y0045271D02*
X0006000Y0045271D01*
X0006000Y0046269D02*
X0049300Y0046269D01*
X0049300Y0047268D02*
X0026037Y0047268D01*
X0026227Y0047330D02*
X0026859Y0047651D01*
X0027432Y0048068D01*
X0027932Y0048568D01*
X0028349Y0049141D01*
X0028670Y0049773D01*
X0028889Y0050446D01*
X0028977Y0051000D01*
X0022000Y0051000D01*
X0022000Y0052000D01*
X0021000Y0052000D01*
X0021000Y0056000D01*
X0018146Y0056000D01*
X0017446Y0055889D01*
X0016773Y0055670D01*
X0016141Y0055349D01*
X0015568Y0054932D01*
X0015068Y0054432D01*
X0014651Y0053859D01*
X0014330Y0053227D01*
X0014111Y0052554D01*
X0014023Y0052000D01*
X0021000Y0052000D01*
X0021000Y0051000D01*
X0022000Y0051000D01*
X0022000Y0047000D01*
X0024854Y0047000D01*
X0025554Y0047111D01*
X0026227Y0047330D01*
X0027630Y0048266D02*
X0049300Y0048266D01*
X0049300Y0049265D02*
X0028412Y0049265D01*
X0028830Y0050263D02*
X0049300Y0050263D01*
X0049300Y0051262D02*
X0022000Y0051262D01*
X0022000Y0052000D02*
X0028977Y0052000D01*
X0028889Y0052554D01*
X0028670Y0053227D01*
X0028349Y0053859D01*
X0027932Y0054432D01*
X0027432Y0054932D01*
X0026859Y0055349D01*
X0026227Y0055670D01*
X0025554Y0055889D01*
X0024854Y0056000D01*
X0022000Y0056000D01*
X0022000Y0052000D01*
X0022000Y0052260D02*
X0021000Y0052260D01*
X0021000Y0051262D02*
X0006000Y0051262D01*
X0006000Y0052260D02*
X0014064Y0052260D01*
X0014346Y0053259D02*
X0006000Y0053259D01*
X0006000Y0054257D02*
X0014941Y0054257D01*
X0016014Y0055256D02*
X0006000Y0055256D01*
X0006000Y0056254D02*
X0049300Y0056254D01*
X0049300Y0055256D02*
X0026986Y0055256D01*
X0028059Y0054257D02*
X0049300Y0054257D01*
X0049300Y0053259D02*
X0028654Y0053259D01*
X0028936Y0052260D02*
X0049300Y0052260D01*
X0049300Y0057253D02*
X0026528Y0057253D01*
X0027162Y0057516D02*
X0028484Y0058838D01*
X0029200Y0060565D01*
X0029200Y0062435D01*
X0028484Y0064162D01*
X0027162Y0065484D01*
X0025435Y0066200D01*
X0017565Y0066200D01*
X0015838Y0065484D01*
X0014516Y0064162D01*
X0013800Y0062435D01*
X0013800Y0060565D01*
X0014516Y0058838D01*
X0015838Y0057516D01*
X0017565Y0056800D01*
X0025435Y0056800D01*
X0027162Y0057516D01*
X0027898Y0058251D02*
X0049300Y0058251D01*
X0049300Y0059250D02*
X0028655Y0059250D01*
X0029069Y0060248D02*
X0049300Y0060248D01*
X0049300Y0061247D02*
X0029200Y0061247D01*
X0029200Y0062245D02*
X0049300Y0062245D01*
X0049300Y0063244D02*
X0028865Y0063244D01*
X0028404Y0064242D02*
X0049300Y0064242D01*
X0049300Y0065241D02*
X0027406Y0065241D01*
X0026492Y0067238D02*
X0049300Y0067238D01*
X0049300Y0068237D02*
X0027883Y0068237D01*
X0028649Y0069235D02*
X0049300Y0069235D01*
X0049300Y0070234D02*
X0029063Y0070234D01*
X0029200Y0071232D02*
X0049300Y0071232D01*
X0049300Y0072231D02*
X0029200Y0072231D01*
X0028871Y0073229D02*
X0049300Y0073229D01*
X0049300Y0074228D02*
X0028419Y0074228D01*
X0027421Y0075226D02*
X0049300Y0075226D01*
X0049300Y0076225D02*
X0016878Y0076225D01*
X0017565Y0076800D02*
X0015838Y0077516D01*
X0014516Y0078838D01*
X0013800Y0080565D01*
X0013800Y0082435D01*
X0014516Y0084162D01*
X0015838Y0085484D01*
X0017565Y0086200D01*
X0025435Y0086200D01*
X0027162Y0085484D01*
X0028484Y0084162D01*
X0029200Y0082435D01*
X0029200Y0080565D01*
X0028484Y0078838D01*
X0027162Y0077516D01*
X0025435Y0076800D01*
X0017565Y0076800D01*
X0016544Y0077223D02*
X0015880Y0077223D01*
X0015132Y0078222D02*
X0014881Y0078222D01*
X0014357Y0079220D02*
X0013883Y0079220D01*
X0013944Y0080219D02*
X0013150Y0080219D01*
X0013150Y0081217D02*
X0013800Y0081217D01*
X0013800Y0082216D02*
X0013150Y0082216D01*
X0013150Y0083214D02*
X0014123Y0083214D01*
X0014566Y0084213D02*
X0013150Y0084213D01*
X0013150Y0085211D02*
X0015564Y0085211D01*
X0016580Y0087208D02*
X0013150Y0087208D01*
X0013150Y0086210D02*
X0049300Y0086210D01*
X0049300Y0087208D02*
X0026420Y0087208D01*
X0027854Y0088207D02*
X0049300Y0088207D01*
X0049300Y0089205D02*
X0028637Y0089205D01*
X0029050Y0090204D02*
X0049300Y0090204D01*
X0049300Y0091202D02*
X0029200Y0091202D01*
X0029200Y0092201D02*
X0049300Y0092201D01*
X0049300Y0093199D02*
X0028883Y0093199D01*
X0028449Y0094198D02*
X0049300Y0094198D01*
X0049300Y0095196D02*
X0027450Y0095196D01*
X0025447Y0096195D02*
X0049300Y0096195D01*
X0049300Y0097193D02*
X0023977Y0097193D01*
X0023977Y0098192D02*
X0049300Y0098192D01*
X0049300Y0099190D02*
X0023977Y0099190D01*
X0023977Y0100189D02*
X0049300Y0100189D01*
X0049300Y0101187D02*
X0023977Y0101187D01*
X0023977Y0102186D02*
X0049300Y0102186D01*
X0049300Y0103184D02*
X0023977Y0103184D01*
X0023977Y0104183D02*
X0049300Y0104183D01*
X0049570Y0105181D02*
X0023977Y0105181D01*
X0023977Y0106180D02*
X0050569Y0106180D01*
X0028670Y0114773D02*
X0028349Y0114141D01*
X0027932Y0113568D01*
X0027432Y0113068D01*
X0026859Y0112651D01*
X0026227Y0112330D01*
X0025554Y0112111D01*
X0024854Y0112000D01*
X0023777Y0112000D01*
X0023777Y0106500D01*
X0097265Y0106500D01*
X0097382Y0106782D01*
X0098226Y0107626D01*
X0099328Y0108083D01*
X0099955Y0108083D01*
X0105766Y0113894D01*
X0105234Y0113894D01*
X0104131Y0114350D01*
X0103287Y0115194D01*
X0102831Y0116297D01*
X0102831Y0117490D01*
X0103287Y0118593D01*
X0104131Y0119437D01*
X0105234Y0119894D01*
X0105437Y0119894D01*
X0106926Y0121383D01*
X0095511Y0121383D01*
X0094629Y0121749D01*
X0093954Y0122424D01*
X0087612Y0128765D01*
X0046637Y0128765D01*
X0046823Y0128317D01*
X0046823Y0127124D01*
X0046366Y0126021D01*
X0045522Y0125177D01*
X0044420Y0124720D01*
X0043793Y0124720D01*
X0043708Y0124636D01*
X0028599Y0124636D01*
X0028315Y0123951D01*
X0027049Y0122685D01*
X0025395Y0122000D01*
X0017605Y0122000D01*
X0015951Y0122685D01*
X0014685Y0123951D01*
X0014000Y0125605D01*
X0014000Y0127395D01*
X0014685Y0129049D01*
X0015951Y0130315D01*
X0017605Y0131000D01*
X0023370Y0131000D01*
X0022370Y0132000D01*
X0017605Y0132000D01*
X0015951Y0132685D01*
X0014685Y0133951D01*
X0014000Y0135605D01*
X0014000Y0137395D01*
X0014685Y0139049D01*
X0015951Y0140315D01*
X0017605Y0141000D01*
X0025395Y0141000D01*
X0027049Y0140315D01*
X0028315Y0139049D01*
X0029000Y0137395D01*
X0029000Y0135605D01*
X0028315Y0133951D01*
X0027929Y0133565D01*
X0089084Y0133565D01*
X0089966Y0133200D01*
X0094229Y0128937D01*
X0094429Y0129420D01*
X0095273Y0130264D01*
X0096376Y0130720D01*
X0097569Y0130720D01*
X0098672Y0130264D01*
X0098815Y0130120D01*
X0114323Y0130120D01*
X0114466Y0130264D01*
X0115569Y0130720D01*
X0116762Y0130720D01*
X0117865Y0130264D01*
X0118709Y0129420D01*
X0119165Y0128317D01*
X0119165Y0127124D01*
X0118709Y0126021D01*
X0118651Y0125963D01*
X0119001Y0125818D01*
X0131796Y0113023D01*
X0131923Y0112896D01*
X0142238Y0112896D01*
X0166788Y0137446D01*
X0167463Y0138121D01*
X0168345Y0138487D01*
X0177123Y0138487D01*
X0179636Y0141000D01*
X0183364Y0141000D01*
X0185385Y0138979D01*
X0187615Y0138979D01*
X0189636Y0141000D01*
X0193364Y0141000D01*
X0195877Y0138487D01*
X0354832Y0138487D01*
X0355714Y0138121D01*
X0356389Y0137446D01*
X0367867Y0125968D01*
X0372857Y0125968D01*
X0374500Y0125288D01*
X0375757Y0124031D01*
X0376437Y0122389D01*
X0376437Y0120611D01*
X0375757Y0118969D01*
X0374500Y0117712D01*
X0372857Y0117031D01*
X0365143Y0117031D01*
X0363500Y0117712D01*
X0362243Y0118969D01*
X0361563Y0120611D01*
X0361563Y0122389D01*
X0362243Y0124031D01*
X0362629Y0124417D01*
X0353360Y0133687D01*
X0231262Y0133687D01*
X0231262Y0106500D01*
X0386950Y0106500D01*
X0386992Y0263726D01*
X0386222Y0262039D01*
X0386222Y0262039D01*
X0382960Y0258274D01*
X0382960Y0258274D01*
X0382960Y0258274D01*
X0378770Y0255581D01*
X0378770Y0255581D01*
X0373991Y0254178D01*
X0369009Y0254178D01*
X0364230Y0255581D01*
X0364230Y0255581D01*
X0360040Y0258274D01*
X0360040Y0258274D01*
X0356778Y0262039D01*
X0354709Y0266570D01*
X0354000Y0271500D01*
X0354709Y0276430D01*
X0356778Y0280961D01*
X0356778Y0280961D01*
X0360040Y0284726D01*
X0360040Y0284726D01*
X0360040Y0284726D01*
X0363579Y0287000D01*
X0158500Y0287000D01*
X0158500Y0263172D01*
X0157328Y0262000D01*
X0045672Y0262000D01*
X0044500Y0263172D01*
X0044500Y0287000D01*
X0029421Y0287000D01*
X0032960Y0284726D01*
X0032960Y0284726D01*
X0036222Y0280961D01*
X0036222Y0280961D01*
X0038291Y0276430D01*
X0038291Y0276430D01*
X0039000Y0271500D01*
X0038291Y0266570D01*
X0038291Y0266570D01*
X0036222Y0262039D01*
X0036222Y0262039D01*
X0032960Y0258274D01*
X0032960Y0258274D01*
X0032960Y0258274D01*
X0028770Y0255581D01*
X0028770Y0255581D01*
X0023991Y0254178D01*
X0019009Y0254178D01*
X0019009Y0254178D01*
X0014230Y0255581D01*
X0010040Y0258274D01*
X0006778Y0262039D01*
X0006778Y0262039D01*
X0006000Y0263743D01*
X0006000Y0106500D01*
X0008750Y0106500D01*
X0008750Y0114055D01*
X0008012Y0114794D01*
X0008012Y0114794D01*
X0006782Y0116024D01*
X0006782Y0252114D01*
X0008012Y0253344D01*
X0042899Y0253344D01*
X0042856Y0253388D01*
X0042414Y0253996D01*
X0042072Y0254666D01*
X0041840Y0255381D01*
X0041742Y0256000D01*
X0046000Y0256000D01*
X0046000Y0257000D01*
X0046000Y0261258D01*
X0045381Y0261160D01*
X0044666Y0260928D01*
X0043996Y0260586D01*
X0043388Y0260144D01*
X0042856Y0259612D01*
X0042414Y0259004D01*
X0042072Y0258334D01*
X0041840Y0257619D01*
X0041742Y0257000D01*
X0046000Y0257000D01*
X0047000Y0257000D01*
X0047000Y0261258D01*
X0047619Y0261160D01*
X0048334Y0260928D01*
X0049004Y0260586D01*
X0049612Y0260144D01*
X0050144Y0259612D01*
X0050586Y0259004D01*
X0050928Y0258334D01*
X0051160Y0257619D01*
X0051258Y0257000D01*
X0047000Y0257000D01*
X0047000Y0256000D01*
X0051258Y0256000D01*
X0051160Y0255381D01*
X0050928Y0254666D01*
X0050586Y0253996D01*
X0050144Y0253388D01*
X0050101Y0253344D01*
X0052899Y0253344D01*
X0052450Y0253794D01*
X0051722Y0255550D01*
X0051722Y0257450D01*
X0052450Y0259206D01*
X0053794Y0260550D01*
X0055550Y0261278D01*
X0057450Y0261278D01*
X0059206Y0260550D01*
X0060550Y0259206D01*
X0061278Y0257450D01*
X0061278Y0255550D01*
X0060550Y0253794D01*
X0060101Y0253344D01*
X0142899Y0253344D01*
X0142450Y0253794D01*
X0141722Y0255550D01*
X0141722Y0257450D01*
X0142450Y0259206D01*
X0143794Y0260550D01*
X0145550Y0261278D01*
X0147450Y0261278D01*
X0149206Y0260550D01*
X0150550Y0259206D01*
X0151278Y0257450D01*
X0151278Y0255550D01*
X0150550Y0253794D01*
X0150101Y0253344D01*
X0152468Y0253344D01*
X0154832Y0250980D01*
X0155550Y0251278D01*
X0157450Y0251278D01*
X0159206Y0250550D01*
X0160550Y0249206D01*
X0161278Y0247450D01*
X0161278Y0245550D01*
X0160550Y0243794D01*
X0159206Y0242450D01*
X0157450Y0241722D01*
X0155550Y0241722D01*
X0153794Y0242450D01*
X0152450Y0243794D01*
X0151722Y0245550D01*
X0151722Y0247450D01*
X0151927Y0247945D01*
X0150729Y0249144D01*
X0150576Y0249144D01*
X0151278Y0247450D01*
X0151278Y0245550D01*
X0150550Y0243794D01*
X0150258Y0243502D01*
X0152468Y0243502D01*
X0154943Y0241026D01*
X0155550Y0241278D01*
X0157450Y0241278D01*
X0159206Y0240550D01*
X0160550Y0239206D01*
X0161278Y0237450D01*
X0161278Y0235550D01*
X0160550Y0233794D01*
X0159206Y0232450D01*
X0157450Y0231722D01*
X0155550Y0231722D01*
X0153794Y0232450D01*
X0152450Y0233794D01*
X0151722Y0235550D01*
X0151722Y0237450D01*
X0151974Y0238057D01*
X0150729Y0239302D01*
X0150455Y0239302D01*
X0150550Y0239206D01*
X0151278Y0237450D01*
X0151278Y0235550D01*
X0150550Y0233794D01*
X0149206Y0232450D01*
X0147450Y0231722D01*
X0145550Y0231722D01*
X0143794Y0232450D01*
X0142450Y0233794D01*
X0141722Y0235550D01*
X0141722Y0237450D01*
X0142450Y0239206D01*
X0142545Y0239302D01*
X0060455Y0239302D01*
X0060550Y0239206D01*
X0061278Y0237450D01*
X0061278Y0235550D01*
X0060550Y0233794D01*
X0060416Y0233659D01*
X0124646Y0233659D01*
X0126386Y0233659D01*
X0132143Y0227902D01*
X0132323Y0228337D01*
X0133167Y0229181D01*
X0134269Y0229638D01*
X0135463Y0229638D01*
X0136566Y0229181D01*
X0137009Y0228738D01*
X0142256Y0228738D01*
X0142450Y0229206D01*
X0143794Y0230550D01*
X0145550Y0231278D01*
X0147450Y0231278D01*
X0149206Y0230550D01*
X0150550Y0229206D01*
X0151278Y0227450D01*
X0151278Y0225550D01*
X0150550Y0223794D01*
X0150081Y0223324D01*
X0152919Y0223324D01*
X0152450Y0223794D01*
X0151722Y0225550D01*
X0151722Y0227450D01*
X0152450Y0229206D01*
X0153794Y0230550D01*
X0155550Y0231278D01*
X0157450Y0231278D01*
X0159206Y0230550D01*
X0160550Y0229206D01*
X0161278Y0227450D01*
X0161278Y0225550D01*
X0160550Y0223794D01*
X0160081Y0223324D01*
X0352500Y0223324D01*
X0362656Y0233480D01*
X0362185Y0233951D01*
X0361500Y0235605D01*
X0361500Y0237395D01*
X0362185Y0239049D01*
X0363451Y0240315D01*
X0365105Y0241000D01*
X0372895Y0241000D01*
X0374549Y0240315D01*
X0375815Y0239049D01*
X0376500Y0237395D01*
X0376500Y0235605D01*
X0375815Y0233951D01*
X0374549Y0232685D01*
X0372895Y0232000D01*
X0367116Y0232000D01*
X0366115Y0231000D01*
X0372895Y0231000D01*
X0374549Y0230315D01*
X0375815Y0229049D01*
X0376500Y0227395D01*
X0376500Y0225605D01*
X0375815Y0223951D01*
X0374549Y0222685D01*
X0372895Y0222000D01*
X0367450Y0222000D01*
X0366450Y0221000D01*
X0372895Y0221000D01*
X0374549Y0220315D01*
X0375815Y0219049D01*
X0376500Y0217395D01*
X0376500Y0215605D01*
X0375815Y0213951D01*
X0374549Y0212685D01*
X0372895Y0212000D01*
X0367293Y0212000D01*
X0366293Y0211000D01*
X0372895Y0211000D01*
X0374549Y0210315D01*
X0375815Y0209049D01*
X0376500Y0207395D01*
X0376500Y0205605D01*
X0375815Y0203951D01*
X0374549Y0202685D01*
X0372895Y0202000D01*
X0365105Y0202000D01*
X0363451Y0202685D01*
X0362185Y0203951D01*
X0361500Y0205605D01*
X0361500Y0206207D01*
X0355962Y0200670D01*
X0354732Y0199439D01*
X0160317Y0199439D01*
X0160550Y0199206D01*
X0161278Y0197450D01*
X0161278Y0195550D01*
X0160551Y0193797D01*
X0167232Y0193797D01*
X0168462Y0192567D01*
X0180029Y0181000D01*
X0183364Y0181000D01*
X0186000Y0178364D01*
X0186000Y0174636D01*
X0183364Y0172000D01*
X0179636Y0172000D01*
X0177000Y0174636D01*
X0177000Y0178089D01*
X0165492Y0189597D01*
X0160160Y0189597D01*
X0160550Y0189206D01*
X0161278Y0187450D01*
X0161278Y0185550D01*
X0160550Y0183794D01*
X0159206Y0182450D01*
X0157450Y0181722D01*
X0155550Y0181722D01*
X0153794Y0182450D01*
X0153698Y0182545D01*
X0153698Y0180455D01*
X0153794Y0180550D01*
X0155550Y0181278D01*
X0157450Y0181278D01*
X0159206Y0180550D01*
X0160550Y0179206D01*
X0161278Y0177450D01*
X0161278Y0175550D01*
X0160550Y0173794D01*
X0159206Y0172450D01*
X0157450Y0171722D01*
X0155550Y0171722D01*
X0153794Y0172450D01*
X0152924Y0173320D01*
X0152468Y0172865D01*
X0149680Y0170076D01*
X0150550Y0169206D01*
X0151278Y0167450D01*
X0151278Y0165550D01*
X0150550Y0163794D01*
X0149206Y0162450D01*
X0147450Y0161722D01*
X0145550Y0161722D01*
X0143794Y0162450D01*
X0142450Y0163794D01*
X0141722Y0165550D01*
X0141722Y0165564D01*
X0135736Y0159577D01*
X0027787Y0159577D01*
X0028315Y0159049D01*
X0028395Y0158856D01*
X0177492Y0158856D01*
X0179636Y0161000D01*
X0182892Y0161000D01*
X0185177Y0163285D01*
X0188351Y0163285D01*
X0187000Y0164636D01*
X0187000Y0168364D01*
X0189636Y0171000D01*
X0193364Y0171000D01*
X0196000Y0168364D01*
X0196000Y0167710D01*
X0221595Y0193305D01*
X0362831Y0193305D01*
X0362185Y0193951D01*
X0361500Y0195605D01*
X0361500Y0197395D01*
X0362185Y0199049D01*
X0363451Y0200315D01*
X0365105Y0201000D01*
X0372895Y0201000D01*
X0374549Y0200315D01*
X0375815Y0199049D01*
X0376500Y0197395D01*
X0376500Y0195605D01*
X0375815Y0193951D01*
X0375169Y0193305D01*
X0377370Y0193305D01*
X0378600Y0192075D01*
X0378600Y0173110D01*
X0375177Y0169687D01*
X0375815Y0169049D01*
X0376500Y0167395D01*
X0376500Y0165605D01*
X0375815Y0163951D01*
X0374549Y0162685D01*
X0372895Y0162000D01*
X0365105Y0162000D01*
X0363451Y0162685D01*
X0362185Y0163951D01*
X0361500Y0165605D01*
X0361500Y0167395D01*
X0362185Y0169049D01*
X0363451Y0170315D01*
X0365105Y0171000D01*
X0370550Y0171000D01*
X0371550Y0172000D01*
X0365105Y0172000D01*
X0363451Y0172685D01*
X0362185Y0173951D01*
X0362024Y0174341D01*
X0222350Y0174341D01*
X0196000Y0147991D01*
X0196000Y0144636D01*
X0193364Y0142000D01*
X0189636Y0142000D01*
X0187000Y0144636D01*
X0187000Y0148364D01*
X0189636Y0151000D01*
X0193070Y0151000D01*
X0218871Y0176802D01*
X0214968Y0176802D01*
X0196000Y0157833D01*
X0196000Y0154636D01*
X0193364Y0152000D01*
X0190167Y0152000D01*
X0187901Y0149735D01*
X0184629Y0149735D01*
X0186000Y0148364D01*
X0186000Y0147000D01*
X0182000Y0147000D01*
X0182000Y0146000D01*
X0186000Y0146000D01*
X0186000Y0144636D01*
X0183364Y0142000D01*
X0182000Y0142000D01*
X0182000Y0146000D01*
X0181000Y0146000D01*
X0181000Y0142000D01*
X0179636Y0142000D01*
X0177000Y0144636D01*
X0177000Y0146000D01*
X0181000Y0146000D01*
X0181000Y0147000D01*
X0177000Y0147000D01*
X0177000Y0148364D01*
X0178371Y0149735D01*
X0053278Y0149735D01*
X0052294Y0149327D01*
X0051100Y0149327D01*
X0050115Y0149735D01*
X0027629Y0149735D01*
X0028315Y0149049D01*
X0029000Y0147395D01*
X0029000Y0145605D01*
X0028315Y0143951D01*
X0027049Y0142685D01*
X0025395Y0142000D01*
X0017605Y0142000D01*
X0015951Y0142685D01*
X0014685Y0143951D01*
X0014000Y0145605D01*
X0014000Y0147395D01*
X0014685Y0149049D01*
X0015951Y0150315D01*
X0017605Y0151000D01*
X0022794Y0151000D01*
X0023794Y0152000D01*
X0017605Y0152000D01*
X0015951Y0152685D01*
X0014685Y0153951D01*
X0014000Y0155605D01*
X0014000Y0157395D01*
X0014685Y0159049D01*
X0015304Y0159668D01*
X0013443Y0161529D01*
X0013443Y0118256D01*
X0014119Y0117579D01*
X0014330Y0118227D01*
X0014651Y0118859D01*
X0015068Y0119432D01*
X0015568Y0119932D01*
X0016141Y0120349D01*
X0016773Y0120670D01*
X0017446Y0120889D01*
X0018146Y0121000D01*
X0021000Y0121000D01*
X0021000Y0117000D01*
X0022000Y0117000D01*
X0022000Y0121000D01*
X0024854Y0121000D01*
X0025554Y0120889D01*
X0026227Y0120670D01*
X0026859Y0120349D01*
X0027432Y0119932D01*
X0027932Y0119432D01*
X0028349Y0118859D01*
X0028670Y0118227D01*
X0028889Y0117554D01*
X0028977Y0117000D01*
X0022000Y0117000D01*
X0022000Y0116000D01*
X0028977Y0116000D01*
X0028889Y0115446D01*
X0028670Y0114773D01*
X0028798Y0115167D02*
X0103315Y0115167D01*
X0102885Y0116165D02*
X0022000Y0116165D01*
X0022000Y0117164D02*
X0021000Y0117164D01*
X0021000Y0118162D02*
X0022000Y0118162D01*
X0022000Y0119161D02*
X0021000Y0119161D01*
X0021000Y0120159D02*
X0022000Y0120159D01*
X0025772Y0122156D02*
X0094221Y0122156D01*
X0093223Y0123155D02*
X0027519Y0123155D01*
X0028399Y0124153D02*
X0092224Y0124153D01*
X0091226Y0125152D02*
X0045461Y0125152D01*
X0046420Y0126150D02*
X0090227Y0126150D01*
X0089229Y0127149D02*
X0046823Y0127149D01*
X0046823Y0128147D02*
X0088230Y0128147D01*
X0092023Y0131143D02*
X0160485Y0131143D01*
X0161483Y0132141D02*
X0091025Y0132141D01*
X0090026Y0133140D02*
X0162482Y0133140D01*
X0163480Y0134138D02*
X0028392Y0134138D01*
X0028806Y0135137D02*
X0164479Y0135137D01*
X0165477Y0136135D02*
X0029000Y0136135D01*
X0029000Y0137134D02*
X0166476Y0137134D01*
X0167490Y0138132D02*
X0028695Y0138132D01*
X0028233Y0139131D02*
X0177767Y0139131D01*
X0178765Y0140129D02*
X0027235Y0140129D01*
X0025700Y0142126D02*
X0179510Y0142126D01*
X0178511Y0143125D02*
X0027489Y0143125D01*
X0028386Y0144123D02*
X0177513Y0144123D01*
X0177000Y0145122D02*
X0028800Y0145122D01*
X0029000Y0146120D02*
X0181000Y0146120D01*
X0181000Y0145122D02*
X0182000Y0145122D01*
X0182000Y0146120D02*
X0187000Y0146120D01*
X0187000Y0145122D02*
X0186000Y0145122D01*
X0185487Y0144123D02*
X0187513Y0144123D01*
X0188511Y0143125D02*
X0184489Y0143125D01*
X0183490Y0142126D02*
X0189510Y0142126D01*
X0188765Y0140129D02*
X0184235Y0140129D01*
X0185233Y0139131D02*
X0187767Y0139131D01*
X0182000Y0142126D02*
X0181000Y0142126D01*
X0181000Y0143125D02*
X0182000Y0143125D01*
X0182000Y0144123D02*
X0181000Y0144123D01*
X0177000Y0147119D02*
X0029000Y0147119D01*
X0028701Y0148117D02*
X0177000Y0148117D01*
X0177752Y0149116D02*
X0028248Y0149116D01*
X0028299Y0153935D02*
X0028315Y0153951D01*
X0028607Y0154656D01*
X0049783Y0154656D01*
X0049154Y0154026D01*
X0049116Y0153935D01*
X0028299Y0153935D01*
X0028380Y0154108D02*
X0049236Y0154108D01*
X0053610Y0154656D02*
X0177000Y0154656D01*
X0177000Y0154636D01*
X0177701Y0153935D01*
X0054278Y0153935D01*
X0054240Y0154026D01*
X0053610Y0154656D01*
X0054158Y0154108D02*
X0177528Y0154108D01*
X0177737Y0159101D02*
X0028263Y0159101D01*
X0028141Y0163777D02*
X0028315Y0163951D01*
X0029000Y0165605D01*
X0029000Y0167395D01*
X0028315Y0169049D01*
X0027944Y0169420D01*
X0042663Y0169420D01*
X0042450Y0169206D01*
X0041722Y0167450D01*
X0041722Y0165550D01*
X0042450Y0163794D01*
X0042466Y0163777D01*
X0028141Y0163777D01*
X0028374Y0164094D02*
X0042326Y0164094D01*
X0041912Y0165092D02*
X0028788Y0165092D01*
X0029000Y0166091D02*
X0041722Y0166091D01*
X0041722Y0167089D02*
X0029000Y0167089D01*
X0028713Y0168088D02*
X0041986Y0168088D01*
X0042400Y0169086D02*
X0028278Y0169086D01*
X0024148Y0171000D02*
X0017605Y0171000D01*
X0015951Y0170315D01*
X0015903Y0170267D01*
X0015903Y0172733D01*
X0015951Y0172685D01*
X0017605Y0172000D01*
X0023148Y0172000D01*
X0024148Y0171000D01*
X0024065Y0171083D02*
X0015903Y0171083D01*
X0015903Y0172082D02*
X0017408Y0172082D01*
X0015903Y0180267D02*
X0015903Y0182733D01*
X0015951Y0182685D01*
X0017605Y0182000D01*
X0025395Y0182000D01*
X0027049Y0182685D01*
X0028315Y0183951D01*
X0029000Y0185605D01*
X0029000Y0187395D01*
X0028315Y0189049D01*
X0027049Y0190315D01*
X0025395Y0191000D01*
X0017605Y0191000D01*
X0015951Y0190315D01*
X0015903Y0190267D01*
X0015903Y0199439D01*
X0042683Y0199439D01*
X0042450Y0199206D01*
X0041722Y0197450D01*
X0041722Y0195550D01*
X0042450Y0193794D01*
X0043794Y0192450D01*
X0045550Y0191722D01*
X0047450Y0191722D01*
X0049206Y0192450D01*
X0050550Y0193794D01*
X0051278Y0195550D01*
X0051278Y0197450D01*
X0051073Y0197945D01*
X0052567Y0199439D01*
X0052683Y0199439D01*
X0052450Y0199206D01*
X0051722Y0197450D01*
X0051722Y0195550D01*
X0052450Y0193794D01*
X0053794Y0192450D01*
X0055550Y0191722D01*
X0057450Y0191722D01*
X0057876Y0191899D01*
X0060177Y0189597D01*
X0142840Y0189597D01*
X0142450Y0189206D01*
X0141722Y0187450D01*
X0141722Y0185550D01*
X0142450Y0183794D01*
X0143794Y0182450D01*
X0145550Y0181722D01*
X0147450Y0181722D01*
X0149206Y0182450D01*
X0149498Y0182742D01*
X0149498Y0180258D01*
X0149206Y0180550D01*
X0147450Y0181278D01*
X0145550Y0181278D01*
X0143794Y0180550D01*
X0142450Y0179206D01*
X0141722Y0177450D01*
X0141722Y0175550D01*
X0141899Y0175124D01*
X0140394Y0173620D01*
X0060376Y0173620D01*
X0060550Y0173794D01*
X0061278Y0175550D01*
X0061278Y0177381D01*
X0061809Y0176850D01*
X0062911Y0176394D01*
X0064105Y0176394D01*
X0065207Y0176850D01*
X0066051Y0177694D01*
X0066508Y0178797D01*
X0066508Y0179990D01*
X0066051Y0181093D01*
X0065207Y0181937D01*
X0064105Y0182394D01*
X0063902Y0182394D01*
X0061122Y0185174D01*
X0061278Y0185550D01*
X0061278Y0187450D01*
X0060550Y0189206D01*
X0059206Y0190550D01*
X0057450Y0191278D01*
X0055550Y0191278D01*
X0053794Y0190550D01*
X0052450Y0189206D01*
X0051722Y0187450D01*
X0051722Y0185550D01*
X0052450Y0183794D01*
X0053794Y0182450D01*
X0055550Y0181722D01*
X0057450Y0181722D01*
X0057687Y0181820D01*
X0058781Y0180726D01*
X0057450Y0181278D01*
X0055550Y0181278D01*
X0053794Y0180550D01*
X0052450Y0179206D01*
X0051722Y0177450D01*
X0051722Y0175550D01*
X0052450Y0173794D01*
X0052624Y0173620D01*
X0050376Y0173620D01*
X0050550Y0173794D01*
X0051278Y0175550D01*
X0051278Y0177450D01*
X0050550Y0179206D01*
X0049206Y0180550D01*
X0047450Y0181278D01*
X0045550Y0181278D01*
X0043794Y0180550D01*
X0042450Y0179206D01*
X0041722Y0177450D01*
X0041722Y0175550D01*
X0042450Y0173794D01*
X0042624Y0173620D01*
X0027984Y0173620D01*
X0028315Y0173951D01*
X0029000Y0175605D01*
X0029000Y0177395D01*
X0028315Y0179049D01*
X0027049Y0180315D01*
X0025395Y0181000D01*
X0017605Y0181000D01*
X0015951Y0180315D01*
X0015903Y0180267D01*
X0015903Y0181068D02*
X0045044Y0181068D01*
X0045550Y0181722D02*
X0047450Y0181722D01*
X0049206Y0182450D01*
X0050550Y0183794D01*
X0051278Y0185550D01*
X0051278Y0187450D01*
X0050550Y0189206D01*
X0049206Y0190550D01*
X0047450Y0191278D01*
X0045550Y0191278D01*
X0043794Y0190550D01*
X0042450Y0189206D01*
X0041722Y0187450D01*
X0041722Y0185550D01*
X0042450Y0183794D01*
X0043794Y0182450D01*
X0045550Y0181722D01*
X0044718Y0182067D02*
X0025556Y0182067D01*
X0027429Y0183065D02*
X0043178Y0183065D01*
X0042338Y0184064D02*
X0028362Y0184064D01*
X0028775Y0185062D02*
X0041924Y0185062D01*
X0041722Y0186061D02*
X0029000Y0186061D01*
X0029000Y0187059D02*
X0041722Y0187059D01*
X0041974Y0188058D02*
X0028725Y0188058D01*
X0028308Y0189056D02*
X0042388Y0189056D01*
X0043298Y0190055D02*
X0027309Y0190055D01*
X0015903Y0191053D02*
X0045009Y0191053D01*
X0044754Y0192052D02*
X0015903Y0192052D01*
X0015903Y0193050D02*
X0043193Y0193050D01*
X0042344Y0194049D02*
X0015903Y0194049D01*
X0015903Y0195047D02*
X0041930Y0195047D01*
X0041722Y0196046D02*
X0015903Y0196046D01*
X0015903Y0197044D02*
X0041722Y0197044D01*
X0041968Y0198043D02*
X0015903Y0198043D01*
X0015903Y0199041D02*
X0042382Y0199041D01*
X0042604Y0203639D02*
X0013443Y0203639D01*
X0013443Y0234872D01*
X0015508Y0234872D01*
X0014685Y0234049D01*
X0014000Y0232395D01*
X0014000Y0230605D01*
X0014685Y0228951D01*
X0015951Y0227685D01*
X0017605Y0227000D01*
X0025395Y0227000D01*
X0027049Y0227685D01*
X0028315Y0228951D01*
X0028525Y0229459D01*
X0042703Y0229459D01*
X0042450Y0229206D01*
X0041722Y0227450D01*
X0041722Y0225550D01*
X0042450Y0223794D01*
X0042919Y0223324D01*
X0028615Y0223324D01*
X0028315Y0224049D01*
X0027049Y0225315D01*
X0025395Y0226000D01*
X0017605Y0226000D01*
X0015951Y0225315D01*
X0014685Y0224049D01*
X0014000Y0222395D01*
X0014000Y0220605D01*
X0014685Y0218951D01*
X0015951Y0217685D01*
X0017605Y0217000D01*
X0025395Y0217000D01*
X0027049Y0217685D01*
X0028315Y0218951D01*
X0028387Y0219124D01*
X0042416Y0219124D01*
X0041722Y0217450D01*
X0041722Y0215550D01*
X0042450Y0213794D01*
X0043794Y0212450D01*
X0045550Y0211722D01*
X0047450Y0211722D01*
X0049206Y0212450D01*
X0050550Y0213794D01*
X0051278Y0215550D01*
X0051278Y0217450D01*
X0050584Y0219124D01*
X0052416Y0219124D01*
X0051722Y0217450D01*
X0051722Y0215550D01*
X0052450Y0213794D01*
X0052762Y0213482D01*
X0050335Y0213482D01*
X0049105Y0212252D01*
X0047931Y0211078D01*
X0047450Y0211278D01*
X0045550Y0211278D01*
X0043794Y0210550D01*
X0042450Y0209206D01*
X0041722Y0207450D01*
X0041722Y0205550D01*
X0042450Y0203794D01*
X0042604Y0203639D01*
X0042350Y0204034D02*
X0013443Y0204034D01*
X0013443Y0205033D02*
X0041937Y0205033D01*
X0041722Y0206031D02*
X0013443Y0206031D01*
X0013443Y0207030D02*
X0017533Y0207030D01*
X0017605Y0207000D02*
X0025395Y0207000D01*
X0027049Y0207685D01*
X0028315Y0208951D01*
X0029000Y0210605D01*
X0029000Y0212395D01*
X0028315Y0214049D01*
X0027049Y0215315D01*
X0025395Y0216000D01*
X0017605Y0216000D01*
X0015951Y0215315D01*
X0014685Y0214049D01*
X0014000Y0212395D01*
X0014000Y0210605D01*
X0014685Y0208951D01*
X0015951Y0207685D01*
X0017605Y0207000D01*
X0015608Y0208028D02*
X0013443Y0208028D01*
X0013443Y0209027D02*
X0014654Y0209027D01*
X0014240Y0210025D02*
X0013443Y0210025D01*
X0013443Y0211024D02*
X0014000Y0211024D01*
X0014000Y0212022D02*
X0013443Y0212022D01*
X0013443Y0213021D02*
X0014259Y0213021D01*
X0014673Y0214019D02*
X0013443Y0214019D01*
X0013443Y0215018D02*
X0015654Y0215018D01*
X0013443Y0216016D02*
X0041722Y0216016D01*
X0041722Y0217015D02*
X0025431Y0217015D01*
X0027377Y0218013D02*
X0041956Y0218013D01*
X0042369Y0219012D02*
X0028340Y0219012D01*
X0027346Y0215018D02*
X0041943Y0215018D01*
X0042356Y0214019D02*
X0028327Y0214019D01*
X0028741Y0213021D02*
X0043223Y0213021D01*
X0044826Y0212022D02*
X0029000Y0212022D01*
X0029000Y0211024D02*
X0044937Y0211024D01*
X0043269Y0210025D02*
X0028760Y0210025D01*
X0028346Y0209027D02*
X0042375Y0209027D01*
X0041962Y0208028D02*
X0027392Y0208028D01*
X0025466Y0207030D02*
X0041722Y0207030D01*
X0048174Y0212022D02*
X0048875Y0212022D01*
X0049777Y0213021D02*
X0049874Y0213021D01*
X0050644Y0214019D02*
X0052356Y0214019D01*
X0051943Y0215018D02*
X0051057Y0215018D01*
X0051278Y0216016D02*
X0051722Y0216016D01*
X0051722Y0217015D02*
X0051278Y0217015D01*
X0051044Y0218013D02*
X0051956Y0218013D01*
X0052369Y0219012D02*
X0050631Y0219012D01*
X0050081Y0223324D02*
X0050550Y0223794D01*
X0051278Y0225550D01*
X0051278Y0227450D01*
X0050550Y0229206D01*
X0050297Y0229459D01*
X0052703Y0229459D01*
X0052450Y0229206D01*
X0051722Y0227450D01*
X0051722Y0225550D01*
X0052450Y0223794D01*
X0052919Y0223324D01*
X0050081Y0223324D01*
X0050637Y0224004D02*
X0052363Y0224004D01*
X0051949Y0225003D02*
X0051051Y0225003D01*
X0051278Y0226001D02*
X0051722Y0226001D01*
X0051722Y0227000D02*
X0051278Y0227000D01*
X0051051Y0227998D02*
X0051949Y0227998D01*
X0052363Y0228997D02*
X0050637Y0228997D01*
X0050416Y0233659D02*
X0050550Y0233794D01*
X0051278Y0235550D01*
X0051278Y0237450D01*
X0050550Y0239206D01*
X0050455Y0239302D01*
X0052545Y0239302D01*
X0052450Y0239206D01*
X0051722Y0237450D01*
X0051722Y0235550D01*
X0052450Y0233794D01*
X0052584Y0233659D01*
X0050416Y0233659D01*
X0050631Y0233989D02*
X0052369Y0233989D01*
X0051955Y0234988D02*
X0051045Y0234988D01*
X0051278Y0235986D02*
X0051722Y0235986D01*
X0051722Y0236985D02*
X0051278Y0236985D01*
X0051057Y0237983D02*
X0051943Y0237983D01*
X0052357Y0238982D02*
X0050643Y0238982D01*
X0050258Y0243502D02*
X0050550Y0243794D01*
X0051278Y0245550D01*
X0051278Y0247450D01*
X0050576Y0249144D01*
X0052424Y0249144D01*
X0051722Y0247450D01*
X0051722Y0245550D01*
X0052450Y0243794D01*
X0052742Y0243502D01*
X0050258Y0243502D01*
X0050625Y0243974D02*
X0052375Y0243974D01*
X0051961Y0244973D02*
X0051039Y0244973D01*
X0051278Y0245972D02*
X0051722Y0245972D01*
X0051722Y0246970D02*
X0051278Y0246970D01*
X0051063Y0247969D02*
X0051937Y0247969D01*
X0052351Y0248967D02*
X0050649Y0248967D01*
X0050560Y0253960D02*
X0052381Y0253960D01*
X0051967Y0254958D02*
X0051022Y0254958D01*
X0051251Y0255957D02*
X0051722Y0255957D01*
X0051722Y0256955D02*
X0047000Y0256955D01*
X0047000Y0257954D02*
X0046000Y0257954D01*
X0046000Y0258952D02*
X0047000Y0258952D01*
X0047000Y0259951D02*
X0046000Y0259951D01*
X0046000Y0260949D02*
X0047000Y0260949D01*
X0048267Y0260949D02*
X0054757Y0260949D01*
X0053194Y0259951D02*
X0049806Y0259951D01*
X0050613Y0258952D02*
X0052345Y0258952D01*
X0051931Y0257954D02*
X0051051Y0257954D01*
X0046000Y0256955D02*
X0030907Y0256955D01*
X0029354Y0255957D02*
X0041749Y0255957D01*
X0041978Y0254958D02*
X0026647Y0254958D01*
X0032461Y0257954D02*
X0041949Y0257954D01*
X0042387Y0258952D02*
X0033547Y0258952D01*
X0034413Y0259951D02*
X0043194Y0259951D01*
X0044733Y0260949D02*
X0035278Y0260949D01*
X0036143Y0261948D02*
X0356857Y0261948D01*
X0356364Y0262946D02*
X0158275Y0262946D01*
X0158500Y0263945D02*
X0355908Y0263945D01*
X0355452Y0264943D02*
X0158500Y0264943D01*
X0158500Y0265942D02*
X0354996Y0265942D01*
X0354656Y0266940D02*
X0158500Y0266940D01*
X0158500Y0267939D02*
X0354512Y0267939D01*
X0354368Y0268937D02*
X0158500Y0268937D01*
X0158500Y0269936D02*
X0354225Y0269936D01*
X0354081Y0270934D02*
X0158500Y0270934D01*
X0158500Y0271933D02*
X0354062Y0271933D01*
X0354206Y0272931D02*
X0158500Y0272931D01*
X0158500Y0273930D02*
X0354349Y0273930D01*
X0354493Y0274928D02*
X0158500Y0274928D01*
X0158500Y0275927D02*
X0354636Y0275927D01*
X0354935Y0276925D02*
X0158500Y0276925D01*
X0158500Y0277924D02*
X0355391Y0277924D01*
X0355847Y0278922D02*
X0158500Y0278922D01*
X0158500Y0279921D02*
X0356303Y0279921D01*
X0356759Y0280919D02*
X0158500Y0280919D01*
X0158500Y0281918D02*
X0357607Y0281918D01*
X0358472Y0282916D02*
X0158500Y0282916D01*
X0158500Y0283915D02*
X0359338Y0283915D01*
X0360332Y0284913D02*
X0158500Y0284913D01*
X0158500Y0285912D02*
X0361886Y0285912D01*
X0363440Y0286910D02*
X0158500Y0286910D01*
X0157000Y0261258D02*
X0157619Y0261160D01*
X0158334Y0260928D01*
X0159004Y0260586D01*
X0159612Y0260144D01*
X0160144Y0259612D01*
X0160586Y0259004D01*
X0160928Y0258334D01*
X0161160Y0257619D01*
X0161258Y0257000D01*
X0157000Y0257000D01*
X0157000Y0256000D01*
X0161258Y0256000D01*
X0161160Y0255381D01*
X0160928Y0254666D01*
X0160586Y0253996D01*
X0160144Y0253388D01*
X0159612Y0252856D01*
X0159004Y0252414D01*
X0158334Y0252072D01*
X0157619Y0251840D01*
X0157000Y0251742D01*
X0157000Y0256000D01*
X0156000Y0256000D01*
X0156000Y0251742D01*
X0155381Y0251840D01*
X0154666Y0252072D01*
X0153996Y0252414D01*
X0153388Y0252856D01*
X0152856Y0253388D01*
X0152414Y0253996D01*
X0152072Y0254666D01*
X0151840Y0255381D01*
X0151742Y0256000D01*
X0156000Y0256000D01*
X0156000Y0257000D01*
X0156000Y0261258D01*
X0155381Y0261160D01*
X0154666Y0260928D01*
X0153996Y0260586D01*
X0153388Y0260144D01*
X0152856Y0259612D01*
X0152414Y0259004D01*
X0152072Y0258334D01*
X0151840Y0257619D01*
X0151742Y0257000D01*
X0156000Y0257000D01*
X0157000Y0257000D01*
X0157000Y0261258D01*
X0157000Y0260949D02*
X0156000Y0260949D01*
X0156000Y0259951D02*
X0157000Y0259951D01*
X0157000Y0258952D02*
X0156000Y0258952D01*
X0156000Y0257954D02*
X0157000Y0257954D01*
X0157000Y0256955D02*
X0362093Y0256955D01*
X0363646Y0255957D02*
X0161251Y0255957D01*
X0161022Y0254958D02*
X0366353Y0254958D01*
X0360539Y0257954D02*
X0161051Y0257954D01*
X0160613Y0258952D02*
X0359453Y0258952D01*
X0358587Y0259951D02*
X0159806Y0259951D01*
X0158267Y0260949D02*
X0357722Y0260949D01*
X0376647Y0254958D02*
X0386990Y0254958D01*
X0386990Y0253960D02*
X0160560Y0253960D01*
X0159718Y0252961D02*
X0386990Y0252961D01*
X0386989Y0251963D02*
X0157996Y0251963D01*
X0157000Y0251963D02*
X0156000Y0251963D01*
X0155004Y0251963D02*
X0153850Y0251963D01*
X0153282Y0252961D02*
X0152851Y0252961D01*
X0152440Y0253960D02*
X0150619Y0253960D01*
X0151033Y0254958D02*
X0151978Y0254958D01*
X0151749Y0255957D02*
X0151278Y0255957D01*
X0151278Y0256955D02*
X0156000Y0256955D01*
X0156000Y0255957D02*
X0157000Y0255957D01*
X0157000Y0254958D02*
X0156000Y0254958D01*
X0156000Y0253960D02*
X0157000Y0253960D01*
X0157000Y0252961D02*
X0156000Y0252961D01*
X0158207Y0250964D02*
X0386989Y0250964D01*
X0386989Y0249966D02*
X0159791Y0249966D01*
X0160649Y0248967D02*
X0386988Y0248967D01*
X0386988Y0247969D02*
X0161063Y0247969D01*
X0161278Y0246970D02*
X0386988Y0246970D01*
X0386988Y0245972D02*
X0161278Y0245972D01*
X0161039Y0244973D02*
X0386987Y0244973D01*
X0386987Y0243974D02*
X0160625Y0243974D01*
X0159732Y0242976D02*
X0386987Y0242976D01*
X0386987Y0241977D02*
X0158066Y0241977D01*
X0158171Y0240979D02*
X0365054Y0240979D01*
X0363116Y0239980D02*
X0159776Y0239980D01*
X0160643Y0238982D02*
X0362157Y0238982D01*
X0361744Y0237983D02*
X0161057Y0237983D01*
X0161278Y0236985D02*
X0361500Y0236985D01*
X0361500Y0235986D02*
X0161278Y0235986D01*
X0161045Y0234988D02*
X0361756Y0234988D01*
X0362169Y0233989D02*
X0160631Y0233989D01*
X0159747Y0232991D02*
X0362167Y0232991D01*
X0361168Y0231992D02*
X0158102Y0231992D01*
X0158135Y0230994D02*
X0360170Y0230994D01*
X0359171Y0229995D02*
X0159761Y0229995D01*
X0160637Y0228997D02*
X0358173Y0228997D01*
X0357174Y0227998D02*
X0161051Y0227998D01*
X0161278Y0227000D02*
X0356176Y0227000D01*
X0355177Y0226001D02*
X0161278Y0226001D01*
X0161051Y0225003D02*
X0354179Y0225003D01*
X0353180Y0224004D02*
X0160637Y0224004D01*
X0160584Y0219124D02*
X0160679Y0218895D01*
X0358406Y0218895D01*
X0362823Y0223313D01*
X0362185Y0223951D01*
X0361500Y0225605D01*
X0361500Y0226384D01*
X0355470Y0220355D01*
X0354240Y0219124D01*
X0160584Y0219124D01*
X0160631Y0219012D02*
X0358522Y0219012D01*
X0359521Y0220010D02*
X0355126Y0220010D01*
X0356124Y0221009D02*
X0360519Y0221009D01*
X0361518Y0222007D02*
X0357123Y0222007D01*
X0358121Y0223006D02*
X0362516Y0223006D01*
X0362163Y0224004D02*
X0359120Y0224004D01*
X0360118Y0225003D02*
X0361749Y0225003D01*
X0361500Y0226001D02*
X0361117Y0226001D01*
X0366459Y0221009D02*
X0386981Y0221009D01*
X0386981Y0222007D02*
X0372913Y0222007D01*
X0374870Y0223006D02*
X0386981Y0223006D01*
X0386982Y0224004D02*
X0375837Y0224004D01*
X0376251Y0225003D02*
X0386982Y0225003D01*
X0386982Y0226001D02*
X0376500Y0226001D01*
X0376500Y0227000D02*
X0386983Y0227000D01*
X0386983Y0227998D02*
X0376250Y0227998D01*
X0375837Y0228997D02*
X0386983Y0228997D01*
X0386983Y0229995D02*
X0374869Y0229995D01*
X0372910Y0230994D02*
X0386984Y0230994D01*
X0386984Y0231992D02*
X0367108Y0231992D01*
X0374855Y0232991D02*
X0386984Y0232991D01*
X0386984Y0233989D02*
X0375831Y0233989D01*
X0376244Y0234988D02*
X0386985Y0234988D01*
X0386985Y0235986D02*
X0376500Y0235986D01*
X0376500Y0236985D02*
X0386985Y0236985D01*
X0386985Y0237983D02*
X0376256Y0237983D01*
X0375843Y0238982D02*
X0386986Y0238982D01*
X0386986Y0239980D02*
X0374884Y0239980D01*
X0372946Y0240979D02*
X0386986Y0240979D01*
X0386990Y0255957D02*
X0379354Y0255957D01*
X0380907Y0256955D02*
X0386991Y0256955D01*
X0386991Y0257954D02*
X0382461Y0257954D01*
X0383547Y0258952D02*
X0386991Y0258952D01*
X0386991Y0259951D02*
X0384413Y0259951D01*
X0385278Y0260949D02*
X0386992Y0260949D01*
X0386992Y0261948D02*
X0386143Y0261948D01*
X0386636Y0262946D02*
X0386992Y0262946D01*
X0386997Y0279265D02*
X0386222Y0280961D01*
X0386222Y0280961D01*
X0382960Y0284726D01*
X0379421Y0287000D01*
X0386999Y0287000D01*
X0386997Y0279265D01*
X0386997Y0279921D02*
X0386697Y0279921D01*
X0386997Y0280919D02*
X0386241Y0280919D01*
X0386997Y0281918D02*
X0385393Y0281918D01*
X0384528Y0282916D02*
X0386998Y0282916D01*
X0386998Y0283915D02*
X0383662Y0283915D01*
X0382960Y0284726D02*
X0382960Y0284726D01*
X0382668Y0284913D02*
X0386998Y0284913D01*
X0386998Y0285912D02*
X0381114Y0285912D01*
X0379560Y0286910D02*
X0386999Y0286910D01*
X0386981Y0220010D02*
X0374854Y0220010D01*
X0375830Y0219012D02*
X0386980Y0219012D01*
X0386980Y0218013D02*
X0376244Y0218013D01*
X0376500Y0217015D02*
X0386980Y0217015D01*
X0386980Y0216016D02*
X0376500Y0216016D01*
X0376257Y0215018D02*
X0386979Y0215018D01*
X0386979Y0214019D02*
X0375843Y0214019D01*
X0374885Y0213021D02*
X0386979Y0213021D01*
X0386978Y0212022D02*
X0372949Y0212022D01*
X0374839Y0210025D02*
X0386978Y0210025D01*
X0386978Y0209027D02*
X0375824Y0209027D01*
X0376238Y0208028D02*
X0386977Y0208028D01*
X0386977Y0207030D02*
X0376500Y0207030D01*
X0376500Y0206031D02*
X0386977Y0206031D01*
X0386977Y0205033D02*
X0376263Y0205033D01*
X0375849Y0204034D02*
X0386976Y0204034D01*
X0386976Y0203036D02*
X0374899Y0203036D01*
X0372984Y0202037D02*
X0386976Y0202037D01*
X0386975Y0201039D02*
X0356331Y0201039D01*
X0357330Y0202037D02*
X0365016Y0202037D01*
X0363100Y0203036D02*
X0358328Y0203036D01*
X0359327Y0204034D02*
X0362151Y0204034D01*
X0361737Y0205033D02*
X0360325Y0205033D01*
X0361324Y0206031D02*
X0361500Y0206031D01*
X0358380Y0209027D02*
X0186950Y0209027D01*
X0186762Y0208839D02*
X0187606Y0209683D01*
X0188063Y0210785D01*
X0188063Y0211979D01*
X0187606Y0213081D01*
X0186762Y0213925D01*
X0185660Y0214382D01*
X0184466Y0214382D01*
X0183364Y0213925D01*
X0182920Y0213482D01*
X0160238Y0213482D01*
X0160550Y0213794D01*
X0160924Y0214695D01*
X0360145Y0214695D01*
X0361376Y0215925D01*
X0361500Y0216050D01*
X0361500Y0215605D01*
X0362185Y0213951D01*
X0362745Y0213392D01*
X0352992Y0203639D01*
X0160396Y0203639D01*
X0160550Y0203794D01*
X0161278Y0205550D01*
X0161278Y0207450D01*
X0160550Y0209206D01*
X0160475Y0209282D01*
X0182920Y0209282D01*
X0183364Y0208839D01*
X0184466Y0208382D01*
X0185660Y0208382D01*
X0186762Y0208839D01*
X0187748Y0210025D02*
X0359378Y0210025D01*
X0360377Y0211024D02*
X0188063Y0211024D01*
X0188045Y0212022D02*
X0361375Y0212022D01*
X0362374Y0213021D02*
X0187631Y0213021D01*
X0186535Y0214019D02*
X0362157Y0214019D01*
X0361743Y0215018D02*
X0360468Y0215018D01*
X0361466Y0216016D02*
X0361500Y0216016D01*
X0366316Y0211024D02*
X0386978Y0211024D01*
X0386975Y0200040D02*
X0374824Y0200040D01*
X0375818Y0199041D02*
X0386975Y0199041D01*
X0386975Y0198043D02*
X0376232Y0198043D01*
X0376500Y0197044D02*
X0386974Y0197044D01*
X0386974Y0196046D02*
X0376500Y0196046D01*
X0376269Y0195047D02*
X0386974Y0195047D01*
X0386974Y0194049D02*
X0375855Y0194049D01*
X0377624Y0193050D02*
X0386973Y0193050D01*
X0386973Y0192052D02*
X0378600Y0192052D01*
X0378600Y0191053D02*
X0386973Y0191053D01*
X0386972Y0190055D02*
X0378600Y0190055D01*
X0378600Y0189056D02*
X0386972Y0189056D01*
X0386972Y0188058D02*
X0378600Y0188058D01*
X0378600Y0187059D02*
X0386972Y0187059D01*
X0386971Y0186061D02*
X0378600Y0186061D01*
X0378600Y0185062D02*
X0386971Y0185062D01*
X0386971Y0184064D02*
X0378600Y0184064D01*
X0378600Y0183065D02*
X0386971Y0183065D01*
X0386970Y0182067D02*
X0378600Y0182067D01*
X0378600Y0181068D02*
X0386970Y0181068D01*
X0386970Y0180070D02*
X0378600Y0180070D01*
X0378600Y0179071D02*
X0386969Y0179071D01*
X0386969Y0178073D02*
X0378600Y0178073D01*
X0378600Y0177074D02*
X0386969Y0177074D01*
X0386969Y0176076D02*
X0378600Y0176076D01*
X0378600Y0175077D02*
X0386968Y0175077D01*
X0386968Y0174079D02*
X0378600Y0174079D01*
X0378570Y0173080D02*
X0386968Y0173080D01*
X0386968Y0172082D02*
X0377571Y0172082D01*
X0376573Y0171083D02*
X0386967Y0171083D01*
X0386967Y0170085D02*
X0375574Y0170085D01*
X0375778Y0169086D02*
X0386967Y0169086D01*
X0386967Y0168088D02*
X0376213Y0168088D01*
X0376500Y0167089D02*
X0386966Y0167089D01*
X0386966Y0166091D02*
X0376500Y0166091D01*
X0376288Y0165092D02*
X0386966Y0165092D01*
X0386965Y0164094D02*
X0375874Y0164094D01*
X0374959Y0163095D02*
X0386965Y0163095D01*
X0386965Y0162097D02*
X0373128Y0162097D01*
X0373054Y0160889D02*
X0372354Y0161000D01*
X0369500Y0161000D01*
X0369500Y0157000D01*
X0368500Y0157000D01*
X0368500Y0161000D01*
X0365646Y0161000D01*
X0364946Y0160889D01*
X0364273Y0160670D01*
X0363641Y0160349D01*
X0363068Y0159932D01*
X0362568Y0159432D01*
X0362151Y0158859D01*
X0361830Y0158227D01*
X0361611Y0157554D01*
X0361523Y0157000D01*
X0368500Y0157000D01*
X0368500Y0156000D01*
X0369500Y0156000D01*
X0369500Y0157000D01*
X0376477Y0157000D01*
X0376389Y0157554D01*
X0376170Y0158227D01*
X0375849Y0158859D01*
X0375432Y0159432D01*
X0374932Y0159932D01*
X0374359Y0160349D01*
X0373727Y0160670D01*
X0373054Y0160889D01*
X0374701Y0160100D02*
X0386964Y0160100D01*
X0386965Y0161098D02*
X0209107Y0161098D01*
X0208109Y0160100D02*
X0363299Y0160100D01*
X0362327Y0159101D02*
X0207110Y0159101D01*
X0206112Y0158103D02*
X0361789Y0158103D01*
X0361540Y0157104D02*
X0205113Y0157104D01*
X0204115Y0156105D02*
X0368500Y0156105D01*
X0368500Y0156000D02*
X0361523Y0156000D01*
X0361611Y0155446D01*
X0361830Y0154773D01*
X0362151Y0154141D01*
X0362568Y0153568D01*
X0363068Y0153068D01*
X0363641Y0152651D01*
X0364273Y0152330D01*
X0364946Y0152111D01*
X0365646Y0152000D01*
X0368500Y0152000D01*
X0368500Y0156000D01*
X0368500Y0155107D02*
X0369500Y0155107D01*
X0369500Y0156000D02*
X0369500Y0152000D01*
X0372354Y0152000D01*
X0373054Y0152111D01*
X0373727Y0152330D01*
X0374359Y0152651D01*
X0374932Y0153068D01*
X0375432Y0153568D01*
X0375849Y0154141D01*
X0376170Y0154773D01*
X0376389Y0155446D01*
X0376477Y0156000D01*
X0369500Y0156000D01*
X0369500Y0156105D02*
X0386963Y0156105D01*
X0386963Y0155107D02*
X0376279Y0155107D01*
X0375825Y0154108D02*
X0386963Y0154108D01*
X0386962Y0153110D02*
X0374974Y0153110D01*
X0373056Y0152111D02*
X0386962Y0152111D01*
X0386962Y0151113D02*
X0199122Y0151113D01*
X0198124Y0150114D02*
X0363250Y0150114D01*
X0363451Y0150315D02*
X0362185Y0149049D01*
X0361500Y0147395D01*
X0361500Y0145605D01*
X0362185Y0143951D01*
X0363451Y0142685D01*
X0365105Y0142000D01*
X0372895Y0142000D01*
X0374549Y0142685D01*
X0375815Y0143951D01*
X0376500Y0145605D01*
X0376500Y0147395D01*
X0375815Y0149049D01*
X0374549Y0150315D01*
X0372895Y0151000D01*
X0365105Y0151000D01*
X0363451Y0150315D01*
X0362252Y0149116D02*
X0197125Y0149116D01*
X0196127Y0148117D02*
X0361799Y0148117D01*
X0361500Y0147119D02*
X0196000Y0147119D01*
X0196000Y0146120D02*
X0361500Y0146120D01*
X0361700Y0145122D02*
X0196000Y0145122D01*
X0195487Y0144123D02*
X0362114Y0144123D01*
X0363011Y0143125D02*
X0194489Y0143125D01*
X0193490Y0142126D02*
X0364800Y0142126D01*
X0373200Y0142126D02*
X0386959Y0142126D01*
X0386959Y0141128D02*
X0013443Y0141128D01*
X0013443Y0142126D02*
X0017300Y0142126D01*
X0015511Y0143125D02*
X0013443Y0143125D01*
X0013443Y0144123D02*
X0014614Y0144123D01*
X0014200Y0145122D02*
X0013443Y0145122D01*
X0013443Y0146120D02*
X0014000Y0146120D01*
X0014000Y0147119D02*
X0013443Y0147119D01*
X0013443Y0148117D02*
X0014299Y0148117D01*
X0014752Y0149116D02*
X0013443Y0149116D01*
X0013443Y0150114D02*
X0015750Y0150114D01*
X0013443Y0151113D02*
X0022907Y0151113D01*
X0017336Y0152111D02*
X0013443Y0152111D01*
X0013443Y0153110D02*
X0015526Y0153110D01*
X0014620Y0154108D02*
X0013443Y0154108D01*
X0013443Y0155107D02*
X0014206Y0155107D01*
X0014000Y0156105D02*
X0013443Y0156105D01*
X0013443Y0157104D02*
X0014000Y0157104D01*
X0014293Y0158103D02*
X0013443Y0158103D01*
X0013443Y0159101D02*
X0014737Y0159101D01*
X0014872Y0160100D02*
X0013443Y0160100D01*
X0013443Y0161098D02*
X0013873Y0161098D01*
X0018911Y0162000D02*
X0022814Y0162000D01*
X0023814Y0161000D01*
X0019911Y0161000D01*
X0018911Y0162000D01*
X0019813Y0161098D02*
X0023716Y0161098D01*
X0028368Y0174079D02*
X0042332Y0174079D01*
X0041918Y0175077D02*
X0028781Y0175077D01*
X0029000Y0176076D02*
X0041722Y0176076D01*
X0041722Y0177074D02*
X0029000Y0177074D01*
X0028719Y0178073D02*
X0041980Y0178073D01*
X0042394Y0179071D02*
X0028293Y0179071D01*
X0027294Y0180070D02*
X0043313Y0180070D01*
X0047956Y0181068D02*
X0055044Y0181068D01*
X0054718Y0182067D02*
X0048282Y0182067D01*
X0049822Y0183065D02*
X0053178Y0183065D01*
X0052338Y0184064D02*
X0050662Y0184064D01*
X0051076Y0185062D02*
X0051924Y0185062D01*
X0051722Y0186061D02*
X0051278Y0186061D01*
X0051278Y0187059D02*
X0051722Y0187059D01*
X0051974Y0188058D02*
X0051026Y0188058D01*
X0050612Y0189056D02*
X0052388Y0189056D01*
X0053298Y0190055D02*
X0049702Y0190055D01*
X0047991Y0191053D02*
X0055009Y0191053D01*
X0054754Y0192052D02*
X0048246Y0192052D01*
X0049807Y0193050D02*
X0053193Y0193050D01*
X0052344Y0194049D02*
X0050656Y0194049D01*
X0051070Y0195047D02*
X0051930Y0195047D01*
X0051722Y0196046D02*
X0051278Y0196046D01*
X0051278Y0197044D02*
X0051722Y0197044D01*
X0051968Y0198043D02*
X0051170Y0198043D01*
X0052169Y0199041D02*
X0052382Y0199041D01*
X0060317Y0199439D02*
X0060550Y0199206D01*
X0061278Y0197450D01*
X0061278Y0195550D01*
X0060951Y0194762D01*
X0061917Y0193797D01*
X0142559Y0193797D01*
X0142414Y0193996D01*
X0142072Y0194666D01*
X0141840Y0195381D01*
X0141742Y0196000D01*
X0146000Y0196000D01*
X0146000Y0197000D01*
X0141742Y0197000D01*
X0141840Y0197619D01*
X0142072Y0198334D01*
X0142414Y0199004D01*
X0142730Y0199439D01*
X0060317Y0199439D01*
X0060618Y0199041D02*
X0142441Y0199041D01*
X0141978Y0198043D02*
X0061032Y0198043D01*
X0061278Y0197044D02*
X0141749Y0197044D01*
X0141949Y0195047D02*
X0061070Y0195047D01*
X0061278Y0196046D02*
X0146000Y0196046D01*
X0147000Y0196046D02*
X0151722Y0196046D01*
X0151258Y0196000D02*
X0147000Y0196000D01*
X0147000Y0197000D01*
X0151258Y0197000D01*
X0151160Y0197619D01*
X0150928Y0198334D01*
X0150586Y0199004D01*
X0150270Y0199439D01*
X0152683Y0199439D01*
X0152450Y0199206D01*
X0151722Y0197450D01*
X0151722Y0195550D01*
X0152448Y0193797D01*
X0150441Y0193797D01*
X0150586Y0193996D01*
X0150928Y0194666D01*
X0151160Y0195381D01*
X0151258Y0196000D01*
X0151051Y0195047D02*
X0151930Y0195047D01*
X0152344Y0194049D02*
X0150613Y0194049D01*
X0151251Y0197044D02*
X0151722Y0197044D01*
X0151968Y0198043D02*
X0151022Y0198043D01*
X0150559Y0199041D02*
X0152382Y0199041D01*
X0152604Y0203639D02*
X0150396Y0203639D01*
X0150550Y0203794D01*
X0151278Y0205550D01*
X0151278Y0207450D01*
X0150550Y0209206D01*
X0150475Y0209282D01*
X0152525Y0209282D01*
X0152450Y0209206D01*
X0151722Y0207450D01*
X0151722Y0205550D01*
X0152450Y0203794D01*
X0152604Y0203639D01*
X0152350Y0204034D02*
X0150650Y0204034D01*
X0151063Y0205033D02*
X0151937Y0205033D01*
X0151722Y0206031D02*
X0151278Y0206031D01*
X0151278Y0207030D02*
X0151722Y0207030D01*
X0151962Y0208028D02*
X0151038Y0208028D01*
X0150625Y0209027D02*
X0152375Y0209027D01*
X0152762Y0213482D02*
X0150238Y0213482D01*
X0150550Y0213794D01*
X0151278Y0215550D01*
X0151278Y0217450D01*
X0150584Y0219124D01*
X0152416Y0219124D01*
X0151722Y0217450D01*
X0151722Y0215550D01*
X0152450Y0213794D01*
X0152762Y0213482D01*
X0152356Y0214019D02*
X0150644Y0214019D01*
X0151057Y0215018D02*
X0151943Y0215018D01*
X0151722Y0216016D02*
X0151278Y0216016D01*
X0151278Y0217015D02*
X0151722Y0217015D01*
X0151956Y0218013D02*
X0151044Y0218013D01*
X0150631Y0219012D02*
X0152369Y0219012D01*
X0152363Y0224004D02*
X0150637Y0224004D01*
X0151051Y0225003D02*
X0151949Y0225003D01*
X0151722Y0226001D02*
X0151278Y0226001D01*
X0151278Y0227000D02*
X0151722Y0227000D01*
X0151949Y0227998D02*
X0151051Y0227998D01*
X0150637Y0228997D02*
X0152363Y0228997D01*
X0153239Y0229995D02*
X0149761Y0229995D01*
X0148135Y0230994D02*
X0154865Y0230994D01*
X0154898Y0231992D02*
X0148102Y0231992D01*
X0149747Y0232991D02*
X0153253Y0232991D01*
X0152369Y0233989D02*
X0150631Y0233989D01*
X0151045Y0234988D02*
X0151955Y0234988D01*
X0151722Y0235986D02*
X0151278Y0235986D01*
X0151278Y0236985D02*
X0151722Y0236985D01*
X0151943Y0237983D02*
X0151057Y0237983D01*
X0151048Y0238982D02*
X0150643Y0238982D01*
X0153992Y0241977D02*
X0154934Y0241977D01*
X0153268Y0242976D02*
X0152994Y0242976D01*
X0152375Y0243974D02*
X0150625Y0243974D01*
X0151039Y0244973D02*
X0151961Y0244973D01*
X0151722Y0245972D02*
X0151278Y0245972D01*
X0151278Y0246970D02*
X0151722Y0246970D01*
X0151904Y0247969D02*
X0151063Y0247969D01*
X0150906Y0248967D02*
X0150649Y0248967D01*
X0142424Y0249144D02*
X0141722Y0247450D01*
X0141722Y0245550D01*
X0142450Y0243794D01*
X0142742Y0243502D01*
X0060258Y0243502D01*
X0060550Y0243794D01*
X0061278Y0245550D01*
X0061278Y0247450D01*
X0060576Y0249144D01*
X0142424Y0249144D01*
X0142351Y0248967D02*
X0060649Y0248967D01*
X0061063Y0247969D02*
X0141937Y0247969D01*
X0141722Y0246970D02*
X0061278Y0246970D01*
X0061278Y0245972D02*
X0141722Y0245972D01*
X0141961Y0244973D02*
X0061039Y0244973D01*
X0060625Y0243974D02*
X0142375Y0243974D01*
X0142357Y0238982D02*
X0060643Y0238982D01*
X0061057Y0237983D02*
X0141943Y0237983D01*
X0141722Y0236985D02*
X0061278Y0236985D01*
X0061278Y0235986D02*
X0141722Y0235986D01*
X0141955Y0234988D02*
X0061045Y0234988D01*
X0060631Y0233989D02*
X0142369Y0233989D01*
X0143253Y0232991D02*
X0127054Y0232991D01*
X0128052Y0231992D02*
X0144898Y0231992D01*
X0144865Y0230994D02*
X0129051Y0230994D01*
X0130049Y0229995D02*
X0143239Y0229995D01*
X0142363Y0228997D02*
X0136750Y0228997D01*
X0132983Y0228997D02*
X0131048Y0228997D01*
X0132046Y0227998D02*
X0132183Y0227998D01*
X0129102Y0225003D02*
X0061051Y0225003D01*
X0061278Y0225550D02*
X0060550Y0223794D01*
X0060015Y0223258D01*
X0064378Y0218895D01*
X0067504Y0218895D01*
X0067398Y0219151D01*
X0067398Y0220345D01*
X0067854Y0221447D01*
X0068698Y0222291D01*
X0069801Y0222748D01*
X0070994Y0222748D01*
X0072097Y0222291D01*
X0072540Y0221848D01*
X0132257Y0221848D01*
X0131290Y0222815D01*
X0124646Y0229459D01*
X0060297Y0229459D01*
X0060550Y0229206D01*
X0061278Y0227450D01*
X0061278Y0225550D01*
X0061278Y0226001D02*
X0128104Y0226001D01*
X0127105Y0227000D02*
X0061278Y0227000D01*
X0061051Y0227998D02*
X0126107Y0227998D01*
X0125108Y0228997D02*
X0060637Y0228997D01*
X0060637Y0224004D02*
X0130101Y0224004D01*
X0131099Y0223006D02*
X0060267Y0223006D01*
X0061266Y0222007D02*
X0068414Y0222007D01*
X0067673Y0221009D02*
X0062264Y0221009D01*
X0063263Y0220010D02*
X0067398Y0220010D01*
X0067455Y0219012D02*
X0064261Y0219012D01*
X0061278Y0216056D02*
X0061391Y0215943D01*
X0061278Y0215943D01*
X0061278Y0216056D01*
X0061278Y0216016D02*
X0061317Y0216016D01*
X0060475Y0209282D02*
X0128583Y0209282D01*
X0132274Y0205591D01*
X0133504Y0204361D01*
X0140657Y0204361D01*
X0141759Y0205462D01*
X0142450Y0203794D01*
X0142604Y0203639D01*
X0060396Y0203639D01*
X0060550Y0203794D01*
X0061278Y0205550D01*
X0061278Y0207450D01*
X0060550Y0209206D01*
X0060475Y0209282D01*
X0060625Y0209027D02*
X0128838Y0209027D01*
X0129837Y0208028D02*
X0061038Y0208028D01*
X0061278Y0207030D02*
X0130835Y0207030D01*
X0131834Y0206031D02*
X0061278Y0206031D01*
X0061063Y0205033D02*
X0132832Y0205033D01*
X0135244Y0208561D02*
X0132062Y0211743D01*
X0133708Y0211743D01*
X0134151Y0211299D01*
X0135254Y0210843D01*
X0136447Y0210843D01*
X0137550Y0211299D01*
X0138394Y0212143D01*
X0138850Y0213246D01*
X0138850Y0214439D01*
X0138744Y0214695D01*
X0142076Y0214695D01*
X0142450Y0213794D01*
X0143300Y0212943D01*
X0142609Y0212252D01*
X0138918Y0208561D01*
X0135244Y0208561D01*
X0134778Y0209027D02*
X0139384Y0209027D01*
X0140382Y0210025D02*
X0133779Y0210025D01*
X0132781Y0211024D02*
X0134816Y0211024D01*
X0136884Y0211024D02*
X0141381Y0211024D01*
X0142379Y0212022D02*
X0138273Y0212022D01*
X0138757Y0213021D02*
X0143223Y0213021D01*
X0142356Y0214019D02*
X0138850Y0214019D01*
X0132098Y0222007D02*
X0072381Y0222007D01*
X0052525Y0209282D02*
X0052450Y0209206D01*
X0051749Y0207514D01*
X0051565Y0207330D01*
X0051278Y0207043D01*
X0051278Y0207450D01*
X0050975Y0208182D01*
X0052075Y0209282D01*
X0052525Y0209282D01*
X0052375Y0209027D02*
X0051819Y0209027D01*
X0051962Y0208028D02*
X0051038Y0208028D01*
X0060650Y0204034D02*
X0142350Y0204034D01*
X0141937Y0205033D02*
X0141329Y0205033D01*
X0142387Y0194049D02*
X0061665Y0194049D01*
X0058721Y0191053D02*
X0057991Y0191053D01*
X0059702Y0190055D02*
X0059719Y0190055D01*
X0060612Y0189056D02*
X0142388Y0189056D01*
X0141974Y0188058D02*
X0061026Y0188058D01*
X0061278Y0187059D02*
X0141722Y0187059D01*
X0141722Y0186061D02*
X0061278Y0186061D01*
X0061233Y0185062D02*
X0141924Y0185062D01*
X0142338Y0184064D02*
X0062232Y0184064D01*
X0063230Y0183065D02*
X0143178Y0183065D01*
X0144718Y0182067D02*
X0064894Y0182067D01*
X0066061Y0181068D02*
X0145044Y0181068D01*
X0143313Y0180070D02*
X0066475Y0180070D01*
X0066508Y0179071D02*
X0142394Y0179071D01*
X0141980Y0178073D02*
X0066208Y0178073D01*
X0065431Y0177074D02*
X0141722Y0177074D01*
X0141722Y0176076D02*
X0061278Y0176076D01*
X0061278Y0177074D02*
X0061585Y0177074D01*
X0061082Y0175077D02*
X0141851Y0175077D01*
X0140853Y0174079D02*
X0060668Y0174079D01*
X0061278Y0169420D02*
X0139639Y0169420D01*
X0133996Y0163777D01*
X0061278Y0163777D01*
X0061278Y0169420D01*
X0061278Y0169086D02*
X0139305Y0169086D01*
X0138307Y0168088D02*
X0061278Y0168088D01*
X0061278Y0167089D02*
X0137308Y0167089D01*
X0136310Y0166091D02*
X0061278Y0166091D01*
X0061278Y0165092D02*
X0135311Y0165092D01*
X0134313Y0164094D02*
X0061278Y0164094D01*
X0051722Y0164094D02*
X0050674Y0164094D01*
X0050550Y0163794D02*
X0050534Y0163777D01*
X0051722Y0163777D01*
X0051722Y0169420D01*
X0050337Y0169420D01*
X0050550Y0169206D01*
X0051278Y0167450D01*
X0051278Y0165550D01*
X0050550Y0163794D01*
X0051088Y0165092D02*
X0051722Y0165092D01*
X0051722Y0166091D02*
X0051278Y0166091D01*
X0051278Y0167089D02*
X0051722Y0167089D01*
X0051722Y0168088D02*
X0051014Y0168088D01*
X0050600Y0169086D02*
X0051722Y0169086D01*
X0052332Y0174079D02*
X0050668Y0174079D01*
X0051082Y0175077D02*
X0051918Y0175077D01*
X0051722Y0176076D02*
X0051278Y0176076D01*
X0051278Y0177074D02*
X0051722Y0177074D01*
X0051980Y0178073D02*
X0051020Y0178073D01*
X0050606Y0179071D02*
X0052394Y0179071D01*
X0053313Y0180070D02*
X0049687Y0180070D01*
X0057956Y0181068D02*
X0058439Y0181068D01*
X0017444Y0182067D02*
X0015903Y0182067D01*
X0006782Y0182067D02*
X0006000Y0182067D01*
X0006000Y0183065D02*
X0006782Y0183065D01*
X0006782Y0184064D02*
X0006000Y0184064D01*
X0006000Y0185062D02*
X0006782Y0185062D01*
X0006782Y0186061D02*
X0006000Y0186061D01*
X0006000Y0187059D02*
X0006782Y0187059D01*
X0006782Y0188058D02*
X0006000Y0188058D01*
X0006000Y0189056D02*
X0006782Y0189056D01*
X0006782Y0190055D02*
X0006000Y0190055D01*
X0006000Y0191053D02*
X0006782Y0191053D01*
X0006782Y0192052D02*
X0006000Y0192052D01*
X0006000Y0193050D02*
X0006782Y0193050D01*
X0006782Y0194049D02*
X0006000Y0194049D01*
X0006000Y0195047D02*
X0006782Y0195047D01*
X0006782Y0196046D02*
X0006000Y0196046D01*
X0006000Y0197044D02*
X0006782Y0197044D01*
X0006782Y0198043D02*
X0006000Y0198043D01*
X0006000Y0199041D02*
X0006782Y0199041D01*
X0006782Y0200040D02*
X0006000Y0200040D01*
X0006000Y0201039D02*
X0006782Y0201039D01*
X0006782Y0202037D02*
X0006000Y0202037D01*
X0006000Y0203036D02*
X0006782Y0203036D01*
X0006782Y0204034D02*
X0006000Y0204034D01*
X0006000Y0205033D02*
X0006782Y0205033D01*
X0006782Y0206031D02*
X0006000Y0206031D01*
X0006000Y0207030D02*
X0006782Y0207030D01*
X0006782Y0208028D02*
X0006000Y0208028D01*
X0006000Y0209027D02*
X0006782Y0209027D01*
X0006782Y0210025D02*
X0006000Y0210025D01*
X0006000Y0211024D02*
X0006782Y0211024D01*
X0006782Y0212022D02*
X0006000Y0212022D01*
X0006000Y0213021D02*
X0006782Y0213021D01*
X0006782Y0214019D02*
X0006000Y0214019D01*
X0006000Y0215018D02*
X0006782Y0215018D01*
X0006782Y0216016D02*
X0006000Y0216016D01*
X0006000Y0217015D02*
X0006782Y0217015D01*
X0006782Y0218013D02*
X0006000Y0218013D01*
X0006000Y0219012D02*
X0006782Y0219012D01*
X0006782Y0220010D02*
X0006000Y0220010D01*
X0006000Y0221009D02*
X0006782Y0221009D01*
X0006782Y0222007D02*
X0006000Y0222007D01*
X0006000Y0223006D02*
X0006782Y0223006D01*
X0006782Y0224004D02*
X0006000Y0224004D01*
X0006000Y0225003D02*
X0006782Y0225003D01*
X0006782Y0226001D02*
X0006000Y0226001D01*
X0006000Y0227000D02*
X0006782Y0227000D01*
X0006782Y0227998D02*
X0006000Y0227998D01*
X0006000Y0228997D02*
X0006782Y0228997D01*
X0006782Y0229995D02*
X0006000Y0229995D01*
X0006000Y0230994D02*
X0006782Y0230994D01*
X0006782Y0231992D02*
X0006000Y0231992D01*
X0006000Y0232991D02*
X0006782Y0232991D01*
X0006782Y0233989D02*
X0006000Y0233989D01*
X0006000Y0234988D02*
X0006782Y0234988D01*
X0006782Y0235986D02*
X0006000Y0235986D01*
X0006000Y0236985D02*
X0006782Y0236985D01*
X0006782Y0237983D02*
X0006000Y0237983D01*
X0006000Y0238982D02*
X0006782Y0238982D01*
X0006782Y0239980D02*
X0006000Y0239980D01*
X0006000Y0240979D02*
X0006782Y0240979D01*
X0006782Y0241977D02*
X0006000Y0241977D01*
X0006000Y0242976D02*
X0006782Y0242976D01*
X0006782Y0243974D02*
X0006000Y0243974D01*
X0006000Y0244973D02*
X0006782Y0244973D01*
X0006782Y0245972D02*
X0006000Y0245972D01*
X0006000Y0246970D02*
X0006782Y0246970D01*
X0006782Y0247969D02*
X0006000Y0247969D01*
X0006000Y0248967D02*
X0006782Y0248967D01*
X0006782Y0249966D02*
X0006000Y0249966D01*
X0006000Y0250964D02*
X0006782Y0250964D01*
X0006782Y0251963D02*
X0006000Y0251963D01*
X0006000Y0252961D02*
X0007629Y0252961D01*
X0006000Y0253960D02*
X0042440Y0253960D01*
X0042424Y0249144D02*
X0041722Y0247450D01*
X0041722Y0245550D01*
X0042450Y0243794D01*
X0043094Y0243150D01*
X0042215Y0242271D01*
X0039016Y0239072D01*
X0028299Y0239072D01*
X0028349Y0239141D01*
X0028670Y0239773D01*
X0028889Y0240446D01*
X0028977Y0241000D01*
X0022000Y0241000D01*
X0022000Y0242000D01*
X0021000Y0242000D01*
X0021000Y0246000D01*
X0018146Y0246000D01*
X0017446Y0245889D01*
X0016773Y0245670D01*
X0016141Y0245349D01*
X0015568Y0244932D01*
X0015068Y0244432D01*
X0014651Y0243859D01*
X0014330Y0243227D01*
X0014111Y0242554D01*
X0014023Y0242000D01*
X0021000Y0242000D01*
X0021000Y0241000D01*
X0014023Y0241000D01*
X0014111Y0240446D01*
X0014330Y0239773D01*
X0014651Y0239141D01*
X0014701Y0239072D01*
X0010982Y0239072D01*
X0010982Y0249144D01*
X0042424Y0249144D01*
X0042351Y0248967D02*
X0010982Y0248967D01*
X0010982Y0247969D02*
X0041937Y0247969D01*
X0041722Y0246970D02*
X0010982Y0246970D01*
X0010982Y0245972D02*
X0017966Y0245972D01*
X0015624Y0244973D02*
X0010982Y0244973D01*
X0010982Y0243974D02*
X0014736Y0243974D01*
X0014248Y0242976D02*
X0010982Y0242976D01*
X0010982Y0241977D02*
X0021000Y0241977D01*
X0021000Y0242976D02*
X0022000Y0242976D01*
X0022000Y0242000D02*
X0022000Y0246000D01*
X0024854Y0246000D01*
X0025554Y0245889D01*
X0026227Y0245670D01*
X0026859Y0245349D01*
X0027432Y0244932D01*
X0027932Y0244432D01*
X0028349Y0243859D01*
X0028670Y0243227D01*
X0028889Y0242554D01*
X0028977Y0242000D01*
X0022000Y0242000D01*
X0022000Y0241977D02*
X0041921Y0241977D01*
X0040923Y0240979D02*
X0028974Y0240979D01*
X0028738Y0239980D02*
X0039924Y0239980D01*
X0042920Y0242976D02*
X0028752Y0242976D01*
X0028264Y0243974D02*
X0042375Y0243974D01*
X0041961Y0244973D02*
X0027376Y0244973D01*
X0025034Y0245972D02*
X0041722Y0245972D01*
X0041722Y0235839D02*
X0041722Y0235550D01*
X0042450Y0233794D01*
X0042584Y0233659D01*
X0028476Y0233659D01*
X0028315Y0234049D01*
X0027491Y0234872D01*
X0040756Y0234872D01*
X0041722Y0235839D01*
X0041955Y0234988D02*
X0040871Y0234988D01*
X0042369Y0233989D02*
X0028340Y0233989D01*
X0028334Y0228997D02*
X0042363Y0228997D01*
X0041949Y0227998D02*
X0027362Y0227998D01*
X0027361Y0225003D02*
X0041949Y0225003D01*
X0041722Y0226001D02*
X0013443Y0226001D01*
X0013443Y0225003D02*
X0015639Y0225003D01*
X0014667Y0224004D02*
X0013443Y0224004D01*
X0013443Y0223006D02*
X0014253Y0223006D01*
X0014000Y0222007D02*
X0013443Y0222007D01*
X0013443Y0221009D02*
X0014000Y0221009D01*
X0014246Y0220010D02*
X0013443Y0220010D01*
X0013443Y0219012D02*
X0014660Y0219012D01*
X0015623Y0218013D02*
X0013443Y0218013D01*
X0013443Y0217015D02*
X0017569Y0217015D01*
X0013443Y0227000D02*
X0041722Y0227000D01*
X0042363Y0224004D02*
X0028333Y0224004D01*
X0015638Y0227998D02*
X0013443Y0227998D01*
X0013443Y0228997D02*
X0014666Y0228997D01*
X0014252Y0229995D02*
X0013443Y0229995D01*
X0013443Y0230994D02*
X0014000Y0230994D01*
X0014000Y0231992D02*
X0013443Y0231992D01*
X0013443Y0232991D02*
X0014247Y0232991D01*
X0014660Y0233989D02*
X0013443Y0233989D01*
X0014262Y0239980D02*
X0010982Y0239980D01*
X0010982Y0240979D02*
X0014026Y0240979D01*
X0021000Y0243974D02*
X0022000Y0243974D01*
X0022000Y0244973D02*
X0021000Y0244973D01*
X0021000Y0245972D02*
X0022000Y0245972D01*
X0016353Y0254958D02*
X0006000Y0254958D01*
X0006000Y0255957D02*
X0013646Y0255957D01*
X0012093Y0256955D02*
X0006000Y0256955D01*
X0006000Y0257954D02*
X0010539Y0257954D01*
X0009453Y0258952D02*
X0006000Y0258952D01*
X0006000Y0259951D02*
X0008587Y0259951D01*
X0007722Y0260949D02*
X0006000Y0260949D01*
X0006000Y0261948D02*
X0006857Y0261948D01*
X0006364Y0262946D02*
X0006000Y0262946D01*
X0006000Y0279257D02*
X0006000Y0287000D01*
X0013579Y0287000D01*
X0010040Y0284726D01*
X0010040Y0284726D01*
X0010040Y0284726D01*
X0006778Y0280961D01*
X0006000Y0279257D01*
X0006000Y0279921D02*
X0006303Y0279921D01*
X0006000Y0280919D02*
X0006759Y0280919D01*
X0006778Y0280961D02*
X0006778Y0280961D01*
X0006000Y0281918D02*
X0007607Y0281918D01*
X0008472Y0282916D02*
X0006000Y0282916D01*
X0006000Y0283915D02*
X0009338Y0283915D01*
X0010332Y0284913D02*
X0006000Y0284913D01*
X0006000Y0285912D02*
X0011886Y0285912D01*
X0013440Y0286910D02*
X0006000Y0286910D01*
X0029560Y0286910D02*
X0044500Y0286910D01*
X0044500Y0285912D02*
X0031114Y0285912D01*
X0032668Y0284913D02*
X0044500Y0284913D01*
X0044500Y0283915D02*
X0033663Y0283915D01*
X0034528Y0282916D02*
X0044500Y0282916D01*
X0044500Y0281918D02*
X0035393Y0281918D01*
X0036241Y0280919D02*
X0044500Y0280919D01*
X0044500Y0279921D02*
X0036697Y0279921D01*
X0037153Y0278922D02*
X0044500Y0278922D01*
X0044500Y0277924D02*
X0037609Y0277924D01*
X0038065Y0276925D02*
X0044500Y0276925D01*
X0044500Y0275927D02*
X0038364Y0275927D01*
X0038507Y0274928D02*
X0044500Y0274928D01*
X0044500Y0273930D02*
X0038651Y0273930D01*
X0038794Y0272931D02*
X0044500Y0272931D01*
X0044500Y0271933D02*
X0038938Y0271933D01*
X0038919Y0270934D02*
X0044500Y0270934D01*
X0044500Y0269936D02*
X0038775Y0269936D01*
X0038632Y0268937D02*
X0044500Y0268937D01*
X0044500Y0267939D02*
X0038488Y0267939D01*
X0038344Y0266940D02*
X0044500Y0266940D01*
X0044500Y0265942D02*
X0038004Y0265942D01*
X0037548Y0264943D02*
X0044500Y0264943D01*
X0044500Y0263945D02*
X0037092Y0263945D01*
X0036636Y0262946D02*
X0044725Y0262946D01*
X0058243Y0260949D02*
X0144757Y0260949D01*
X0143194Y0259951D02*
X0059806Y0259951D01*
X0060655Y0258952D02*
X0142345Y0258952D01*
X0141931Y0257954D02*
X0061069Y0257954D01*
X0061278Y0256955D02*
X0141722Y0256955D01*
X0141722Y0255957D02*
X0061278Y0255957D01*
X0061033Y0254958D02*
X0141967Y0254958D01*
X0142381Y0253960D02*
X0060619Y0253960D01*
X0148243Y0260949D02*
X0154733Y0260949D01*
X0153194Y0259951D02*
X0149806Y0259951D01*
X0150655Y0258952D02*
X0152387Y0258952D01*
X0151949Y0257954D02*
X0151069Y0257954D01*
X0160644Y0214019D02*
X0183591Y0214019D01*
X0183176Y0209027D02*
X0160625Y0209027D01*
X0161038Y0208028D02*
X0357381Y0208028D01*
X0356383Y0207030D02*
X0161278Y0207030D01*
X0161278Y0206031D02*
X0355384Y0206031D01*
X0354386Y0205033D02*
X0161063Y0205033D01*
X0160650Y0204034D02*
X0353387Y0204034D01*
X0355333Y0200040D02*
X0363176Y0200040D01*
X0362182Y0199041D02*
X0160618Y0199041D01*
X0161032Y0198043D02*
X0361768Y0198043D01*
X0361500Y0197044D02*
X0161278Y0197044D01*
X0161278Y0196046D02*
X0361500Y0196046D01*
X0361731Y0195047D02*
X0161070Y0195047D01*
X0160656Y0194049D02*
X0362144Y0194049D01*
X0362241Y0189105D02*
X0223334Y0189105D01*
X0215231Y0181002D01*
X0360374Y0181002D01*
X0362754Y0183382D01*
X0362185Y0183951D01*
X0361500Y0185605D01*
X0361500Y0187395D01*
X0362185Y0189049D01*
X0362241Y0189105D01*
X0362192Y0189056D02*
X0223286Y0189056D01*
X0222288Y0188058D02*
X0361775Y0188058D01*
X0361500Y0187059D02*
X0221289Y0187059D01*
X0220291Y0186061D02*
X0361500Y0186061D01*
X0361725Y0185062D02*
X0219292Y0185062D01*
X0218293Y0184064D02*
X0362138Y0184064D01*
X0362438Y0183065D02*
X0217295Y0183065D01*
X0216296Y0182067D02*
X0361439Y0182067D01*
X0360441Y0181068D02*
X0215298Y0181068D01*
X0212354Y0184064D02*
X0176965Y0184064D01*
X0175967Y0185062D02*
X0213352Y0185062D01*
X0214351Y0186061D02*
X0174968Y0186061D01*
X0173970Y0187059D02*
X0215349Y0187059D01*
X0216348Y0188058D02*
X0172971Y0188058D01*
X0171973Y0189056D02*
X0217346Y0189056D01*
X0218345Y0190055D02*
X0170974Y0190055D01*
X0169975Y0191053D02*
X0219343Y0191053D01*
X0220342Y0192052D02*
X0168977Y0192052D01*
X0167978Y0193050D02*
X0221340Y0193050D01*
X0211355Y0183065D02*
X0177964Y0183065D01*
X0178962Y0182067D02*
X0210357Y0182067D01*
X0209358Y0181068D02*
X0179961Y0181068D01*
X0177000Y0178073D02*
X0161020Y0178073D01*
X0161278Y0177074D02*
X0177000Y0177074D01*
X0177000Y0176076D02*
X0161278Y0176076D01*
X0161082Y0175077D02*
X0177000Y0175077D01*
X0177557Y0174079D02*
X0160668Y0174079D01*
X0159837Y0173080D02*
X0178556Y0173080D01*
X0179554Y0172082D02*
X0158318Y0172082D01*
X0160399Y0171278D02*
X0152601Y0171278D01*
X0151722Y0170399D01*
X0151722Y0162601D01*
X0152601Y0161722D01*
X0160399Y0161722D01*
X0161278Y0162601D01*
X0161278Y0170399D01*
X0160399Y0171278D01*
X0160593Y0171083D02*
X0199373Y0171083D01*
X0198375Y0170085D02*
X0194279Y0170085D01*
X0195278Y0169086D02*
X0197376Y0169086D01*
X0196378Y0168088D02*
X0196000Y0168088D01*
X0193364Y0172000D02*
X0189636Y0172000D01*
X0187000Y0174636D01*
X0187000Y0178364D01*
X0189636Y0181000D01*
X0193364Y0181000D01*
X0196000Y0178364D01*
X0196000Y0174636D01*
X0193364Y0172000D01*
X0193446Y0172082D02*
X0200372Y0172082D01*
X0201370Y0173080D02*
X0194444Y0173080D01*
X0195443Y0174079D02*
X0202369Y0174079D01*
X0203367Y0175077D02*
X0196000Y0175077D01*
X0196000Y0176076D02*
X0204366Y0176076D01*
X0205364Y0177074D02*
X0196000Y0177074D01*
X0196000Y0178073D02*
X0206363Y0178073D01*
X0207361Y0179071D02*
X0195293Y0179071D01*
X0194294Y0180070D02*
X0208360Y0180070D01*
X0214242Y0176076D02*
X0218145Y0176076D01*
X0217147Y0175077D02*
X0213244Y0175077D01*
X0212245Y0174079D02*
X0216148Y0174079D01*
X0215150Y0173080D02*
X0211247Y0173080D01*
X0210248Y0172082D02*
X0214151Y0172082D01*
X0213153Y0171083D02*
X0209250Y0171083D01*
X0208251Y0170085D02*
X0212154Y0170085D01*
X0211156Y0169086D02*
X0207253Y0169086D01*
X0206254Y0168088D02*
X0210157Y0168088D01*
X0209159Y0167089D02*
X0205256Y0167089D01*
X0204257Y0166091D02*
X0208160Y0166091D01*
X0207162Y0165092D02*
X0203259Y0165092D01*
X0202260Y0164094D02*
X0206163Y0164094D01*
X0205165Y0163095D02*
X0201262Y0163095D01*
X0200263Y0162097D02*
X0204166Y0162097D01*
X0203168Y0161098D02*
X0199265Y0161098D01*
X0198266Y0160100D02*
X0202169Y0160100D01*
X0201171Y0159101D02*
X0197268Y0159101D01*
X0196269Y0158103D02*
X0200172Y0158103D01*
X0199174Y0157104D02*
X0196000Y0157104D01*
X0196000Y0156105D02*
X0198175Y0156105D01*
X0197177Y0155107D02*
X0196000Y0155107D01*
X0196178Y0154108D02*
X0195472Y0154108D01*
X0195180Y0153110D02*
X0194474Y0153110D01*
X0194181Y0152111D02*
X0193475Y0152111D01*
X0193182Y0151113D02*
X0189280Y0151113D01*
X0188750Y0150114D02*
X0188281Y0150114D01*
X0187752Y0149116D02*
X0185248Y0149116D01*
X0186000Y0148117D02*
X0187000Y0148117D01*
X0187000Y0147119D02*
X0186000Y0147119D01*
X0186162Y0153935D02*
X0185299Y0153935D01*
X0186000Y0154636D01*
X0186000Y0158168D01*
X0186917Y0159085D01*
X0187721Y0159085D01*
X0187000Y0158364D01*
X0187000Y0154773D01*
X0186162Y0153935D01*
X0186335Y0154108D02*
X0185472Y0154108D01*
X0186000Y0155107D02*
X0187000Y0155107D01*
X0187000Y0156105D02*
X0186000Y0156105D01*
X0186000Y0157104D02*
X0187000Y0157104D01*
X0187000Y0158103D02*
X0186000Y0158103D01*
X0182990Y0161098D02*
X0137257Y0161098D01*
X0138255Y0162097D02*
X0144646Y0162097D01*
X0143148Y0163095D02*
X0139254Y0163095D01*
X0140252Y0164094D02*
X0142326Y0164094D01*
X0141912Y0165092D02*
X0141251Y0165092D01*
X0136258Y0160100D02*
X0178736Y0160100D01*
X0179636Y0162000D02*
X0183364Y0162000D01*
X0186000Y0164636D01*
X0186000Y0168364D01*
X0183364Y0171000D01*
X0179636Y0171000D01*
X0177000Y0168364D01*
X0177000Y0164636D01*
X0179636Y0162000D01*
X0179539Y0162097D02*
X0160773Y0162097D01*
X0161278Y0163095D02*
X0178541Y0163095D01*
X0177542Y0164094D02*
X0161278Y0164094D01*
X0161278Y0165092D02*
X0177000Y0165092D01*
X0177000Y0166091D02*
X0161278Y0166091D01*
X0161278Y0167089D02*
X0177000Y0167089D01*
X0177000Y0168088D02*
X0161278Y0168088D01*
X0161278Y0169086D02*
X0177722Y0169086D01*
X0178721Y0170085D02*
X0161278Y0170085D01*
X0154682Y0172082D02*
X0151685Y0172082D01*
X0152407Y0171083D02*
X0150687Y0171083D01*
X0149688Y0170085D02*
X0151722Y0170085D01*
X0151722Y0169086D02*
X0150600Y0169086D01*
X0151014Y0168088D02*
X0151722Y0168088D01*
X0151722Y0167089D02*
X0151278Y0167089D01*
X0151278Y0166091D02*
X0151722Y0166091D01*
X0151722Y0165092D02*
X0151088Y0165092D01*
X0150674Y0164094D02*
X0151722Y0164094D01*
X0151722Y0163095D02*
X0149852Y0163095D01*
X0148354Y0162097D02*
X0152227Y0162097D01*
X0152684Y0173080D02*
X0153163Y0173080D01*
X0153698Y0181068D02*
X0155044Y0181068D01*
X0154718Y0182067D02*
X0153698Y0182067D01*
X0149498Y0182067D02*
X0148282Y0182067D01*
X0147956Y0181068D02*
X0149498Y0181068D01*
X0157956Y0181068D02*
X0174021Y0181068D01*
X0175019Y0180070D02*
X0159687Y0180070D01*
X0160606Y0179071D02*
X0176018Y0179071D01*
X0173022Y0182067D02*
X0158282Y0182067D01*
X0159822Y0183065D02*
X0172024Y0183065D01*
X0171025Y0184064D02*
X0160662Y0184064D01*
X0161076Y0185062D02*
X0170027Y0185062D01*
X0169028Y0186061D02*
X0161278Y0186061D01*
X0161278Y0187059D02*
X0168030Y0187059D01*
X0167031Y0188058D02*
X0161026Y0188058D01*
X0160612Y0189056D02*
X0166033Y0189056D01*
X0152840Y0189597D02*
X0152450Y0189206D01*
X0152109Y0188383D01*
X0150891Y0188383D01*
X0150550Y0189206D01*
X0150160Y0189597D01*
X0152840Y0189597D01*
X0152388Y0189056D02*
X0150612Y0189056D01*
X0184294Y0180070D02*
X0188706Y0180070D01*
X0187707Y0179071D02*
X0185293Y0179071D01*
X0186000Y0178073D02*
X0187000Y0178073D01*
X0187000Y0177074D02*
X0186000Y0177074D01*
X0186000Y0176076D02*
X0187000Y0176076D01*
X0187000Y0175077D02*
X0186000Y0175077D01*
X0185443Y0174079D02*
X0187557Y0174079D01*
X0188556Y0173080D02*
X0184444Y0173080D01*
X0183446Y0172082D02*
X0189554Y0172082D01*
X0188721Y0170085D02*
X0184279Y0170085D01*
X0185278Y0169086D02*
X0187722Y0169086D01*
X0187000Y0168088D02*
X0186000Y0168088D01*
X0186000Y0167089D02*
X0187000Y0167089D01*
X0187000Y0166091D02*
X0186000Y0166091D01*
X0186000Y0165092D02*
X0187000Y0165092D01*
X0187542Y0164094D02*
X0185458Y0164094D01*
X0184987Y0163095D02*
X0184459Y0163095D01*
X0183989Y0162097D02*
X0183461Y0162097D01*
X0200121Y0152111D02*
X0364944Y0152111D01*
X0363026Y0153110D02*
X0201119Y0153110D01*
X0202118Y0154108D02*
X0362175Y0154108D01*
X0361721Y0155107D02*
X0203116Y0155107D01*
X0210106Y0162097D02*
X0364872Y0162097D01*
X0363041Y0163095D02*
X0211104Y0163095D01*
X0212103Y0164094D02*
X0362126Y0164094D01*
X0361712Y0165092D02*
X0213101Y0165092D01*
X0214100Y0166091D02*
X0361500Y0166091D01*
X0361500Y0167089D02*
X0215098Y0167089D01*
X0216097Y0168088D02*
X0361787Y0168088D01*
X0362222Y0169086D02*
X0217095Y0169086D01*
X0218094Y0170085D02*
X0363221Y0170085D01*
X0364908Y0172082D02*
X0220091Y0172082D01*
X0221089Y0173080D02*
X0363056Y0173080D01*
X0362132Y0174079D02*
X0222088Y0174079D01*
X0219092Y0171083D02*
X0370633Y0171083D01*
X0374400Y0180377D02*
X0372895Y0181000D01*
X0366312Y0181000D01*
X0367312Y0182000D01*
X0372895Y0182000D01*
X0374400Y0182623D01*
X0374400Y0180377D01*
X0374400Y0181068D02*
X0366381Y0181068D01*
X0373056Y0182067D02*
X0374400Y0182067D01*
X0369500Y0160100D02*
X0368500Y0160100D01*
X0368500Y0159101D02*
X0369500Y0159101D01*
X0369500Y0158103D02*
X0368500Y0158103D01*
X0368500Y0157104D02*
X0369500Y0157104D01*
X0369500Y0154108D02*
X0368500Y0154108D01*
X0368500Y0153110D02*
X0369500Y0153110D01*
X0369500Y0152111D02*
X0368500Y0152111D01*
X0374750Y0150114D02*
X0386962Y0150114D01*
X0386961Y0149116D02*
X0375748Y0149116D01*
X0376201Y0148117D02*
X0386961Y0148117D01*
X0386961Y0147119D02*
X0376500Y0147119D01*
X0376500Y0146120D02*
X0386961Y0146120D01*
X0386960Y0145122D02*
X0376300Y0145122D01*
X0375886Y0144123D02*
X0386960Y0144123D01*
X0386960Y0143125D02*
X0374989Y0143125D01*
X0386959Y0140129D02*
X0194235Y0140129D01*
X0195233Y0139131D02*
X0386959Y0139131D01*
X0386958Y0138132D02*
X0355687Y0138132D01*
X0356701Y0137134D02*
X0386958Y0137134D01*
X0386958Y0136135D02*
X0357700Y0136135D01*
X0358698Y0135137D02*
X0386958Y0135137D01*
X0386957Y0134138D02*
X0359697Y0134138D01*
X0360695Y0133140D02*
X0386957Y0133140D01*
X0386957Y0132141D02*
X0361694Y0132141D01*
X0362692Y0131143D02*
X0386956Y0131143D01*
X0386956Y0130144D02*
X0363691Y0130144D01*
X0364689Y0129146D02*
X0386956Y0129146D01*
X0386956Y0128147D02*
X0365688Y0128147D01*
X0366686Y0127149D02*
X0386955Y0127149D01*
X0386955Y0126150D02*
X0367685Y0126150D01*
X0362365Y0124153D02*
X0231262Y0124153D01*
X0231262Y0123155D02*
X0361880Y0123155D01*
X0361563Y0122156D02*
X0231262Y0122156D01*
X0231262Y0121158D02*
X0361563Y0121158D01*
X0361750Y0120159D02*
X0231262Y0120159D01*
X0231262Y0119161D02*
X0362164Y0119161D01*
X0363050Y0118162D02*
X0231262Y0118162D01*
X0231262Y0117164D02*
X0364824Y0117164D01*
X0364985Y0115858D02*
X0364316Y0115641D01*
X0363689Y0115322D01*
X0363120Y0114908D01*
X0362623Y0114411D01*
X0362210Y0113842D01*
X0361890Y0113215D01*
X0361673Y0112546D01*
X0361584Y0111984D01*
X0368516Y0111984D01*
X0368516Y0111016D01*
X0369484Y0111016D01*
X0369484Y0107031D01*
X0372320Y0107031D01*
X0373015Y0107142D01*
X0373684Y0107359D01*
X0374311Y0107678D01*
X0374880Y0108092D01*
X0375377Y0108589D01*
X0375790Y0109158D01*
X0376110Y0109785D01*
X0376327Y0110454D01*
X0376416Y0111016D01*
X0369484Y0111016D01*
X0369484Y0111984D01*
X0368516Y0111984D01*
X0368516Y0115968D01*
X0365680Y0115968D01*
X0364985Y0115858D01*
X0363476Y0115167D02*
X0231262Y0115167D01*
X0231262Y0116165D02*
X0386952Y0116165D01*
X0386952Y0115167D02*
X0374524Y0115167D01*
X0374311Y0115322D02*
X0373684Y0115641D01*
X0373015Y0115858D01*
X0372320Y0115968D01*
X0369484Y0115968D01*
X0369484Y0111984D01*
X0376416Y0111984D01*
X0376327Y0112546D01*
X0376110Y0113215D01*
X0375790Y0113842D01*
X0375377Y0114411D01*
X0374880Y0114908D01*
X0374311Y0115322D01*
X0375553Y0114168D02*
X0386952Y0114168D01*
X0386952Y0113170D02*
X0376125Y0113170D01*
X0376386Y0112171D02*
X0386951Y0112171D01*
X0386951Y0111172D02*
X0369484Y0111172D01*
X0368516Y0111172D02*
X0231262Y0111172D01*
X0231262Y0110174D02*
X0361764Y0110174D01*
X0361673Y0110454D02*
X0361890Y0109785D01*
X0362210Y0109158D01*
X0362623Y0108589D01*
X0363120Y0108092D01*
X0363689Y0107678D01*
X0364316Y0107359D01*
X0364985Y0107142D01*
X0365680Y0107031D01*
X0368516Y0107031D01*
X0368516Y0111016D01*
X0361584Y0111016D01*
X0361673Y0110454D01*
X0362201Y0109175D02*
X0231262Y0109175D01*
X0231262Y0108177D02*
X0363035Y0108177D01*
X0364871Y0107178D02*
X0231262Y0107178D01*
X0231462Y0106180D02*
X0386950Y0106180D01*
X0386950Y0107178D02*
X0373129Y0107178D01*
X0374965Y0108177D02*
X0386950Y0108177D01*
X0386951Y0109175D02*
X0375799Y0109175D01*
X0376236Y0110174D02*
X0386951Y0110174D01*
X0386949Y0105181D02*
X0231462Y0105181D01*
X0231462Y0104183D02*
X0386949Y0104183D01*
X0386949Y0103184D02*
X0231462Y0103184D01*
X0231462Y0102186D02*
X0386949Y0102186D01*
X0386948Y0101187D02*
X0231462Y0101187D01*
X0231462Y0100189D02*
X0233613Y0100189D01*
X0234574Y0101150D02*
X0231850Y0098426D01*
X0231850Y0096800D01*
X0236200Y0096800D01*
X0236200Y0101150D01*
X0234574Y0101150D01*
X0236200Y0100189D02*
X0236800Y0100189D01*
X0236800Y0101150D02*
X0236800Y0096800D01*
X0236200Y0096800D01*
X0236200Y0096200D01*
X0231850Y0096200D01*
X0231850Y0094574D01*
X0234574Y0091850D01*
X0236200Y0091850D01*
X0236200Y0096200D01*
X0236800Y0096200D01*
X0236800Y0096800D01*
X0241150Y0096800D01*
X0241150Y0098426D01*
X0238426Y0101150D01*
X0236800Y0101150D01*
X0236800Y0099190D02*
X0236200Y0099190D01*
X0236200Y0098192D02*
X0236800Y0098192D01*
X0236800Y0097193D02*
X0236200Y0097193D01*
X0236200Y0096195D02*
X0236800Y0096195D01*
X0236800Y0096200D02*
X0236800Y0091850D01*
X0238426Y0091850D01*
X0241150Y0094574D01*
X0241150Y0096200D01*
X0236800Y0096200D01*
X0236800Y0095196D02*
X0236200Y0095196D01*
X0236200Y0094198D02*
X0236800Y0094198D01*
X0236800Y0093199D02*
X0236200Y0093199D01*
X0236200Y0092201D02*
X0236800Y0092201D01*
X0237821Y0091202D02*
X0386946Y0091202D01*
X0386945Y0090204D02*
X0239655Y0090204D01*
X0240629Y0089205D02*
X0386945Y0089205D01*
X0386945Y0088207D02*
X0374012Y0088207D01*
X0374613Y0087958D02*
X0372897Y0088668D01*
X0365103Y0088668D01*
X0363387Y0087958D01*
X0362074Y0086644D01*
X0361363Y0084929D01*
X0361363Y0083071D01*
X0361424Y0082925D01*
X0356847Y0078347D01*
X0340100Y0078347D01*
X0340100Y0078509D01*
X0337259Y0081350D01*
X0333241Y0081350D01*
X0330400Y0078509D01*
X0330400Y0074491D01*
X0333241Y0071650D01*
X0337259Y0071650D01*
X0339356Y0073747D01*
X0358752Y0073747D01*
X0360099Y0075095D01*
X0364561Y0079556D01*
X0365103Y0079331D01*
X0372897Y0079331D01*
X0374613Y0080042D01*
X0375926Y0081355D01*
X0376637Y0083071D01*
X0376637Y0084929D01*
X0375926Y0086644D01*
X0374613Y0087958D01*
X0375363Y0087208D02*
X0386945Y0087208D01*
X0386944Y0086210D02*
X0376106Y0086210D01*
X0376520Y0085211D02*
X0386944Y0085211D01*
X0386944Y0084213D02*
X0376637Y0084213D01*
X0376637Y0083214D02*
X0386943Y0083214D01*
X0386943Y0082216D02*
X0376283Y0082216D01*
X0375788Y0081217D02*
X0386943Y0081217D01*
X0386943Y0080219D02*
X0374789Y0080219D01*
X0373976Y0078222D02*
X0386942Y0078222D01*
X0386942Y0079220D02*
X0364225Y0079220D01*
X0364024Y0078222D02*
X0363226Y0078222D01*
X0363387Y0077958D02*
X0362074Y0076644D01*
X0361363Y0074929D01*
X0361363Y0073071D01*
X0362074Y0071355D01*
X0363387Y0070042D01*
X0365103Y0069331D01*
X0372897Y0069331D01*
X0374613Y0070042D01*
X0375926Y0071355D01*
X0376637Y0073071D01*
X0376637Y0074929D01*
X0375926Y0076644D01*
X0374613Y0077958D01*
X0372897Y0078668D01*
X0365103Y0078668D01*
X0363387Y0077958D01*
X0362652Y0077223D02*
X0362228Y0077223D01*
X0361900Y0076225D02*
X0361229Y0076225D01*
X0361486Y0075226D02*
X0360231Y0075226D01*
X0359232Y0074228D02*
X0361363Y0074228D01*
X0361363Y0073229D02*
X0338837Y0073229D01*
X0337839Y0072231D02*
X0361711Y0072231D01*
X0362197Y0071232D02*
X0337376Y0071232D01*
X0337259Y0071350D02*
X0333241Y0071350D01*
X0330400Y0068509D01*
X0330400Y0064491D01*
X0333241Y0061650D01*
X0337259Y0061650D01*
X0340100Y0064491D01*
X0340100Y0068509D01*
X0337259Y0071350D01*
X0338375Y0070234D02*
X0363196Y0070234D01*
X0365103Y0066168D02*
X0363387Y0065458D01*
X0362074Y0064144D01*
X0361363Y0062429D01*
X0361363Y0060571D01*
X0361464Y0060327D01*
X0337161Y0036024D01*
X0331256Y0036024D01*
X0326827Y0031595D01*
X0325480Y0030248D01*
X0325480Y0016039D01*
X0326827Y0014692D01*
X0330400Y0014692D01*
X0330400Y0014491D01*
X0333241Y0011650D01*
X0337259Y0011650D01*
X0340100Y0014491D01*
X0340100Y0018509D01*
X0337259Y0021350D01*
X0333241Y0021350D01*
X0331184Y0019292D01*
X0330080Y0019292D01*
X0330080Y0028343D01*
X0333161Y0031424D01*
X0339067Y0031424D01*
X0340414Y0032772D01*
X0364657Y0057015D01*
X0364660Y0057015D01*
X0365103Y0056831D01*
X0372897Y0056831D01*
X0374613Y0057542D01*
X0375926Y0058855D01*
X0376637Y0060571D01*
X0376637Y0062429D01*
X0375926Y0064144D01*
X0374613Y0065458D01*
X0372897Y0066168D01*
X0365103Y0066168D01*
X0363170Y0065241D02*
X0340100Y0065241D01*
X0340100Y0066239D02*
X0386939Y0066239D01*
X0386939Y0065241D02*
X0374830Y0065241D01*
X0375828Y0064242D02*
X0386938Y0064242D01*
X0386938Y0063244D02*
X0376299Y0063244D01*
X0376637Y0062245D02*
X0386938Y0062245D01*
X0386937Y0061247D02*
X0376637Y0061247D01*
X0376503Y0060248D02*
X0386937Y0060248D01*
X0386937Y0059250D02*
X0376090Y0059250D01*
X0375322Y0058251D02*
X0386937Y0058251D01*
X0386936Y0057253D02*
X0373914Y0057253D01*
X0372897Y0056168D02*
X0374613Y0055458D01*
X0375926Y0054144D01*
X0376637Y0052429D01*
X0376637Y0050571D01*
X0375926Y0048855D01*
X0374613Y0047542D01*
X0372897Y0046831D01*
X0367269Y0046831D01*
X0346320Y0025882D01*
X0344972Y0024535D01*
X0340100Y0024535D01*
X0340100Y0024491D01*
X0337259Y0021650D01*
X0333241Y0021650D01*
X0330400Y0024491D01*
X0330400Y0028509D01*
X0333241Y0031350D01*
X0337259Y0031350D01*
X0339474Y0029135D01*
X0343067Y0029135D01*
X0362431Y0048498D01*
X0362074Y0048855D01*
X0361363Y0050571D01*
X0361363Y0052429D01*
X0362074Y0054144D01*
X0363387Y0055458D01*
X0365103Y0056168D01*
X0372897Y0056168D01*
X0374815Y0055256D02*
X0386936Y0055256D01*
X0386936Y0056254D02*
X0363897Y0056254D01*
X0363185Y0055256D02*
X0362898Y0055256D01*
X0362187Y0054257D02*
X0361900Y0054257D01*
X0361707Y0053259D02*
X0360901Y0053259D01*
X0361363Y0052260D02*
X0359903Y0052260D01*
X0358904Y0051262D02*
X0361363Y0051262D01*
X0361491Y0050263D02*
X0357906Y0050263D01*
X0356907Y0049265D02*
X0361904Y0049265D01*
X0362199Y0048266D02*
X0355909Y0048266D01*
X0354910Y0047268D02*
X0361200Y0047268D01*
X0360202Y0046269D02*
X0353912Y0046269D01*
X0352913Y0045271D02*
X0359203Y0045271D01*
X0358205Y0044272D02*
X0351915Y0044272D01*
X0350916Y0043274D02*
X0357206Y0043274D01*
X0356208Y0042275D02*
X0349918Y0042275D01*
X0348919Y0041277D02*
X0355209Y0041277D01*
X0354211Y0040278D02*
X0347921Y0040278D01*
X0346922Y0039280D02*
X0353212Y0039280D01*
X0352214Y0038281D02*
X0345924Y0038281D01*
X0344925Y0037283D02*
X0351215Y0037283D01*
X0350217Y0036284D02*
X0343927Y0036284D01*
X0342928Y0035286D02*
X0349218Y0035286D01*
X0348219Y0034287D02*
X0341930Y0034287D01*
X0340931Y0033289D02*
X0347221Y0033289D01*
X0346222Y0032290D02*
X0339933Y0032290D01*
X0338315Y0030293D02*
X0344225Y0030293D01*
X0343227Y0029295D02*
X0339314Y0029295D01*
X0337317Y0031292D02*
X0345224Y0031292D01*
X0348734Y0028296D02*
X0355343Y0028296D01*
X0354887Y0027298D02*
X0347735Y0027298D01*
X0346737Y0026299D02*
X0354490Y0026299D01*
X0354346Y0025301D02*
X0345738Y0025301D01*
X0349732Y0029295D02*
X0355799Y0029295D01*
X0356255Y0030293D02*
X0350731Y0030293D01*
X0351729Y0031292D02*
X0356802Y0031292D01*
X0356610Y0031069D02*
X0356610Y0031069D01*
X0357668Y0032290D02*
X0352728Y0032290D01*
X0353726Y0033289D02*
X0358533Y0033289D01*
X0359398Y0034287D02*
X0354725Y0034287D01*
X0355723Y0035286D02*
X0360545Y0035286D01*
X0362099Y0036284D02*
X0356722Y0036284D01*
X0357720Y0037283D02*
X0363653Y0037283D01*
X0364147Y0037600D02*
X0364147Y0037600D01*
X0366465Y0038281D02*
X0358719Y0038281D01*
X0359717Y0039280D02*
X0386932Y0039280D01*
X0386932Y0040278D02*
X0360716Y0040278D01*
X0361714Y0041277D02*
X0386932Y0041277D01*
X0386932Y0042275D02*
X0362713Y0042275D01*
X0363711Y0043274D02*
X0386933Y0043274D01*
X0386933Y0044272D02*
X0364710Y0044272D01*
X0365708Y0045271D02*
X0386933Y0045271D01*
X0386933Y0046269D02*
X0366707Y0046269D01*
X0373950Y0047268D02*
X0386934Y0047268D01*
X0386934Y0048266D02*
X0375337Y0048266D01*
X0376096Y0049265D02*
X0386934Y0049265D01*
X0386935Y0050263D02*
X0376509Y0050263D01*
X0376637Y0051262D02*
X0386935Y0051262D01*
X0386935Y0052260D02*
X0376637Y0052260D01*
X0376293Y0053259D02*
X0386935Y0053259D01*
X0386936Y0054257D02*
X0375813Y0054257D01*
X0361701Y0063244D02*
X0338852Y0063244D01*
X0337854Y0062245D02*
X0361363Y0062245D01*
X0361363Y0061247D02*
X0268700Y0061247D01*
X0268700Y0060589D02*
X0268700Y0072411D01*
X0267411Y0073700D01*
X0265558Y0073700D01*
X0266350Y0074491D01*
X0266350Y0078509D01*
X0263509Y0081350D01*
X0259491Y0081350D01*
X0256650Y0078509D01*
X0256650Y0074491D01*
X0257442Y0073700D01*
X0257411Y0073700D01*
X0255589Y0073700D01*
X0254300Y0072411D01*
X0254300Y0060589D01*
X0255589Y0059300D01*
X0257442Y0059300D01*
X0256650Y0058509D01*
X0256650Y0054491D01*
X0259491Y0051650D01*
X0263509Y0051650D01*
X0266350Y0054491D01*
X0266350Y0058509D01*
X0265558Y0059300D01*
X0267411Y0059300D01*
X0268700Y0060589D01*
X0268360Y0060248D02*
X0361386Y0060248D01*
X0360387Y0059250D02*
X0265608Y0059250D01*
X0266350Y0058251D02*
X0359388Y0058251D01*
X0358390Y0057253D02*
X0266350Y0057253D01*
X0266350Y0056254D02*
X0357391Y0056254D01*
X0356393Y0055256D02*
X0266350Y0055256D01*
X0266116Y0054257D02*
X0355394Y0054257D01*
X0354396Y0053259D02*
X0265117Y0053259D01*
X0264119Y0052260D02*
X0353397Y0052260D01*
X0352399Y0051262D02*
X0240592Y0051262D01*
X0240320Y0052260D02*
X0258881Y0052260D01*
X0257883Y0053259D02*
X0240320Y0053259D01*
X0240320Y0054257D02*
X0256884Y0054257D01*
X0256650Y0055256D02*
X0240320Y0055256D01*
X0240320Y0056254D02*
X0256650Y0056254D01*
X0256650Y0057253D02*
X0240320Y0057253D01*
X0240320Y0058251D02*
X0256650Y0058251D01*
X0257392Y0059250D02*
X0240320Y0059250D01*
X0240320Y0060248D02*
X0254640Y0060248D01*
X0254300Y0061247D02*
X0240320Y0061247D01*
X0240320Y0062245D02*
X0254300Y0062245D01*
X0254300Y0063244D02*
X0240320Y0063244D01*
X0240320Y0064242D02*
X0254300Y0064242D01*
X0254300Y0065241D02*
X0240320Y0065241D01*
X0240320Y0066239D02*
X0254300Y0066239D01*
X0254300Y0067238D02*
X0240320Y0067238D01*
X0240320Y0068237D02*
X0254300Y0068237D01*
X0254300Y0069235D02*
X0240320Y0069235D01*
X0240320Y0070234D02*
X0254300Y0070234D01*
X0254300Y0071232D02*
X0240320Y0071232D01*
X0240320Y0072231D02*
X0254300Y0072231D01*
X0255118Y0073229D02*
X0240320Y0073229D01*
X0240320Y0074228D02*
X0256914Y0074228D01*
X0256650Y0075226D02*
X0240320Y0075226D01*
X0240320Y0076225D02*
X0256650Y0076225D01*
X0256650Y0077223D02*
X0240320Y0077223D01*
X0240320Y0078222D02*
X0256650Y0078222D01*
X0257362Y0079220D02*
X0240320Y0079220D01*
X0240320Y0080219D02*
X0258360Y0080219D01*
X0259359Y0081217D02*
X0240320Y0081217D01*
X0240320Y0082216D02*
X0360715Y0082216D01*
X0361363Y0083214D02*
X0240320Y0083214D01*
X0240802Y0084213D02*
X0361363Y0084213D01*
X0361480Y0085211D02*
X0241216Y0085211D01*
X0241350Y0086210D02*
X0361894Y0086210D01*
X0362637Y0087208D02*
X0241350Y0087208D01*
X0241043Y0088207D02*
X0363988Y0088207D01*
X0359716Y0081217D02*
X0337391Y0081217D01*
X0338390Y0080219D02*
X0358718Y0080219D01*
X0357719Y0079220D02*
X0339388Y0079220D01*
X0333109Y0081217D02*
X0263641Y0081217D01*
X0264640Y0080219D02*
X0332110Y0080219D01*
X0331112Y0079220D02*
X0265638Y0079220D01*
X0266350Y0078222D02*
X0330400Y0078222D01*
X0330400Y0077223D02*
X0266350Y0077223D01*
X0266350Y0076225D02*
X0330400Y0076225D01*
X0330400Y0075226D02*
X0266350Y0075226D01*
X0266086Y0074228D02*
X0330664Y0074228D01*
X0331663Y0073229D02*
X0267882Y0073229D01*
X0268700Y0072231D02*
X0332661Y0072231D01*
X0333124Y0071232D02*
X0268700Y0071232D01*
X0268700Y0070234D02*
X0332125Y0070234D01*
X0331127Y0069235D02*
X0268700Y0069235D01*
X0268700Y0068237D02*
X0330400Y0068237D01*
X0330400Y0067238D02*
X0268700Y0067238D01*
X0268700Y0066239D02*
X0330400Y0066239D01*
X0330400Y0065241D02*
X0268700Y0065241D01*
X0268700Y0064242D02*
X0330649Y0064242D01*
X0331648Y0063244D02*
X0268700Y0063244D01*
X0268700Y0062245D02*
X0332646Y0062245D01*
X0339851Y0064242D02*
X0362172Y0064242D01*
X0374804Y0070234D02*
X0386940Y0070234D01*
X0386940Y0071232D02*
X0375803Y0071232D01*
X0376289Y0072231D02*
X0386940Y0072231D01*
X0386941Y0073229D02*
X0376637Y0073229D01*
X0376637Y0074228D02*
X0386941Y0074228D01*
X0386941Y0075226D02*
X0376514Y0075226D01*
X0376100Y0076225D02*
X0386942Y0076225D01*
X0386942Y0077223D02*
X0375348Y0077223D01*
X0386940Y0069235D02*
X0339373Y0069235D01*
X0340100Y0068237D02*
X0386939Y0068237D01*
X0386939Y0067238D02*
X0340100Y0067238D01*
X0351400Y0050263D02*
X0241591Y0050263D01*
X0242589Y0049265D02*
X0350402Y0049265D01*
X0349403Y0048266D02*
X0243588Y0048266D01*
X0244586Y0047268D02*
X0348405Y0047268D01*
X0347406Y0046269D02*
X0245585Y0046269D01*
X0246583Y0045271D02*
X0346408Y0045271D01*
X0345409Y0044272D02*
X0247582Y0044272D01*
X0248580Y0043274D02*
X0344411Y0043274D01*
X0343412Y0042275D02*
X0249579Y0042275D01*
X0250577Y0041277D02*
X0342414Y0041277D01*
X0341415Y0040278D02*
X0251576Y0040278D01*
X0252574Y0039280D02*
X0340417Y0039280D01*
X0339418Y0038281D02*
X0253573Y0038281D01*
X0254571Y0037283D02*
X0338420Y0037283D01*
X0337421Y0036284D02*
X0255570Y0036284D01*
X0256568Y0035286D02*
X0330517Y0035286D01*
X0329519Y0034287D02*
X0257567Y0034287D01*
X0258565Y0033289D02*
X0328520Y0033289D01*
X0327522Y0032290D02*
X0259564Y0032290D01*
X0263567Y0031292D02*
X0326523Y0031292D01*
X0325525Y0030293D02*
X0264565Y0030293D01*
X0265564Y0029295D02*
X0325480Y0029295D01*
X0325480Y0028296D02*
X0266350Y0028296D01*
X0266350Y0027298D02*
X0325480Y0027298D01*
X0325480Y0026299D02*
X0266350Y0026299D01*
X0266350Y0025301D02*
X0325480Y0025301D01*
X0325480Y0024302D02*
X0266160Y0024302D01*
X0265162Y0023303D02*
X0325480Y0023303D01*
X0325480Y0022305D02*
X0264163Y0022305D01*
X0263426Y0021150D02*
X0261787Y0021150D01*
X0261787Y0016787D01*
X0261213Y0016787D01*
X0261213Y0016213D01*
X0256850Y0016213D01*
X0256850Y0014574D01*
X0259574Y0011850D01*
X0261213Y0011850D01*
X0261213Y0016213D01*
X0261787Y0016213D01*
X0261787Y0011850D01*
X0263426Y0011850D01*
X0266150Y0014574D01*
X0266150Y0016213D01*
X0261787Y0016213D01*
X0261787Y0016787D01*
X0266150Y0016787D01*
X0266150Y0018426D01*
X0263426Y0021150D01*
X0264268Y0020308D02*
X0325480Y0020308D01*
X0325480Y0021306D02*
X0212216Y0021306D01*
X0212985Y0020538D02*
X0210833Y0022690D01*
X0208022Y0023854D01*
X0204978Y0023854D01*
X0202167Y0022690D01*
X0200015Y0020538D01*
X0198850Y0017726D01*
X0198850Y0014683D01*
X0200015Y0011872D01*
X0202167Y0009720D01*
X0204978Y0008555D01*
X0208022Y0008555D01*
X0210833Y0009720D01*
X0212985Y0011872D01*
X0214150Y0014683D01*
X0214150Y0017726D01*
X0212985Y0020538D01*
X0213080Y0020308D02*
X0216942Y0020308D01*
X0215598Y0019309D02*
X0213494Y0019309D01*
X0213907Y0018311D02*
X0214885Y0018311D01*
X0214471Y0017312D02*
X0214150Y0017312D01*
X0214150Y0016314D02*
X0214402Y0016314D01*
X0214402Y0015315D02*
X0214150Y0015315D01*
X0213998Y0014317D02*
X0214402Y0014317D01*
X0214402Y0013318D02*
X0213584Y0013318D01*
X0213555Y0012320D02*
X0213171Y0012320D01*
X0212557Y0011321D02*
X0212435Y0011321D01*
X0211558Y0010323D02*
X0211436Y0010323D01*
X0210560Y0009324D02*
X0209879Y0009324D01*
X0214070Y0006329D02*
X0217572Y0006329D01*
X0215859Y0007327D02*
X0215068Y0007327D01*
X0220231Y0006329D02*
X0362701Y0006329D01*
X0361147Y0007327D02*
X0221944Y0007327D01*
X0222810Y0008326D02*
X0359733Y0008326D01*
X0359909Y0008123D02*
X0359909Y0008123D01*
X0358868Y0009324D02*
X0223224Y0009324D01*
X0223402Y0010323D02*
X0358003Y0010323D01*
X0357138Y0011321D02*
X0223402Y0011321D01*
X0223402Y0012320D02*
X0259105Y0012320D01*
X0258106Y0013318D02*
X0223402Y0013318D01*
X0223402Y0014317D02*
X0257108Y0014317D01*
X0256850Y0015315D02*
X0223402Y0015315D01*
X0223402Y0016314D02*
X0261213Y0016314D01*
X0261213Y0016787D02*
X0256850Y0016787D01*
X0256850Y0018426D01*
X0259574Y0021150D01*
X0261213Y0021150D01*
X0261213Y0016787D01*
X0261213Y0017312D02*
X0261787Y0017312D01*
X0261787Y0016314D02*
X0325480Y0016314D01*
X0325480Y0017312D02*
X0266150Y0017312D01*
X0266150Y0018311D02*
X0325480Y0018311D01*
X0325480Y0019309D02*
X0265266Y0019309D01*
X0261787Y0019309D02*
X0261213Y0019309D01*
X0261213Y0018311D02*
X0261787Y0018311D01*
X0261787Y0020308D02*
X0261213Y0020308D01*
X0258732Y0020308D02*
X0220861Y0020308D01*
X0222205Y0019309D02*
X0257734Y0019309D01*
X0256850Y0018311D02*
X0222918Y0018311D01*
X0223332Y0017312D02*
X0256850Y0017312D01*
X0261213Y0015315D02*
X0261787Y0015315D01*
X0261787Y0014317D02*
X0261213Y0014317D01*
X0261213Y0013318D02*
X0261787Y0013318D01*
X0261787Y0012320D02*
X0261213Y0012320D01*
X0263895Y0012320D02*
X0332572Y0012320D01*
X0331573Y0013318D02*
X0264894Y0013318D01*
X0265892Y0014317D02*
X0330575Y0014317D01*
X0326204Y0015315D02*
X0266150Y0015315D01*
X0258837Y0022305D02*
X0211218Y0022305D01*
X0209351Y0023303D02*
X0257838Y0023303D01*
X0256840Y0024302D02*
X0198598Y0024302D01*
X0198598Y0025301D02*
X0256650Y0025301D01*
X0256650Y0026299D02*
X0198598Y0026299D01*
X0198598Y0027298D02*
X0256650Y0027298D01*
X0256204Y0028296D02*
X0198598Y0028296D01*
X0198598Y0029295D02*
X0255206Y0029295D01*
X0254207Y0030293D02*
X0198370Y0030293D01*
X0197957Y0031292D02*
X0253209Y0031292D01*
X0252210Y0032290D02*
X0208294Y0032290D01*
X0208022Y0032177D02*
X0210833Y0033342D01*
X0212985Y0035494D01*
X0214150Y0038305D01*
X0214150Y0041348D01*
X0212985Y0044160D01*
X0210833Y0046312D01*
X0208022Y0047476D01*
X0204978Y0047476D01*
X0202167Y0046312D01*
X0200015Y0044160D01*
X0198850Y0041348D01*
X0198850Y0038305D01*
X0200015Y0035494D01*
X0202167Y0033342D01*
X0204978Y0032177D01*
X0208022Y0032177D01*
X0210705Y0033289D02*
X0216276Y0033289D01*
X0216353Y0033212D02*
X0218006Y0032527D01*
X0219797Y0032527D01*
X0221451Y0033212D01*
X0222716Y0034478D01*
X0223402Y0036132D01*
X0223402Y0043522D01*
X0222716Y0045176D01*
X0221451Y0046442D01*
X0219797Y0047127D01*
X0218006Y0047127D01*
X0216353Y0046442D01*
X0215087Y0045176D01*
X0214402Y0043522D01*
X0214402Y0036132D01*
X0215087Y0034478D01*
X0216353Y0033212D01*
X0215277Y0034287D02*
X0211779Y0034287D01*
X0212777Y0035286D02*
X0214752Y0035286D01*
X0214402Y0036284D02*
X0213312Y0036284D01*
X0213726Y0037283D02*
X0214402Y0037283D01*
X0214402Y0038281D02*
X0214140Y0038281D01*
X0214150Y0039280D02*
X0214402Y0039280D01*
X0214402Y0040278D02*
X0214150Y0040278D01*
X0214150Y0041277D02*
X0214402Y0041277D01*
X0214402Y0042275D02*
X0213766Y0042275D01*
X0213352Y0043274D02*
X0214402Y0043274D01*
X0214712Y0044272D02*
X0212873Y0044272D01*
X0211874Y0045271D02*
X0215182Y0045271D01*
X0216180Y0046269D02*
X0210876Y0046269D01*
X0208525Y0047268D02*
X0237232Y0047268D01*
X0236234Y0048266D02*
X0186569Y0048266D01*
X0187568Y0047268D02*
X0204475Y0047268D01*
X0202124Y0046269D02*
X0196820Y0046269D01*
X0197818Y0045271D02*
X0201126Y0045271D01*
X0200127Y0044272D02*
X0198288Y0044272D01*
X0198598Y0043274D02*
X0199648Y0043274D01*
X0199234Y0042275D02*
X0198598Y0042275D01*
X0198598Y0041277D02*
X0198850Y0041277D01*
X0198850Y0040278D02*
X0198598Y0040278D01*
X0198598Y0039280D02*
X0198850Y0039280D01*
X0198860Y0038281D02*
X0198598Y0038281D01*
X0198598Y0037283D02*
X0199274Y0037283D01*
X0199688Y0036284D02*
X0198598Y0036284D01*
X0198248Y0035286D02*
X0200223Y0035286D01*
X0201221Y0034287D02*
X0197723Y0034287D01*
X0196724Y0033289D02*
X0202295Y0033289D01*
X0204706Y0032290D02*
X0197020Y0032290D01*
X0191473Y0033289D02*
X0176940Y0033289D01*
X0175942Y0034287D02*
X0190474Y0034287D01*
X0189949Y0035286D02*
X0174943Y0035286D01*
X0173945Y0036284D02*
X0189598Y0036284D01*
X0189598Y0037283D02*
X0172946Y0037283D01*
X0171948Y0038281D02*
X0189598Y0038281D01*
X0189050Y0039280D02*
X0170949Y0039280D01*
X0169951Y0040278D02*
X0188052Y0040278D01*
X0187053Y0041277D02*
X0168952Y0041277D01*
X0167954Y0042275D02*
X0186055Y0042275D01*
X0185056Y0043274D02*
X0166955Y0043274D01*
X0165957Y0044272D02*
X0184058Y0044272D01*
X0183059Y0045271D02*
X0164958Y0045271D01*
X0163960Y0046269D02*
X0182061Y0046269D01*
X0181062Y0047268D02*
X0162961Y0047268D01*
X0161963Y0048266D02*
X0180064Y0048266D01*
X0179065Y0049265D02*
X0160964Y0049265D01*
X0159966Y0050263D02*
X0178067Y0050263D01*
X0177068Y0051262D02*
X0158967Y0051262D01*
X0157969Y0052260D02*
X0176070Y0052260D01*
X0175071Y0053259D02*
X0156970Y0053259D01*
X0155972Y0054257D02*
X0174073Y0054257D01*
X0173074Y0055256D02*
X0154973Y0055256D01*
X0153975Y0056254D02*
X0172076Y0056254D01*
X0171077Y0057253D02*
X0152976Y0057253D01*
X0151978Y0058251D02*
X0170079Y0058251D01*
X0169080Y0059250D02*
X0150979Y0059250D01*
X0149981Y0060248D02*
X0168082Y0060248D01*
X0167083Y0061247D02*
X0148982Y0061247D01*
X0147984Y0062245D02*
X0166085Y0062245D01*
X0165086Y0063244D02*
X0146985Y0063244D01*
X0145987Y0064242D02*
X0164088Y0064242D01*
X0163089Y0065241D02*
X0144988Y0065241D01*
X0143990Y0066239D02*
X0162091Y0066239D01*
X0161092Y0067238D02*
X0142991Y0067238D01*
X0141993Y0068237D02*
X0150947Y0068237D01*
X0150191Y0069235D02*
X0140994Y0069235D01*
X0140035Y0070234D02*
X0149875Y0070234D01*
X0149875Y0071232D02*
X0139847Y0071232D01*
X0139271Y0072231D02*
X0150273Y0072231D01*
X0155203Y0068237D02*
X0160093Y0068237D01*
X0163603Y0071232D02*
X0235120Y0071232D01*
X0235120Y0070234D02*
X0164602Y0070234D01*
X0165600Y0069235D02*
X0235120Y0069235D01*
X0235120Y0068237D02*
X0208910Y0068237D01*
X0208447Y0068700D02*
X0204553Y0068700D01*
X0201800Y0065947D01*
X0201800Y0062053D01*
X0204553Y0059300D01*
X0208447Y0059300D01*
X0211200Y0062053D01*
X0211200Y0065947D01*
X0208447Y0068700D01*
X0209909Y0067238D02*
X0235120Y0067238D01*
X0235120Y0066239D02*
X0210907Y0066239D01*
X0211200Y0065241D02*
X0235120Y0065241D01*
X0235120Y0064242D02*
X0211200Y0064242D01*
X0211200Y0063244D02*
X0235120Y0063244D01*
X0235120Y0062245D02*
X0211200Y0062245D01*
X0210394Y0061247D02*
X0235120Y0061247D01*
X0235120Y0060248D02*
X0209395Y0060248D01*
X0203605Y0060248D02*
X0190047Y0060248D01*
X0189698Y0059900D02*
X0192100Y0062302D01*
X0192100Y0063700D01*
X0188300Y0063700D01*
X0188300Y0064300D01*
X0192100Y0064300D01*
X0192100Y0065698D01*
X0189698Y0068100D01*
X0188300Y0068100D01*
X0188300Y0064300D01*
X0187700Y0064300D01*
X0187700Y0068100D01*
X0186302Y0068100D01*
X0183936Y0065734D01*
X0183645Y0066436D01*
X0182436Y0067645D01*
X0180855Y0068300D01*
X0179145Y0068300D01*
X0177564Y0067645D01*
X0176355Y0066436D01*
X0175700Y0064855D01*
X0175700Y0063145D01*
X0176355Y0061564D01*
X0177564Y0060355D01*
X0179145Y0059700D01*
X0180855Y0059700D01*
X0182436Y0060355D01*
X0183645Y0061564D01*
X0183936Y0062266D01*
X0186302Y0059900D01*
X0187700Y0059900D01*
X0187700Y0063700D01*
X0188300Y0063700D01*
X0188300Y0059900D01*
X0189698Y0059900D01*
X0188300Y0060248D02*
X0187700Y0060248D01*
X0187700Y0061247D02*
X0188300Y0061247D01*
X0188300Y0062245D02*
X0187700Y0062245D01*
X0187700Y0063244D02*
X0188300Y0063244D01*
X0188300Y0064242D02*
X0201800Y0064242D01*
X0201800Y0063244D02*
X0192100Y0063244D01*
X0192044Y0062245D02*
X0201800Y0062245D01*
X0202606Y0061247D02*
X0191045Y0061247D01*
X0185953Y0060248D02*
X0182179Y0060248D01*
X0183328Y0061247D02*
X0184955Y0061247D01*
X0183956Y0062245D02*
X0183927Y0062245D01*
X0183727Y0066239D02*
X0184441Y0066239D01*
X0185440Y0067238D02*
X0182843Y0067238D01*
X0181009Y0068237D02*
X0204090Y0068237D01*
X0203091Y0067238D02*
X0190560Y0067238D01*
X0191559Y0066239D02*
X0202093Y0066239D01*
X0201800Y0065241D02*
X0192100Y0065241D01*
X0188300Y0065241D02*
X0187700Y0065241D01*
X0187700Y0066239D02*
X0188300Y0066239D01*
X0188300Y0067238D02*
X0187700Y0067238D01*
X0178991Y0068237D02*
X0166599Y0068237D01*
X0167597Y0067238D02*
X0177157Y0067238D01*
X0176273Y0066239D02*
X0168596Y0066239D01*
X0169594Y0065241D02*
X0175860Y0065241D01*
X0175700Y0064242D02*
X0170593Y0064242D01*
X0171591Y0063244D02*
X0175700Y0063244D01*
X0176072Y0062245D02*
X0172590Y0062245D01*
X0173588Y0061247D02*
X0176672Y0061247D01*
X0177821Y0060248D02*
X0174587Y0060248D01*
X0175585Y0059250D02*
X0235120Y0059250D01*
X0235120Y0058251D02*
X0176584Y0058251D01*
X0177582Y0057253D02*
X0235120Y0057253D01*
X0235120Y0056254D02*
X0178581Y0056254D01*
X0179579Y0055256D02*
X0235120Y0055256D01*
X0235120Y0054257D02*
X0180578Y0054257D01*
X0181577Y0053259D02*
X0235120Y0053259D01*
X0235120Y0052260D02*
X0182575Y0052260D01*
X0183574Y0051262D02*
X0235120Y0051262D01*
X0235120Y0050263D02*
X0184572Y0050263D01*
X0185571Y0049265D02*
X0235400Y0049265D01*
X0238231Y0046269D02*
X0221623Y0046269D01*
X0222622Y0045271D02*
X0239229Y0045271D01*
X0240228Y0044272D02*
X0223091Y0044272D01*
X0223402Y0043274D02*
X0241226Y0043274D01*
X0242225Y0042275D02*
X0223402Y0042275D01*
X0223402Y0041277D02*
X0243224Y0041277D01*
X0244222Y0040278D02*
X0223402Y0040278D01*
X0223402Y0039280D02*
X0245221Y0039280D01*
X0246219Y0038281D02*
X0223402Y0038281D01*
X0223402Y0037283D02*
X0247218Y0037283D01*
X0248216Y0036284D02*
X0223402Y0036284D01*
X0223051Y0035286D02*
X0249215Y0035286D01*
X0250213Y0034287D02*
X0222526Y0034287D01*
X0221527Y0033289D02*
X0251212Y0033289D01*
X0203649Y0023303D02*
X0198598Y0023303D01*
X0198579Y0022305D02*
X0201782Y0022305D01*
X0200784Y0021306D02*
X0198165Y0021306D01*
X0197523Y0020308D02*
X0199920Y0020308D01*
X0199506Y0019309D02*
X0197402Y0019309D01*
X0198115Y0018311D02*
X0199093Y0018311D01*
X0198850Y0017312D02*
X0198529Y0017312D01*
X0198598Y0016314D02*
X0198850Y0016314D01*
X0198850Y0015315D02*
X0198598Y0015315D01*
X0198598Y0014317D02*
X0199002Y0014317D01*
X0198598Y0013318D02*
X0199416Y0013318D01*
X0199829Y0012320D02*
X0198598Y0012320D01*
X0199400Y0011321D02*
X0200565Y0011321D01*
X0200398Y0010323D02*
X0201564Y0010323D01*
X0201397Y0009324D02*
X0203121Y0009324D01*
X0197887Y0006329D02*
X0195428Y0006329D01*
X0192769Y0006329D02*
X0030299Y0006329D01*
X0031853Y0007327D02*
X0191056Y0007327D01*
X0190190Y0008326D02*
X0033267Y0008326D01*
X0034132Y0009324D02*
X0189776Y0009324D01*
X0189598Y0010323D02*
X0034997Y0010323D01*
X0038885Y0019309D02*
X0051000Y0019309D01*
X0051000Y0018311D02*
X0052000Y0018311D01*
X0052000Y0018500D02*
X0052000Y0011523D01*
X0052554Y0011611D01*
X0053227Y0011830D01*
X0053859Y0012151D01*
X0054432Y0012568D01*
X0054932Y0013068D01*
X0055349Y0013641D01*
X0055670Y0014273D01*
X0055889Y0014946D01*
X0056000Y0015646D01*
X0056000Y0018500D01*
X0052000Y0018500D01*
X0052000Y0019309D02*
X0056800Y0019309D01*
X0056800Y0018311D02*
X0056000Y0018311D01*
X0056000Y0017312D02*
X0056800Y0017312D01*
X0056800Y0016314D02*
X0056000Y0016314D01*
X0055948Y0015315D02*
X0056800Y0015315D01*
X0057110Y0014317D02*
X0055685Y0014317D01*
X0055114Y0013318D02*
X0057535Y0013318D01*
X0058533Y0012320D02*
X0054091Y0012320D01*
X0052000Y0012320D02*
X0051000Y0012320D01*
X0051000Y0013318D02*
X0052000Y0013318D01*
X0052000Y0014317D02*
X0051000Y0014317D01*
X0051000Y0015315D02*
X0052000Y0015315D01*
X0052000Y0016314D02*
X0051000Y0016314D01*
X0051000Y0017312D02*
X0052000Y0017312D01*
X0052000Y0020308D02*
X0051000Y0020308D01*
X0051000Y0021306D02*
X0052000Y0021306D01*
X0052000Y0022305D02*
X0051000Y0022305D01*
X0051000Y0023303D02*
X0052000Y0023303D01*
X0052000Y0024302D02*
X0051000Y0024302D01*
X0051000Y0025301D02*
X0052000Y0025301D01*
X0052000Y0026299D02*
X0051000Y0026299D01*
X0052831Y0026299D02*
X0059597Y0026299D01*
X0058154Y0025301D02*
X0054563Y0025301D01*
X0055378Y0024302D02*
X0057366Y0024302D01*
X0056953Y0023303D02*
X0055808Y0023303D01*
X0056000Y0022305D02*
X0056800Y0022305D01*
X0056800Y0021306D02*
X0056000Y0021306D01*
X0056000Y0020308D02*
X0056800Y0020308D01*
X0063403Y0026299D02*
X0068782Y0026299D01*
X0068154Y0025301D02*
X0064846Y0025301D01*
X0065634Y0024302D02*
X0067366Y0024302D01*
X0066953Y0023303D02*
X0066047Y0023303D01*
X0066200Y0022305D02*
X0066800Y0022305D01*
X0066800Y0021306D02*
X0066200Y0021306D01*
X0066200Y0020308D02*
X0066800Y0020308D01*
X0066800Y0019309D02*
X0066200Y0019309D01*
X0066200Y0018311D02*
X0066800Y0018311D01*
X0066800Y0017312D02*
X0066200Y0017312D01*
X0066200Y0016314D02*
X0066800Y0016314D01*
X0066800Y0015315D02*
X0066200Y0015315D01*
X0065890Y0014317D02*
X0067110Y0014317D01*
X0067535Y0013318D02*
X0065465Y0013318D01*
X0064467Y0012320D02*
X0068533Y0012320D01*
X0074467Y0012320D02*
X0078533Y0012320D01*
X0077535Y0013318D02*
X0075465Y0013318D01*
X0075890Y0014317D02*
X0077110Y0014317D01*
X0076800Y0015315D02*
X0076200Y0015315D01*
X0076200Y0016314D02*
X0076800Y0016314D01*
X0076800Y0017312D02*
X0076200Y0017312D01*
X0076200Y0018311D02*
X0076800Y0018311D01*
X0076800Y0019309D02*
X0076200Y0019309D01*
X0076200Y0020308D02*
X0076800Y0020308D01*
X0076800Y0021306D02*
X0076200Y0021306D01*
X0076200Y0022305D02*
X0076800Y0022305D01*
X0076953Y0023303D02*
X0076047Y0023303D01*
X0075634Y0024302D02*
X0077366Y0024302D01*
X0078154Y0025301D02*
X0074846Y0025301D01*
X0073982Y0026299D02*
X0079597Y0026299D01*
X0073982Y0027298D02*
X0096151Y0027298D01*
X0097150Y0028296D02*
X0073982Y0028296D01*
X0073982Y0029295D02*
X0098148Y0029295D01*
X0099147Y0030293D02*
X0073982Y0030293D01*
X0073982Y0031292D02*
X0111464Y0031292D01*
X0112463Y0032290D02*
X0073982Y0032290D01*
X0073982Y0033289D02*
X0111239Y0033289D01*
X0109957Y0034287D02*
X0073982Y0034287D01*
X0093403Y0026299D02*
X0095153Y0026299D01*
X0098662Y0023303D02*
X0106953Y0023303D01*
X0106800Y0022305D02*
X0097664Y0022305D01*
X0096665Y0021306D02*
X0106800Y0021306D01*
X0106800Y0020308D02*
X0096200Y0020308D01*
X0096200Y0019309D02*
X0106800Y0019309D01*
X0106800Y0018311D02*
X0096200Y0018311D01*
X0096200Y0017312D02*
X0106800Y0017312D01*
X0106800Y0016314D02*
X0096200Y0016314D01*
X0096200Y0015315D02*
X0106800Y0015315D01*
X0107110Y0014317D02*
X0095890Y0014317D01*
X0095465Y0013318D02*
X0107535Y0013318D01*
X0108533Y0012320D02*
X0094467Y0012320D01*
X0092486Y0011321D02*
X0110514Y0011321D01*
X0112486Y0011321D02*
X0130514Y0011321D01*
X0132486Y0011321D02*
X0189598Y0011321D01*
X0189598Y0012320D02*
X0134467Y0012320D01*
X0135465Y0013318D02*
X0189598Y0013318D01*
X0189598Y0014317D02*
X0135890Y0014317D01*
X0136200Y0015315D02*
X0151886Y0015315D01*
X0152302Y0014900D02*
X0153700Y0014900D01*
X0153700Y0018700D01*
X0154300Y0018700D01*
X0154300Y0019300D01*
X0158100Y0019300D01*
X0158100Y0020698D01*
X0155698Y0023100D01*
X0154300Y0023100D01*
X0154300Y0019300D01*
X0153700Y0019300D01*
X0153700Y0023100D01*
X0152302Y0023100D01*
X0149900Y0020698D01*
X0149900Y0019300D01*
X0153700Y0019300D01*
X0153700Y0018700D01*
X0149900Y0018700D01*
X0149900Y0017302D01*
X0152302Y0014900D01*
X0153700Y0015315D02*
X0154300Y0015315D01*
X0154300Y0014900D02*
X0155698Y0014900D01*
X0158100Y0017302D01*
X0158100Y0018700D01*
X0154300Y0018700D01*
X0154300Y0014900D01*
X0154300Y0016314D02*
X0153700Y0016314D01*
X0153700Y0017312D02*
X0154300Y0017312D01*
X0154300Y0018311D02*
X0153700Y0018311D01*
X0153700Y0019309D02*
X0154300Y0019309D01*
X0154300Y0020308D02*
X0153700Y0020308D01*
X0153700Y0021306D02*
X0154300Y0021306D01*
X0154300Y0022305D02*
X0153700Y0022305D01*
X0151507Y0022305D02*
X0136200Y0022305D01*
X0136200Y0021306D02*
X0150508Y0021306D01*
X0149900Y0020308D02*
X0136200Y0020308D01*
X0136200Y0019309D02*
X0149900Y0019309D01*
X0149900Y0018311D02*
X0136200Y0018311D01*
X0136200Y0017312D02*
X0149900Y0017312D01*
X0150888Y0016314D02*
X0136200Y0016314D01*
X0136047Y0023303D02*
X0189598Y0023303D01*
X0189618Y0022305D02*
X0166776Y0022305D01*
X0165781Y0023300D02*
X0162219Y0023300D01*
X0159700Y0020781D01*
X0159700Y0017219D01*
X0162219Y0014700D01*
X0165781Y0014700D01*
X0168300Y0017219D01*
X0168300Y0020781D01*
X0165781Y0023300D01*
X0167775Y0021306D02*
X0190032Y0021306D01*
X0190674Y0020308D02*
X0168300Y0020308D01*
X0168300Y0019309D02*
X0190795Y0019309D01*
X0190082Y0018311D02*
X0168300Y0018311D01*
X0168300Y0017312D02*
X0189668Y0017312D01*
X0189598Y0016314D02*
X0167395Y0016314D01*
X0166397Y0015315D02*
X0189598Y0015315D01*
X0179422Y0024302D02*
X0135634Y0024302D01*
X0134846Y0025301D02*
X0178423Y0025301D01*
X0177425Y0026299D02*
X0133403Y0026299D01*
X0130206Y0027298D02*
X0176426Y0027298D01*
X0175428Y0028296D02*
X0129208Y0028296D01*
X0128209Y0029295D02*
X0174429Y0029295D01*
X0173431Y0030293D02*
X0127211Y0030293D01*
X0126212Y0031292D02*
X0172432Y0031292D01*
X0171434Y0032290D02*
X0125214Y0032290D01*
X0124215Y0033289D02*
X0170435Y0033289D01*
X0169437Y0034287D02*
X0160384Y0034287D01*
X0161622Y0035286D02*
X0168438Y0035286D01*
X0167440Y0036284D02*
X0162077Y0036284D01*
X0162180Y0037283D02*
X0166441Y0037283D01*
X0165443Y0038281D02*
X0161983Y0038281D01*
X0161395Y0039280D02*
X0164444Y0039280D01*
X0163445Y0040278D02*
X0159837Y0040278D01*
X0158124Y0040278D02*
X0157156Y0040278D01*
X0156157Y0041277D02*
X0162447Y0041277D01*
X0161448Y0042275D02*
X0155159Y0042275D01*
X0154160Y0043274D02*
X0160450Y0043274D01*
X0159451Y0044272D02*
X0153162Y0044272D01*
X0152163Y0045271D02*
X0158453Y0045271D01*
X0157454Y0046269D02*
X0151165Y0046269D01*
X0150166Y0047268D02*
X0156456Y0047268D01*
X0155457Y0048266D02*
X0149167Y0048266D01*
X0148169Y0049265D02*
X0154459Y0049265D01*
X0153460Y0050263D02*
X0147170Y0050263D01*
X0146172Y0051262D02*
X0152462Y0051262D01*
X0151463Y0052260D02*
X0145173Y0052260D01*
X0144175Y0053259D02*
X0150465Y0053259D01*
X0149466Y0054257D02*
X0143176Y0054257D01*
X0142178Y0055256D02*
X0148468Y0055256D01*
X0147469Y0056254D02*
X0141179Y0056254D01*
X0140181Y0057253D02*
X0146471Y0057253D01*
X0145472Y0058251D02*
X0139900Y0058251D01*
X0139457Y0059250D02*
X0144474Y0059250D01*
X0143475Y0060248D02*
X0138246Y0060248D01*
X0162605Y0072231D02*
X0235120Y0072231D01*
X0232927Y0083214D02*
X0207390Y0083214D01*
X0205610Y0083214D02*
X0165652Y0083214D01*
X0165930Y0084213D02*
X0203706Y0084213D01*
X0202794Y0085211D02*
X0165908Y0085211D01*
X0165495Y0086210D02*
X0202380Y0086210D01*
X0201653Y0087208D02*
X0164569Y0087208D01*
X0162377Y0088207D02*
X0200655Y0088207D01*
X0199656Y0089205D02*
X0161378Y0089205D01*
X0160380Y0090204D02*
X0198658Y0090204D01*
X0197659Y0091202D02*
X0159381Y0091202D01*
X0158383Y0092201D02*
X0196661Y0092201D01*
X0195662Y0093199D02*
X0157384Y0093199D01*
X0156386Y0094198D02*
X0194664Y0094198D01*
X0193665Y0095196D02*
X0156113Y0095196D01*
X0156275Y0096195D02*
X0192667Y0096195D01*
X0191668Y0097193D02*
X0156137Y0097193D01*
X0155633Y0098192D02*
X0190670Y0098192D01*
X0194179Y0101187D02*
X0226262Y0101187D01*
X0226262Y0100189D02*
X0195178Y0100189D01*
X0196176Y0099190D02*
X0204109Y0099190D01*
X0203111Y0098192D02*
X0197175Y0098192D01*
X0198174Y0097193D02*
X0202200Y0097193D01*
X0202200Y0096195D02*
X0199172Y0096195D01*
X0200171Y0095196D02*
X0202200Y0095196D01*
X0202200Y0094198D02*
X0201169Y0094198D01*
X0202168Y0093199D02*
X0202720Y0093199D01*
X0203166Y0092201D02*
X0203718Y0092201D01*
X0204165Y0091202D02*
X0204202Y0091202D01*
X0208798Y0091202D02*
X0227747Y0091202D01*
X0228745Y0090204D02*
X0209877Y0090204D01*
X0210448Y0089205D02*
X0229744Y0089205D01*
X0230742Y0088207D02*
X0210800Y0088207D01*
X0210800Y0087208D02*
X0231650Y0087208D01*
X0231650Y0086210D02*
X0210620Y0086210D01*
X0210206Y0085211D02*
X0231784Y0085211D01*
X0232198Y0084213D02*
X0209294Y0084213D01*
X0209282Y0092201D02*
X0226748Y0092201D01*
X0226282Y0093199D02*
X0210280Y0093199D01*
X0210800Y0094198D02*
X0226262Y0094198D01*
X0226262Y0095196D02*
X0210800Y0095196D01*
X0210800Y0096195D02*
X0226262Y0096195D01*
X0226262Y0097193D02*
X0210800Y0097193D01*
X0209889Y0098192D02*
X0226262Y0098192D01*
X0226262Y0099190D02*
X0208891Y0099190D01*
X0193181Y0102186D02*
X0226262Y0102186D01*
X0226262Y0103184D02*
X0192182Y0103184D01*
X0191184Y0104183D02*
X0226262Y0104183D01*
X0226262Y0105181D02*
X0190185Y0105181D01*
X0189187Y0106180D02*
X0226262Y0106180D01*
X0226462Y0107178D02*
X0187906Y0107178D01*
X0186907Y0108177D02*
X0226462Y0108177D01*
X0226462Y0109175D02*
X0185909Y0109175D01*
X0184910Y0110174D02*
X0226462Y0110174D01*
X0231262Y0112171D02*
X0361614Y0112171D01*
X0361875Y0113170D02*
X0231262Y0113170D01*
X0231262Y0114168D02*
X0362447Y0114168D01*
X0368516Y0114168D02*
X0369484Y0114168D01*
X0369484Y0113170D02*
X0368516Y0113170D01*
X0368516Y0112171D02*
X0369484Y0112171D01*
X0369484Y0110174D02*
X0368516Y0110174D01*
X0368516Y0109175D02*
X0369484Y0109175D01*
X0369484Y0108177D02*
X0368516Y0108177D01*
X0368516Y0107178D02*
X0369484Y0107178D01*
X0369484Y0115167D02*
X0368516Y0115167D01*
X0373176Y0117164D02*
X0386953Y0117164D01*
X0386953Y0118162D02*
X0374950Y0118162D01*
X0375836Y0119161D02*
X0386953Y0119161D01*
X0386953Y0120159D02*
X0376250Y0120159D01*
X0376437Y0121158D02*
X0386954Y0121158D01*
X0386954Y0122156D02*
X0376437Y0122156D01*
X0376120Y0123155D02*
X0386954Y0123155D01*
X0386955Y0124153D02*
X0375635Y0124153D01*
X0374636Y0125152D02*
X0386955Y0125152D01*
X0361895Y0125152D02*
X0231262Y0125152D01*
X0231262Y0126150D02*
X0360897Y0126150D01*
X0359898Y0127149D02*
X0231262Y0127149D01*
X0231262Y0128147D02*
X0358900Y0128147D01*
X0357901Y0129146D02*
X0231262Y0129146D01*
X0231262Y0130144D02*
X0356903Y0130144D01*
X0355904Y0131143D02*
X0231262Y0131143D01*
X0231262Y0132141D02*
X0354906Y0132141D01*
X0353907Y0133140D02*
X0231262Y0133140D01*
X0189495Y0132141D02*
X0183505Y0132141D01*
X0184504Y0133140D02*
X0188496Y0133140D01*
X0187498Y0134138D02*
X0185502Y0134138D01*
X0159486Y0130144D02*
X0117984Y0130144D01*
X0118822Y0129146D02*
X0158488Y0129146D01*
X0157489Y0128147D02*
X0119165Y0128147D01*
X0119165Y0127149D02*
X0156491Y0127149D01*
X0155492Y0126150D02*
X0118762Y0126150D01*
X0119668Y0125152D02*
X0154494Y0125152D01*
X0153495Y0124153D02*
X0120666Y0124153D01*
X0121665Y0123155D02*
X0152497Y0123155D01*
X0151498Y0122156D02*
X0122663Y0122156D01*
X0123662Y0121158D02*
X0150500Y0121158D01*
X0149501Y0120159D02*
X0124660Y0120159D01*
X0125659Y0119161D02*
X0148503Y0119161D01*
X0147504Y0118162D02*
X0126657Y0118162D01*
X0127656Y0117164D02*
X0146506Y0117164D01*
X0145507Y0116165D02*
X0128654Y0116165D01*
X0129653Y0115167D02*
X0144509Y0115167D01*
X0143510Y0114168D02*
X0130651Y0114168D01*
X0131650Y0113170D02*
X0142512Y0113170D01*
X0143797Y0108132D02*
X0144134Y0107320D01*
X0144954Y0106500D01*
X0111183Y0106500D01*
X0111183Y0108096D01*
X0143710Y0108096D01*
X0143797Y0108132D01*
X0144276Y0107178D02*
X0111183Y0107178D01*
X0111500Y0106180D02*
X0145171Y0106180D01*
X0125135Y0112896D02*
X0110708Y0112896D01*
X0111706Y0113894D01*
X0112333Y0113894D01*
X0113436Y0114350D01*
X0114279Y0115194D01*
X0114736Y0116297D01*
X0114736Y0117490D01*
X0114640Y0117723D01*
X0115569Y0117339D01*
X0116762Y0117339D01*
X0117865Y0117795D01*
X0118709Y0118639D01*
X0118909Y0119122D01*
X0125135Y0112896D01*
X0124862Y0113170D02*
X0110982Y0113170D01*
X0112995Y0114168D02*
X0123863Y0114168D01*
X0122865Y0115167D02*
X0114252Y0115167D01*
X0114682Y0116165D02*
X0121866Y0116165D01*
X0120868Y0117164D02*
X0114736Y0117164D01*
X0118231Y0118162D02*
X0119869Y0118162D01*
X0106701Y0121158D02*
X0013443Y0121158D01*
X0013443Y0122156D02*
X0017228Y0122156D01*
X0015481Y0123155D02*
X0013443Y0123155D01*
X0013443Y0124153D02*
X0014601Y0124153D01*
X0014188Y0125152D02*
X0013443Y0125152D01*
X0013443Y0126150D02*
X0014000Y0126150D01*
X0014000Y0127149D02*
X0013443Y0127149D01*
X0013443Y0128147D02*
X0014312Y0128147D01*
X0014782Y0129146D02*
X0013443Y0129146D01*
X0013443Y0130144D02*
X0015780Y0130144D01*
X0017264Y0132141D02*
X0013443Y0132141D01*
X0013443Y0131143D02*
X0023227Y0131143D01*
X0015496Y0133140D02*
X0013443Y0133140D01*
X0013443Y0134138D02*
X0014607Y0134138D01*
X0014194Y0135137D02*
X0013443Y0135137D01*
X0013443Y0136135D02*
X0014000Y0136135D01*
X0014000Y0137134D02*
X0013443Y0137134D01*
X0013443Y0138132D02*
X0014305Y0138132D01*
X0014767Y0139131D02*
X0013443Y0139131D01*
X0013443Y0140129D02*
X0015765Y0140129D01*
X0006782Y0140129D02*
X0006000Y0140129D01*
X0006000Y0139131D02*
X0006782Y0139131D01*
X0006782Y0138132D02*
X0006000Y0138132D01*
X0006000Y0137134D02*
X0006782Y0137134D01*
X0006782Y0136135D02*
X0006000Y0136135D01*
X0006000Y0135137D02*
X0006782Y0135137D01*
X0006782Y0134138D02*
X0006000Y0134138D01*
X0006000Y0133140D02*
X0006782Y0133140D01*
X0006782Y0132141D02*
X0006000Y0132141D01*
X0006000Y0131143D02*
X0006782Y0131143D01*
X0006782Y0130144D02*
X0006000Y0130144D01*
X0006000Y0129146D02*
X0006782Y0129146D01*
X0006782Y0128147D02*
X0006000Y0128147D01*
X0006000Y0127149D02*
X0006782Y0127149D01*
X0006782Y0126150D02*
X0006000Y0126150D01*
X0006000Y0125152D02*
X0006782Y0125152D01*
X0006782Y0124153D02*
X0006000Y0124153D01*
X0006000Y0123155D02*
X0006782Y0123155D01*
X0006782Y0122156D02*
X0006000Y0122156D01*
X0006000Y0121158D02*
X0006782Y0121158D01*
X0006782Y0120159D02*
X0006000Y0120159D01*
X0006000Y0119161D02*
X0006782Y0119161D01*
X0006782Y0118162D02*
X0006000Y0118162D01*
X0006000Y0117164D02*
X0006782Y0117164D01*
X0006782Y0116165D02*
X0006000Y0116165D01*
X0006000Y0115167D02*
X0007639Y0115167D01*
X0008638Y0114168D02*
X0006000Y0114168D01*
X0006000Y0113170D02*
X0008750Y0113170D01*
X0008750Y0112171D02*
X0006000Y0112171D01*
X0006000Y0111172D02*
X0008750Y0111172D01*
X0008750Y0110174D02*
X0006000Y0110174D01*
X0006000Y0109175D02*
X0008750Y0109175D01*
X0008750Y0108177D02*
X0006000Y0108177D01*
X0006000Y0107178D02*
X0008750Y0107178D01*
X0008550Y0106180D02*
X0006000Y0106180D01*
X0006000Y0105181D02*
X0008550Y0105181D01*
X0008550Y0104183D02*
X0006000Y0104183D01*
X0006000Y0103184D02*
X0008550Y0103184D01*
X0008550Y0102186D02*
X0006000Y0102186D01*
X0006000Y0101187D02*
X0008550Y0101187D01*
X0008550Y0100189D02*
X0006000Y0100189D01*
X0006000Y0099190D02*
X0008550Y0099190D01*
X0008550Y0098192D02*
X0006000Y0098192D01*
X0006000Y0097193D02*
X0008550Y0097193D01*
X0008550Y0096195D02*
X0006000Y0096195D01*
X0006000Y0095196D02*
X0008550Y0095196D01*
X0008550Y0094198D02*
X0006000Y0094198D01*
X0006000Y0093199D02*
X0008550Y0093199D01*
X0008550Y0092201D02*
X0006000Y0092201D01*
X0006000Y0091202D02*
X0008550Y0091202D01*
X0008550Y0090204D02*
X0006000Y0090204D01*
X0006000Y0089205D02*
X0008550Y0089205D01*
X0008550Y0088207D02*
X0006000Y0088207D01*
X0006000Y0087208D02*
X0008550Y0087208D01*
X0008550Y0086210D02*
X0006000Y0086210D01*
X0006000Y0085211D02*
X0008550Y0085211D01*
X0008550Y0084213D02*
X0006000Y0084213D01*
X0006000Y0083214D02*
X0008550Y0083214D01*
X0008550Y0082216D02*
X0006000Y0082216D01*
X0006000Y0081217D02*
X0008550Y0081217D01*
X0008550Y0080219D02*
X0006000Y0080219D01*
X0006000Y0079220D02*
X0008550Y0079220D01*
X0008550Y0078222D02*
X0006000Y0078222D01*
X0006000Y0077223D02*
X0009375Y0077223D01*
X0010373Y0076225D02*
X0006000Y0076225D01*
X0006000Y0075226D02*
X0011372Y0075226D01*
X0012370Y0074228D02*
X0006000Y0074228D01*
X0006000Y0073229D02*
X0013369Y0073229D01*
X0013800Y0072231D02*
X0006000Y0072231D01*
X0006000Y0071232D02*
X0013800Y0071232D01*
X0013937Y0070234D02*
X0006000Y0070234D01*
X0006000Y0069235D02*
X0014351Y0069235D01*
X0015117Y0068237D02*
X0006000Y0068237D01*
X0006000Y0067238D02*
X0016508Y0067238D01*
X0015594Y0065241D02*
X0006000Y0065241D01*
X0006000Y0066239D02*
X0049300Y0066239D01*
X0049300Y0077223D02*
X0026456Y0077223D01*
X0027868Y0078222D02*
X0049300Y0078222D01*
X0049300Y0079220D02*
X0028643Y0079220D01*
X0029056Y0080219D02*
X0049300Y0080219D01*
X0049300Y0081217D02*
X0029200Y0081217D01*
X0029200Y0082216D02*
X0049300Y0082216D01*
X0049300Y0083214D02*
X0028877Y0083214D01*
X0028434Y0084213D02*
X0049300Y0084213D01*
X0049300Y0085211D02*
X0027436Y0085211D01*
X0015146Y0088207D02*
X0013150Y0088207D01*
X0013150Y0089205D02*
X0014363Y0089205D01*
X0013950Y0090204D02*
X0013150Y0090204D01*
X0013150Y0091202D02*
X0013800Y0091202D01*
X0013800Y0092201D02*
X0013150Y0092201D01*
X0013150Y0093199D02*
X0014117Y0093199D01*
X0014551Y0094198D02*
X0013150Y0094198D01*
X0013150Y0095196D02*
X0015550Y0095196D01*
X0017553Y0096195D02*
X0013150Y0096195D01*
X0013150Y0097193D02*
X0019377Y0097193D01*
X0019377Y0098192D02*
X0013150Y0098192D01*
X0013150Y0099190D02*
X0019377Y0099190D01*
X0019377Y0100189D02*
X0013150Y0100189D01*
X0013150Y0101187D02*
X0019377Y0101187D01*
X0019377Y0102186D02*
X0013150Y0102186D01*
X0013150Y0103184D02*
X0019377Y0103184D01*
X0019377Y0104183D02*
X0013150Y0104183D01*
X0013150Y0105181D02*
X0019377Y0105181D01*
X0019377Y0106180D02*
X0013150Y0106180D01*
X0012950Y0106500D02*
X0012950Y0112808D01*
X0015886Y0109872D01*
X0017626Y0109872D01*
X0019577Y0109872D01*
X0019577Y0106500D01*
X0012950Y0106500D01*
X0012950Y0107178D02*
X0019577Y0107178D01*
X0019577Y0108177D02*
X0012950Y0108177D01*
X0012950Y0109175D02*
X0019577Y0109175D01*
X0015585Y0110174D02*
X0012950Y0110174D01*
X0012950Y0111172D02*
X0014586Y0111172D01*
X0013587Y0112171D02*
X0012950Y0112171D01*
X0013536Y0118162D02*
X0014308Y0118162D01*
X0014871Y0119161D02*
X0013443Y0119161D01*
X0013443Y0120159D02*
X0015880Y0120159D01*
X0027120Y0120159D02*
X0105702Y0120159D01*
X0103855Y0119161D02*
X0028129Y0119161D01*
X0028692Y0118162D02*
X0103109Y0118162D01*
X0102831Y0117164D02*
X0028951Y0117164D01*
X0028362Y0114168D02*
X0104572Y0114168D01*
X0105042Y0113170D02*
X0027533Y0113170D01*
X0025739Y0112171D02*
X0104044Y0112171D01*
X0103045Y0111172D02*
X0023777Y0111172D01*
X0023777Y0110174D02*
X0102047Y0110174D01*
X0101048Y0109175D02*
X0023777Y0109175D01*
X0023777Y0108177D02*
X0100050Y0108177D01*
X0097778Y0107178D02*
X0023777Y0107178D01*
X0006782Y0141128D02*
X0006000Y0141128D01*
X0006000Y0142126D02*
X0006782Y0142126D01*
X0006782Y0143125D02*
X0006000Y0143125D01*
X0006000Y0144123D02*
X0006782Y0144123D01*
X0006782Y0145122D02*
X0006000Y0145122D01*
X0006000Y0146120D02*
X0006782Y0146120D01*
X0006782Y0147119D02*
X0006000Y0147119D01*
X0006000Y0148117D02*
X0006782Y0148117D01*
X0006782Y0149116D02*
X0006000Y0149116D01*
X0006000Y0150114D02*
X0006782Y0150114D01*
X0006782Y0151113D02*
X0006000Y0151113D01*
X0006000Y0152111D02*
X0006782Y0152111D01*
X0006782Y0153110D02*
X0006000Y0153110D01*
X0006000Y0154108D02*
X0006782Y0154108D01*
X0006782Y0155107D02*
X0006000Y0155107D01*
X0006000Y0156105D02*
X0006782Y0156105D01*
X0006782Y0157104D02*
X0006000Y0157104D01*
X0006000Y0158103D02*
X0006782Y0158103D01*
X0006782Y0159101D02*
X0006000Y0159101D01*
X0006000Y0160100D02*
X0006782Y0160100D01*
X0006782Y0161098D02*
X0006000Y0161098D01*
X0006000Y0162097D02*
X0006782Y0162097D01*
X0006782Y0163095D02*
X0006000Y0163095D01*
X0006000Y0164094D02*
X0006782Y0164094D01*
X0006782Y0165092D02*
X0006000Y0165092D01*
X0006000Y0166091D02*
X0006782Y0166091D01*
X0006782Y0167089D02*
X0006000Y0167089D01*
X0006000Y0168088D02*
X0006782Y0168088D01*
X0006782Y0169086D02*
X0006000Y0169086D01*
X0006000Y0170085D02*
X0006782Y0170085D01*
X0006782Y0171083D02*
X0006000Y0171083D01*
X0006000Y0172082D02*
X0006782Y0172082D01*
X0006782Y0173080D02*
X0006000Y0173080D01*
X0006000Y0174079D02*
X0006782Y0174079D01*
X0006782Y0175077D02*
X0006000Y0175077D01*
X0006000Y0176076D02*
X0006782Y0176076D01*
X0006782Y0177074D02*
X0006000Y0177074D01*
X0006000Y0178073D02*
X0006782Y0178073D01*
X0006782Y0179071D02*
X0006000Y0179071D01*
X0006000Y0180070D02*
X0006782Y0180070D01*
X0006782Y0181068D02*
X0006000Y0181068D01*
X0093022Y0130144D02*
X0095154Y0130144D01*
X0094316Y0129146D02*
X0094020Y0129146D01*
X0098791Y0130144D02*
X0114346Y0130144D01*
X0106383Y0108571D02*
X0106383Y0106500D01*
X0104312Y0106500D01*
X0106383Y0108571D01*
X0106383Y0108177D02*
X0105989Y0108177D01*
X0106383Y0107178D02*
X0104991Y0107178D01*
X0022000Y0055256D02*
X0021000Y0055256D01*
X0021000Y0054257D02*
X0022000Y0054257D01*
X0022000Y0053259D02*
X0021000Y0053259D01*
X0021000Y0051000D02*
X0014023Y0051000D01*
X0014111Y0050446D01*
X0014330Y0049773D01*
X0014651Y0049141D01*
X0015068Y0048568D01*
X0015568Y0048068D01*
X0016141Y0047651D01*
X0016773Y0047330D01*
X0017446Y0047111D01*
X0018146Y0047000D01*
X0021000Y0047000D01*
X0021000Y0051000D01*
X0021000Y0050263D02*
X0022000Y0050263D01*
X0022000Y0049265D02*
X0021000Y0049265D01*
X0021000Y0048266D02*
X0022000Y0048266D01*
X0022000Y0047268D02*
X0021000Y0047268D01*
X0016963Y0047268D02*
X0006000Y0047268D01*
X0006000Y0048266D02*
X0015370Y0048266D01*
X0014588Y0049265D02*
X0006000Y0049265D01*
X0006000Y0050263D02*
X0014170Y0050263D01*
X0016472Y0057253D02*
X0006000Y0057253D01*
X0006000Y0058251D02*
X0015102Y0058251D01*
X0014345Y0059250D02*
X0006000Y0059250D01*
X0006000Y0060248D02*
X0013931Y0060248D01*
X0013800Y0061247D02*
X0006000Y0061247D01*
X0006000Y0062245D02*
X0013800Y0062245D01*
X0014135Y0063244D02*
X0006000Y0063244D01*
X0006000Y0064242D02*
X0014596Y0064242D01*
X0016465Y0038281D02*
X0006000Y0038281D01*
X0006000Y0037283D02*
X0013653Y0037283D01*
X0014147Y0037600D02*
X0014147Y0037600D01*
X0012099Y0036284D02*
X0006000Y0036284D01*
X0006000Y0035286D02*
X0010545Y0035286D01*
X0009398Y0034287D02*
X0006000Y0034287D01*
X0006000Y0033289D02*
X0008533Y0033289D01*
X0007668Y0032290D02*
X0006000Y0032290D01*
X0033091Y0034877D02*
X0033091Y0034877D01*
X0098780Y0036284D02*
X0107960Y0036284D01*
X0114974Y0028296D02*
X0121854Y0028296D01*
X0122852Y0027298D02*
X0113975Y0027298D01*
X0113403Y0026299D02*
X0120169Y0026299D01*
X0120446Y0026389D02*
X0119773Y0026170D01*
X0119141Y0025849D01*
X0118568Y0025432D01*
X0118068Y0024932D01*
X0117651Y0024359D01*
X0117330Y0023727D01*
X0117111Y0023054D01*
X0117000Y0022354D01*
X0117000Y0019500D01*
X0121000Y0019500D01*
X0121000Y0026477D01*
X0120446Y0026389D01*
X0121000Y0026299D02*
X0122000Y0026299D01*
X0122000Y0026477D02*
X0122000Y0019500D01*
X0126000Y0019500D01*
X0126000Y0022354D01*
X0125889Y0023054D01*
X0125670Y0023727D01*
X0125349Y0024359D01*
X0124932Y0024932D01*
X0124432Y0025432D01*
X0123859Y0025849D01*
X0123227Y0026170D01*
X0122554Y0026389D01*
X0122000Y0026477D01*
X0122831Y0026299D02*
X0123851Y0026299D01*
X0124563Y0025301D02*
X0124849Y0025301D01*
X0125378Y0024302D02*
X0125848Y0024302D01*
X0125808Y0023303D02*
X0126846Y0023303D01*
X0126800Y0022305D02*
X0126000Y0022305D01*
X0126000Y0021306D02*
X0126800Y0021306D01*
X0126800Y0020308D02*
X0126000Y0020308D01*
X0126800Y0019309D02*
X0122000Y0019309D01*
X0122000Y0019500D02*
X0122000Y0018500D01*
X0126000Y0018500D01*
X0126000Y0015646D01*
X0125889Y0014946D01*
X0125670Y0014273D01*
X0125349Y0013641D01*
X0124932Y0013068D01*
X0124432Y0012568D01*
X0123859Y0012151D01*
X0123227Y0011830D01*
X0122554Y0011611D01*
X0122000Y0011523D01*
X0122000Y0018500D01*
X0121000Y0018500D01*
X0121000Y0011523D01*
X0120446Y0011611D01*
X0119773Y0011830D01*
X0119141Y0012151D01*
X0118568Y0012568D01*
X0118068Y0013068D01*
X0117651Y0013641D01*
X0117330Y0014273D01*
X0117111Y0014946D01*
X0117000Y0015646D01*
X0117000Y0018500D01*
X0121000Y0018500D01*
X0121000Y0019500D01*
X0122000Y0019500D01*
X0122000Y0020308D02*
X0121000Y0020308D01*
X0121000Y0021306D02*
X0122000Y0021306D01*
X0122000Y0022305D02*
X0121000Y0022305D01*
X0121000Y0023303D02*
X0122000Y0023303D01*
X0122000Y0024302D02*
X0121000Y0024302D01*
X0121000Y0025301D02*
X0122000Y0025301D01*
X0118437Y0025301D02*
X0114846Y0025301D01*
X0115634Y0024302D02*
X0117622Y0024302D01*
X0117192Y0023303D02*
X0116047Y0023303D01*
X0116200Y0022305D02*
X0117000Y0022305D01*
X0117000Y0021306D02*
X0116200Y0021306D01*
X0116200Y0020308D02*
X0117000Y0020308D01*
X0116200Y0019309D02*
X0121000Y0019309D01*
X0121000Y0018311D02*
X0122000Y0018311D01*
X0122000Y0017312D02*
X0121000Y0017312D01*
X0121000Y0016314D02*
X0122000Y0016314D01*
X0122000Y0015315D02*
X0121000Y0015315D01*
X0121000Y0014317D02*
X0122000Y0014317D01*
X0122000Y0013318D02*
X0121000Y0013318D01*
X0121000Y0012320D02*
X0122000Y0012320D01*
X0124091Y0012320D02*
X0128533Y0012320D01*
X0127535Y0013318D02*
X0125114Y0013318D01*
X0125685Y0014317D02*
X0127110Y0014317D01*
X0126800Y0015315D02*
X0125948Y0015315D01*
X0126000Y0016314D02*
X0126800Y0016314D01*
X0126800Y0017312D02*
X0126000Y0017312D01*
X0126000Y0018311D02*
X0126800Y0018311D01*
X0118909Y0012320D02*
X0114467Y0012320D01*
X0115465Y0013318D02*
X0117886Y0013318D01*
X0117315Y0014317D02*
X0115890Y0014317D01*
X0116200Y0015315D02*
X0117052Y0015315D01*
X0117000Y0016314D02*
X0116200Y0016314D01*
X0116200Y0017312D02*
X0117000Y0017312D01*
X0117000Y0018311D02*
X0116200Y0018311D01*
X0109597Y0026299D02*
X0101658Y0026299D01*
X0100659Y0025301D02*
X0108154Y0025301D01*
X0107366Y0024302D02*
X0099661Y0024302D01*
X0117889Y0029295D02*
X0120855Y0029295D01*
X0119857Y0030293D02*
X0119228Y0030293D01*
X0123217Y0034287D02*
X0157576Y0034287D01*
X0155643Y0035286D02*
X0122218Y0035286D01*
X0121220Y0036284D02*
X0154644Y0036284D01*
X0153646Y0037283D02*
X0120221Y0037283D01*
X0118679Y0038281D02*
X0152647Y0038281D01*
X0156493Y0022305D02*
X0161224Y0022305D01*
X0160225Y0021306D02*
X0157492Y0021306D01*
X0158100Y0020308D02*
X0159700Y0020308D01*
X0159700Y0019309D02*
X0158100Y0019309D01*
X0158100Y0018311D02*
X0159700Y0018311D01*
X0159700Y0017312D02*
X0158100Y0017312D01*
X0157112Y0016314D02*
X0160605Y0016314D01*
X0161603Y0015315D02*
X0156114Y0015315D01*
X0177939Y0032290D02*
X0191177Y0032290D01*
X0190240Y0031292D02*
X0178937Y0031292D01*
X0179936Y0030293D02*
X0189827Y0030293D01*
X0189598Y0029295D02*
X0180934Y0029295D01*
X0189565Y0045271D02*
X0190378Y0045271D01*
X0191377Y0046269D02*
X0188566Y0046269D01*
X0234102Y0092201D02*
X0234223Y0092201D01*
X0235101Y0091202D02*
X0235179Y0091202D01*
X0233225Y0093199D02*
X0233104Y0093199D01*
X0232226Y0094198D02*
X0232105Y0094198D01*
X0231850Y0095196D02*
X0231462Y0095196D01*
X0231462Y0096195D02*
X0231850Y0096195D01*
X0231850Y0097193D02*
X0231462Y0097193D01*
X0231462Y0098192D02*
X0231850Y0098192D01*
X0231462Y0099190D02*
X0232614Y0099190D01*
X0239387Y0100189D02*
X0386948Y0100189D01*
X0386948Y0099190D02*
X0240386Y0099190D01*
X0241150Y0098192D02*
X0386948Y0098192D01*
X0386947Y0097193D02*
X0241150Y0097193D01*
X0241150Y0096195D02*
X0386947Y0096195D01*
X0386947Y0095196D02*
X0241150Y0095196D01*
X0240774Y0094198D02*
X0386946Y0094198D01*
X0386946Y0093199D02*
X0239775Y0093199D01*
X0238777Y0092201D02*
X0386946Y0092201D01*
X0386931Y0038281D02*
X0376535Y0038281D01*
X0378853Y0037600D02*
X0378853Y0037600D01*
X0379347Y0037283D02*
X0386931Y0037283D01*
X0386931Y0036284D02*
X0380901Y0036284D01*
X0382455Y0035286D02*
X0386930Y0035286D01*
X0386930Y0034287D02*
X0383602Y0034287D01*
X0383091Y0034877D02*
X0383091Y0034877D01*
X0384467Y0033289D02*
X0386930Y0033289D01*
X0386930Y0032290D02*
X0385332Y0032290D01*
X0386198Y0031292D02*
X0386929Y0031292D01*
X0386929Y0030293D02*
X0386745Y0030293D01*
X0354203Y0024302D02*
X0339910Y0024302D01*
X0338912Y0023303D02*
X0354059Y0023303D01*
X0353916Y0022305D02*
X0337913Y0022305D01*
X0337302Y0021306D02*
X0353828Y0021306D01*
X0353971Y0020308D02*
X0338300Y0020308D01*
X0339299Y0019309D02*
X0354115Y0019309D01*
X0354259Y0018311D02*
X0340100Y0018311D01*
X0340100Y0017312D02*
X0354402Y0017312D01*
X0354517Y0016513D02*
X0354517Y0016513D01*
X0354608Y0016314D02*
X0340100Y0016314D01*
X0340100Y0015315D02*
X0355064Y0015315D01*
X0355520Y0014317D02*
X0339925Y0014317D01*
X0338927Y0013318D02*
X0355976Y0013318D01*
X0356432Y0012320D02*
X0337928Y0012320D01*
X0331201Y0019309D02*
X0330080Y0019309D01*
X0330080Y0020308D02*
X0332200Y0020308D01*
X0333198Y0021306D02*
X0330080Y0021306D01*
X0330080Y0022305D02*
X0332587Y0022305D01*
X0331588Y0023303D02*
X0330080Y0023303D01*
X0330080Y0024302D02*
X0330590Y0024302D01*
X0330400Y0025301D02*
X0330080Y0025301D01*
X0330080Y0026299D02*
X0330400Y0026299D01*
X0330400Y0027298D02*
X0330080Y0027298D01*
X0330080Y0028296D02*
X0330400Y0028296D01*
X0331031Y0029295D02*
X0331186Y0029295D01*
X0332030Y0030293D02*
X0332185Y0030293D01*
X0333029Y0031292D02*
X0333183Y0031292D01*
X0376460Y0157104D02*
X0386964Y0157104D01*
X0386964Y0158103D02*
X0376211Y0158103D01*
X0375673Y0159101D02*
X0386964Y0159101D01*
D26*
X0126500Y0196500D03*
X0119000Y0196500D03*
M02*
