%
M48
M72
T01C0.01400
T02C0.01500
T03C0.02362
T04C0.03150
T05C0.03200
T06C0.03937
T07C0.04000
T08C0.04370
T09C0.06299
T10C0.12598
%
T01
X105831Y42091
X116657Y32248
X136795Y57386
X136835Y70142
X153075Y70634
X162730Y84522
X153075Y96224
X146677Y109020
X116165Y120339
X111736Y116894
X105831Y116894
X99925Y105083
X96972Y127720
X116165Y127720
X51697Y152327
X43823Y127720
X63508Y179394
X70398Y219748
X134866Y226638
X140772Y223685
X135850Y213843
X185063Y211382
X158980Y37169
T02
X126500Y196500
X119000Y196500
T03
X194098Y39827
X194098Y26047
X194098Y13449
X218902Y13449
X218902Y39827
T04
X261500Y26500
X261500Y16500
X261500Y56500
X261500Y66500
X261500Y76500
X335250Y76500
X335250Y66500
X335250Y26500
X335250Y16500
T05
X236500Y86500
X236500Y96500
X206500Y95500
X206500Y87500
X188000Y64000
X180000Y64000
X164000Y19000
X154000Y19000
T06
X369000Y51500
X369000Y61500
X369000Y74000
X369000Y84000
X369000Y111500
X369000Y121500
T07
X369000Y146500
X369000Y156500
X369000Y166500
X369000Y176500
X369000Y186500
X369000Y196500
X369000Y206500
X369000Y216500
X369000Y226500
X369000Y236500
X191500Y176500
X181500Y176500
X181500Y166500
X191500Y166500
X191500Y156500
X181500Y156500
X181500Y146500
X191500Y146500
X191500Y136500
X181500Y136500
X206500Y64000
X131500Y19000
X121500Y19000
X111500Y19000
X91500Y19000
X81500Y19000
X71500Y19000
X61500Y19000
X51500Y19000
X21500Y51500
X21500Y61500
X21500Y71500
X21500Y81500
X21500Y91500
X21500Y116500
X21500Y126500
X21500Y136500
X21500Y146500
X21500Y156500
X21500Y166500
X21500Y176500
X21500Y186500
X21500Y211500
X21500Y221500
X21500Y231500
X21500Y241500
T08
X46500Y236500
X46500Y226500
X56500Y226500
X56500Y236500
X56500Y246500
X56500Y256500
X46500Y256500
X46500Y246500
X46500Y216500
X46500Y206500
X46500Y196500
X56500Y196500
X56500Y206500
X56500Y216500
X56500Y186500
X56500Y176500
X46500Y176500
X46500Y186500
X46500Y166500
X56500Y166500
X146500Y166500
X156500Y166500
X156500Y176500
X146500Y176500
X146500Y186500
X156500Y186500
X156500Y196500
X146500Y196500
X146500Y206500
X156500Y206500
X156500Y216500
X146500Y216500
X146500Y226500
X156500Y226500
X156500Y236500
X146500Y236500
X146500Y246500
X156500Y246500
X156500Y256500
X146500Y256500
T09
X206500Y39827
X206500Y16205
T10
X21500Y21500
X21500Y271500
X371500Y271500
X371500Y21500
M30
